v 0.021577252075076103 -0.061877548694610596 0.16378360986709595
v 0.006583996582776308 -0.004965555388480425 -0.17564262449741364
v -0.024866513907909393 -0.05486442148685455 -0.17778289318084717
v 0.012621169909834862 -0.11908083409070969 -0.13234123587608337
v 0.006986402906477451 0.02606392838060856 -0.1712149977684021
v -0.022036390379071236 0.10601381212472916 0.1454344093799591
v -0.01318049244582653 -0.03937721997499466 0.21598146855831146
v 0.006605949718505144 0.024407094344496727 0.17188836634159088
v 0.0126796280965209 0.07716258615255356 -0.19656004011631012
v -0.024879461154341698 0.10426218807697296 -0.13011100888252258
v 0.006989528890699148 -0.1227337047457695 0.12781880795955658
v 0.021606609225273132 0.0070410906337201595 -0.18809176981449127
v -3.7140754471920445e-08 -0.06340977549552917 0.20981331169605255
v 0.006989539600908756 0.12273333966732025 0.12781880795955658
v -1.895346990465896e-08 0.059568632394075394 0.1475958675146103
v -0.006658412050455809 0.07407549023628235 -0.1161595806479454
v -0.012807843275368214 -0.07563892751932144 -0.12719428539276123
v 0.018284551799297333 0.08019257336854935 -0.12111793458461761
v -0.005940362345427275 -0.044528696686029434 0.161496102809906
v -0.01261045504361391 -0.118506520986557 -0.1337936371564865
v 0.02488267980515957 -0.1034933477640152 -0.13199473917484283
v 0.013180414214730263 -0.03937722370028496 0.21598146855831146
v -0.019417373463511467 -0.07917337119579315 -0.18812181055545807
v -0.01230216771364212 -0.09136616438627243 0.1822662055492401
v 0.021599512547254562 0.024700911715626717 0.18538320064544678
v -0.021577296778559685 -0.061877548694610596 0.16378360986709595
v -0.01206132024526596 -0.043830595910549164 -0.16561222076416016
v -0.007477873004972935 0.005782540421932936 -0.22578801214694977
v 0.02504049614071846 0.09259399771690369 0.14831125736236572
v 0.024903345853090286 0.030200768262147903 -0.2039652168750763
v 0.024916645139455795 0.10342007875442505 -0.13186074793338776
v 0.02497316524386406 -0.09108411520719528 0.12652158737182617
v -0.02487397938966751 -0.056688643991947174 0.19163143634796143
v -0.017931969836354256 0.07981984317302704 0.12162713706493378
v 8.02034350044778e-08 0.09513378888368607 -0.18344426155090332
v -0.012350417673587799 0.021080484613776207 0.17674267292022705
v -0.012298457324504852 -0.04023650661110878 -0.2164354771375656
v 0.007367138750851154 0.05216335877776146 0.21388553082942963
v 0.006799723953008652 -0.01026884838938713 0.1748461276292801
v -0.012610442005097866 0.11850620061159134 -0.13379353284835815
v 0.02166249416768551 0.0786452367901802 -0.18129023909568787
v 0.018468687310814857 0.00753077631816268 -0.21954642236232758
v 0.021665094420313835 -0.10850578546524048 0.13896510004997253
v 0.02174493856728077 0.04533899575471878 0.20487543940544128
v 0.012880307622253895 0.11858521401882172 -0.13321200013160706
v -0.019357595592737198 0.044246185570955276 0.2096497267484665
v 0.024913448840379715 -0.06377153098583221 -0.18752050399780273
v 0.012302134186029434 0.09136605262756348 0.18226581811904907
v -0.00033918878762051463 -0.07128684222698212 -0.12987369298934937
v -0.012434734031558037 -0.07629795372486115 0.12242891639471054
v 0.02187919057905674 0.1068938747048378 0.1444198340177536
v -0.021657178178429604 -0.10777803510427475 0.14035221934318542
v -0.02495952695608139 0.09259398281574249 0.14831127226352692
v 0.021518966183066368 0.055265575647354126 -0.16953857243061066
v 0.018042782321572304 0.07986804842948914 0.12170445173978806
v 0.006650272756814957 -0.038153212517499924 -0.1656583994626999
v -0.025051740929484367 -0.09142003953456879 0.12580066919326782
v -0.018527688458561897 -0.018681220710277557 -0.18105636537075043
v -0.01815616898238659 -0.024604573845863342 0.1786106377840042
v -0.012829662300646305 0.05968766659498215 -0.1523578017950058
v -0.019210057333111763 -0.0013270326890051365 0.21802164614200592
v -0.024912750348448753 -0.10414871573448181 -0.13027967512607574
v -0.02503873221576214 -0.017213644459843636 -0.20536059141159058
v 0.0002947234606835991 -0.07208893448114395 0.1265525221824646
v -4.351862870066725e-08 0.005909901577979326 0.22614741325378418
v 0.021571887657046318 -0.08380698412656784 -0.13124138116836548
v 9.471171580344162e-08 0.0405271053314209 -0.21940763294696808
v 0.01214888971298933 -0.04879465326666832 0.16257989406585693
v -0.021662339568138123 -0.08566892147064209 -0.12338975816965103
v 0.02157733030617237 -0.043257951736450195 -0.17765146493911743
v -0.018500378355383873 0.0610487274825573 0.15596061944961548
v 0.012298651970922947 -0.04023651033639908 -0.2164354771375656
v 0.006813284009695053 -0.09559664875268936 -0.1815837323665619
v 0.019209975376725197 -0.0013270284980535507 0.21802164614200592
v -0.012559367343783379 0.11989064514636993 0.12695209681987762
v 0.018500342965126038 0.061048757284879684 0.15596060454845428
v -0.006374629680067301 0.0956220030784607 0.18233457207679749
v 0.012802145443856716 -0.07660210877656937 0.12218525260686874
v 0.021707380190491676 -0.06175221502780914 0.19534175097942352
v -0.021616077050566673 0.08565019816160202 -0.1232692301273346
v -0.024956069886684418 0.012336206622421741 0.2024570256471634
v -0.024799630045890808 0.07808364182710648 -0.17432820796966553
v -0.021599575877189636 0.02470092475414276 0.18538320064544678
v 9.676925571966422e-08 -0.055766791105270386 -0.21309523284435272
v -0.0006355443620122969 -0.12311360985040665 -0.12742619216442108
v -0.012559356167912483 -0.11989101022481918 0.12695205211639404
v 0.006605647969990969 0.05708826705813408 -0.15007832646369934
v 0.024955997243523598 0.012336205691099167 0.2024570256471634
v -0.021804481744766235 0.029203351587057114 -0.2101689875125885
v 0.012354462407529354 -0.07525569200515747 -0.12742455303668976
v 6.070444413808218e-08 0.12346445769071579 -0.12556521594524384
v -0.00012824010627809912 0.07434923946857452 0.11228013783693314
v -0.012258995324373245 0.025932418182492256 -0.17458537220954895
v 0.02480737306177616 -0.05437114089727402 0.18258532881736755
v 0.007662904914468527 -0.09717944264411926 0.17968183755874634
v -0.02144549787044525 0.045227497816085815 -0.17834800481796265
v -0.012679454870522022 0.07716257870197296 -0.19656004011631012

vn 0.012787255458533764 -0.9856868386268616 -0.16794335842132568
vn -0.9594408869743347 -0.036896876990795135 -0.2794579863548279
vn -0.7353129386901855 0.14105655252933502 0.6628620028495789
vn -0.983336865901947 0.17242957651615143 -0.05725272372364998
vn 0.9427167773246765 -0.31345561146736145 -0.11410870403051376
vn 0.981810986995697 0.1816461682319641 -0.05468916893005371
vn -0.47352519631385803 -0.8393505811691284 -0.26685383915901184
vn 0.25131991505622864 -0.9481185078620911 0.19452497363090515
vn 0.4778588116168976 0.8392285108566284 -0.2594683766365051
vn 0.5618762969970703 0.8016906976699829 -0.20380260050296783
vn 0.5356608629226685 0.7959227561950684 0.28199103474617004
vn -0.9465010762214661 -0.31238746643066406 -0.08075197786092758
vn 0.0396130234003067 0.9885860681533813 -0.14529862999916077
vn -0.46421703696250916 -0.2627643644809723 0.8458204865455627
vn 0.25760674476623535 -0.3489791452884674 0.9009979367256165
vn 0.5855281352996826 0.5437177419662476 -0.6012146472930908
vn -0.9880062341690063 0.09060945361852646 0.12494277954101562
vn 0.9953612089157104 0.06659138947725296 0.06903287023305893
vn -0.47309792041778564 -0.251991331577301 -0.844172477722168
vn 0.8005615472793579 -0.33564257621765137 0.49638354778289795
vn -0.712546169757843 -0.016144290566444397 0.7014068961143494
vn 0.01916562393307686 -0.48802149295806885 -0.8725852370262146
vn 0.8247627019882202 -0.5280312299728394 0.20218512415885925
vn -0.9465621113777161 -0.17108675837516785 0.27335429191589355
vn 0.7268593311309814 -0.01751762442290783 0.6865138411521912
vn -0.8530839085578918 -0.20300912857055664 -0.48063600063323975
vn 0.2597735524177551 0.5466475486755371 0.7960143089294434
vn -0.9955137968063354 0.063112273812294 0.07025361061096191
vn -0.5710318088531494 0.790734589099884 -0.22046571969985962
vn 0.02548295632004738 0.9200415015220642 -0.3909115791320801
vn -0.808160662651062 -0.5425275564193726 0.22913296520709991
vn 0.8367869853973389 0.22705771028995514 0.4981536269187927
vn -0.5017243027687073 -0.6565446853637695 0.5631885528564453
vn -0.8597369194030762 0.40162357687950134 -0.3154393136501312
vn 0.2226020097732544 0.11221656203269958 -0.9684133529663086
vn 0.7156895399093628 -0.46479690074920654 -0.521256148815155
vn -0.7674184441566467 -0.6245918273925781 -0.14459669589996338
vn 0.4423352777957916 0.5320596694946289 -0.7219458818435669
vn -0.4863429665565491 0.860927164554596 0.14908291399478912
vn 0.9917294979095459 0.016418958082795143 0.1272621899843216
vn -0.0002441480755805969 0.0633564293384552 0.9979857802391052
vn -0.5171056389808655 0.807733416557312 0.28302866220474243
vn 0.49497970938682556 -0.8354442119598389 -0.2386852651834488
vn -0.29895931482315063 0.7186803817749023 0.6277657151222229
vn 0.460524320602417 -0.2606891095638275 0.8484755754470825
vn 0.8273873329162598 -0.20416882634162903 -0.5231482982635498
vn 0.8691366314888 -0.016174810007214546 0.4942472577095032
vn 0.20075075328350067 0.41599780321121216 0.886898398399353
vn 0.6554155349731445 0.02291940152645111 -0.7549058198928833
vn 0.22806482017040253 0.05786309391260147 0.9718924760818481
vn -0.27454450726509094 0.018738364800810814 -0.9613635540008545
vn 0.747978150844574 -0.6366161108016968 0.18759727478027344
vn -0.024170659482479095 0.9066133499145508 0.4211859405040741
vn -0.4673604667186737 0.8410596251487732 -0.27228614687919617
vn -0.8791466951370239 -0.4595782458782196 0.125980406999588
vn 0.2708517611026764 0.9451887607574463 0.1822870522737503
vn -0.23129978775978088 -0.9475386738777161 0.22049623727798462
vn -0.9518112540245056 0.29013946652412415 -0.09924618899822235
vn 0.24961088597774506 -0.7535630464553833 -0.6081117987632751
vn 0.316965252161026 -0.7525864243507385 0.5771355032920837
vn 0.921201229095459 -0.2380443811416626 -0.3077181279659271
vn 0.8922391533851624 0.2144230455160141 0.3973509967327118
vn 0.48829615116119385 -0.2551042139530182 -0.8345286250114441
vn -0.9419232606887817 0.2623676359653473 -0.20954008400440216
vn -0.39326152205467224 -0.23688466846942902 0.8883633017539978
vn -0.7461470365524292 0.18744468688964844 -0.6388134360313416
vn 0.8718527555465698 0.3736686408519745 -0.3165684938430786
vn 0.019409772008657455 -0.5186010599136353 0.8547929525375366
vn 0.23587755858898163 -0.7591479420661926 0.6066164374351501
vn -0.8708456754684448 -0.21112704277038574 0.443830668926239
vn 0.016174810007214546 -0.766014575958252 -0.6425977349281311
vn 0.9155247807502747 0.3734855055809021 0.14935758709907532
vn -0.7819452285766602 0.5695059299468994 0.2533951699733734
vn 0.8333079218864441 -0.36118656396865845 0.41840875148773193
vn -0.9945982098579407 0.010010071098804474 0.1029999703168869
vn -0.4767906665802002 -0.8632465600967407 0.16568498313426971
vn 0.7776726484298706 0.5803704857826233 0.24161504209041595
vn -0.008117923513054848 -0.9898068308830261 -0.1420941799879074
vn -0.7897884845733643 0.18051698803901672 -0.5861690044403076
vn -0.69502854347229 -0.4939115643501282 -0.522415816783905
vn 0.0007019257172942162 0.7968993186950684 -0.6040833592414856
vn 0.9505600333213806 0.2952665686607361 -0.09588915854692459
vn -0.6930143237113953 0.29740288853645325 0.6566972732543945
vn -0.9111911654472351 0.39909055829048157 0.10208441317081451
vn -0.2528763711452484 0.5613574385643005 -0.7879573702812195
vn 0.7513046860694885 -0.6430554986000061 -0.14828944206237793
vn 0.7746818661689758 0.5290078520774841 -0.34638509154319763
vn -0.4863734841346741 -0.2303537130355835 -0.842799186706543
vn -0.031342510133981705 0.3407086431980133 -0.939634382724762
vn -0.4524674117565155 0.5344706773757935 -0.713858425617218
vn 0.9383831024169922 0.12390515208244324 -0.32255011796951294
vn 0.9947813153266907 0.06265450268983841 -0.08023316413164139
vn -0.5145725607872009 0.5264748334884644 0.6767479181289673
vn 0.5204321146011353 0.6296578645706177 0.5767387747764587
vn -0.6924955248832703 -0.4836573302745819 -0.5352336168289185
vn -0.36982330679893494 -0.7235327959060669 0.5828119516372681
vn 0.23914304375648499 -0.3586229979991913 -0.9023102521896362

vt 0.7933695316314697 0.4166666567325592
vt 0.13692690432071686 0.4620422124862671
vt 0.2949880063533783 0.0833333358168602
vt 0.1867770254611969 2.220446049250313e-16
vt 0.9416905641555786 0.04787904769182205
vt 0.5449078679084778 0.8333333134651184
vt 0.8645737171173096 0.9166666865348816
vt 0.9825731515884399 0.1666666716337204
vt 0.2919110655784607 0.7864519357681274
vt 0.6427662968635559 2.220446049250313e-16
vt 0.30688226222991943 0.6666666269302368
vt 0.916833221912384 0.8333332538604736
vt 0.36670613288879395 0.5833333134651184
vt 0.5191506743431091 0.25
vt 0.8930267691612244 0.1666666716337204
vt 0.20587576925754547 0.5833333134651184
vt 0.8778800964355469 0.667472243309021
vt 0.10130690783262253 0.7700242400169373
vt 0.864589512348175 1.0
vt 0.21512064337730408 0.5
vt 0.9780601859092712 0.75
vt 0.7861000299453735 2.220446049250313e-16
vt 0.052962370216846466 0.5833333134651184
vt 0.20399081707000732 0.2928731441497803
vt 0.0122821144759655 1.0
vt 0.7885419726371765 0.1281231939792633
vt 0.7857739925384521 0.9568867683410645
vt 0.685621976852417 0.6666666865348816
vt 0.3775104284286499 0.8333333730697632
vt 0.5520807504653931 0.0400409996509552
vt 0.4479188024997711 0.4166666865348816
vt 0.01619742624461651 0.0416710302233696
vt 0.6734302639961243 0.75
vt 0.19459570944309235 0.0833333358168602
vt 0.3587806522846222 0.44543275237083435
vt 0.5427655577659607 0.9166666269302368
vt 0.02600797265768051 0.6905732154846191
vt 0.3046925365924835 0.3333333432674408
vt 0.5648537874221802 0.3333333432674408
vt 0.03353988751769066 0.8655586242675781
vt 0.9467226266860962 0.9166666865348816
vt 0.2852895259857178 0.4569070339202881
vt 0.48177674412727356 1.0
vt 0.40806999802589417 0.2359892725944519
vt 0.5636188983917236 0.6338975429534912
vt 0.3061833381652832 1.0
vt 0.5074326992034912 0.5
vt 0.6311284303665161 0.13037529587745667
vt 0.09670460224151611 0.30512627959251404
vt 0.7941241264343262 0.5833333134651184
vt 0.6734300851821899 0.25
vt 0.39451533555984497 0.0833333283662796
vt 1.0 0.8655586242675781
vt 0.9922946095466614 1.0
vt 0.5191507339477539 0.75
vt 0.7090631723403931 0.8787384033203125
vt 0.544907808303833 0.1666666716337204
vt 0.11511892080307007 0.6267878413200378
vt 0.4534672200679779 0.8800951242446899
vt 0.4085490107536316 0.3333333432674408
vt 0.7824735641479492 0.5
vt 0.7239298820495605 1.0
vt 0.8776031732559204 0.3333333432674408
vt 0.2079063355922699 0.4166666865348816
vt 0.5672136545181274 0.4575824737548828
vt 0.09374243021011353 0.9166666269302368
vt 0.1867770254611969 1.0
vt 0.9517910480499268 0.3034629821777344
vt 0.20048591494560242 0.6991499066352844
vt 0.7995610237121582 0.6985307931900024
vt 0.08082742989063263 0.1666666716337204
vt 0.9776383638381958 0.4166666567325592
vt 0.7148553729057312 0.45514509081840515
vt 0.4966185688972473 0.6217548847198486
vt 0.4166134297847748 0.5
vt 0.8925975561141968 0.4166666269302368
vt 0.5520907640457153 1.0
vt 0.8645819425582886 0.040037851780653
vt 0.7147746086120605 0.5833333730697632
vt 0.3977881669998169 0.9721538424491882
vt 0.9588338136672974 0.6666666865348816
vt 0.6311284303665161 0.8696247935295105
vt 0.28522536158561707 0.5833333134651184
vt 0.6427662968635559 1.0
vt 0.07292375713586807 0.5
vt 0.4092356562614441 2.220446049250313e-16
vt 0.8645937442779541 0.5
vt 0.052962370216846466 0.4166666567325592
vt 8.881784197001252e-16 0.3034629821777344
vt 0.29151439666748047 0.2153627574443817
vt 0.6360145807266235 0.5390655994415283
vt 0.8925975561141968 0.5833333134651184
vt 0.9348950386047363 1.0
vt 0.4050300121307373 0.6931204199790955
vt 0.3061833381652832 2.220446049250313e-16
vt 0.633294403553009 0.4166666567325592
vt 0.00804056879132986 0.3952265977859497
vt 0.29560166597366333 0.9166666269302368
vt 0.19531382620334625 0.9166666865348816
vt 0.3775104284286499 0.1666666716337204
vt 0.07589985430240631 1.0
vt 0.08470267802476883 0.04111339524388313
vt 0.4966185688972473 0.3782449960708618
vt 0.792111337184906 0.8333332538604736
vt 8.881784197001252e-16 0.6666666865348816
vt 0.010709613561630249 0.1666666716337204
vt 0.8010759353637695 0.29641568660736084
vt 0.6871557831764221 0.3333333432674408
vt 0.9878298044204712 0.5453536510467529
vt 0.2076893448829651 0.8333332538604736
vt 0.0047490280121564865 0.5453536510467529
vt 0.4479188323020935 0.5833333134651184
vt 0.9479125738143921 0.5
vt 0.9961477518081665 0.0416710302233696
vt 0.708702802658081 0.12322716414928436
vt 0.4796055853366852 0.043721187859773636
vt 0.1931937336921692 0.1666666716337204
vt 0.7239298820495605 2.220446049250313e-16

f 65/47/41 61/74/21 7/112/14
f 74/103/25 65/47/41 22/31/45
f 22/31/45 65/47/41 13/75/68
f 65/47/41 7/112/14 13/75/68
f 46/45/83 81/55/75 61/74/21
f 79/60/20 22/31/45 95/35/60
f 7/112/14 33/94/24 24/13/33
f 33/94/24 59/59/66 26/29/34
f 81/55/75 59/59/66 33/94/24
f 19/86/85 39/116/35 68/52/16
f 39/116/35 94/44/92 68/52/16
f 94/44/92 79/60/20 43/38/23
f 68/52/16 1/100/87 78/3/10
f 26/29/34 19/80/85 50/98/29
f 43/38/23 21/24/5 32/90/6
f 57/9/4 62/69/12 52/11/31
f 66/117/72 21/24/5 47/49/61
f 85/20/1 20/16/7 73/2/59
f 23/58/80 62/69/12 3/18/17
f 17/99/42 49/67/53 27/66/93
f 49/4/53 90/34/11 56/102/27
f 73/2/59 23/58/80 84/85/22
f 3/18/17 27/66/93 58/40/3
f 2/32/50 70/71/62 12/106/47
f 56/102/27 70/71/62 2/32/50
f 72/88/63 28/111/51 42/97/49
f 42/72/49 28/109/51 67/113/89
f 96/12/70 58/53/3 93/41/65
f 58/53/3 2/54/50 93/41/65
f 2/114/50 12/8/47 5/5/15
f 30/68/91 42/72/49 9/76/38
f 42/72/49 67/113/89 9/76/38
f 67/113/89 28/109/51 97/92/90
f 28/109/51 89/81/79 97/92/90
f 89/81/79 63/21/2 82/17/64
f 63/21/2 96/12/70 82/17/64
f 93/41/65 2/54/50 5/93/15
f 5/5/15 12/8/47 54/15/74
f 96/12/70 93/41/65 60/7/96
f 5/5/15 54/15/74 87/78/69
f 87/78/69 54/15/74 18/26/52
f 54/15/74 31/107/82 18/26/52
f 45/1/9 35/87/81 91/61/13
f 9/76/38 35/87/81 45/1/9
f 35/87/81 40/50/54 91/61/13
f 35/87/81 97/92/90 40/50/54
f 10/70/58 96/12/70 80/104/55
f 96/12/70 60/7/96 80/104/55
f 16/22/57 87/78/69 18/26/52
f 34/56/37 16/27/57 92/62/78
f 29/51/18 31/107/82 51/108/77
f 6/28/73 10/70/58 53/33/28
f 34/56/37 80/104/55 16/27/57
f 34/56/37 92/62/78 15/84/71
f 92/118/78 55/115/86 15/10/71
f 51/108/77 14/73/56 48/96/94
f 14/73/56 77/91/44 48/96/94
f 75/79/39 6/28/73 77/91/44
f 34/56/37 15/84/71 71/82/95
f 15/10/71 55/115/86 76/48/36
f 6/28/73 53/33/28 46/45/83
f 46/45/83 53/33/28 81/55/75
f 83/6/26 71/82/95 36/36/88
f 76/48/36 25/57/46 8/30/97
f 29/51/18 44/39/32 88/14/40
f 29/51/18 51/108/77 44/39/32
f 38/65/48 77/91/44 46/45/83
f 38/65/48 46/45/83 65/47/41
f 38/65/48 65/47/41 74/103/25
f 65/47/41 46/45/83 61/74/21
f 88/14/40 44/39/32 74/103/25
f 79/60/20 74/103/25 22/31/45
f 7/112/14 61/74/21 33/94/24
f 61/74/21 81/55/75 33/94/24
f 81/55/75 83/6/26 59/59/66
f 59/59/66 83/6/26 36/36/88
f 59/59/66 36/36/88 39/43/35
f 36/36/88 8/77/97 39/43/35
f 39/116/35 8/30/97 25/57/46
f 39/116/35 25/57/46 94/44/92
f 94/44/92 25/57/46 88/14/40
f 86/83/76 11/42/8 95/35/60 24/13/33
f 95/35/60 22/31/45 13/75/68
f 13/75/68 7/112/14 24/13/33
f 59/59/66 39/43/35 19/80/85
f 68/52/16 94/44/92 1/100/87
f 1/100/87 94/44/92 32/90/6
f 32/90/6 94/44/92 43/38/23
f 43/38/23 79/60/20 95/35/60
f 95/35/60 13/75/68 24/13/33
f 24/13/33 33/94/24 52/11/31
f 52/11/31 33/94/24 57/9/4
f 57/9/4 33/94/24 26/29/34
f 26/29/34 59/59/66 19/80/85
f 64/95/30 19/86/85 68/52/16
f 50/98/29 19/80/85 64/46/30
f 64/95/30 68/52/16 78/3/10
f 78/3/10 1/100/87 32/90/6
f 43/38/23 95/35/60 11/42/8
f 69/110/84 57/9/4 50/98/29 17/99/42
f 86/83/76 24/13/33 52/11/31
f 57/9/4 26/29/34 50/98/29
f 17/99/42 50/98/29 64/46/30 49/67/53
f 49/4/53 64/95/30 78/3/10 90/34/11
f 90/34/11 78/3/10 32/90/6 66/117/72
f 4/64/43 21/24/5 43/38/23 11/42/8
f 32/90/6 21/24/5 66/117/72
f 85/20/1 11/42/8 86/83/76 20/16/7
f 11/42/8 85/20/1 4/64/43
f 62/69/12 20/16/7 86/83/76 52/11/31
f 73/2/59 47/49/61 21/24/5 4/64/43
f 57/9/4 69/110/84 62/69/12
f 62/69/12 69/110/84 3/18/17
f 3/18/17 69/110/84 17/99/42
f 66/117/72 70/71/62 56/102/27 90/34/11
f 4/64/43 85/20/1 73/2/59
f 73/2/59 20/16/7 23/58/80
f 23/58/80 20/16/7 62/69/12
f 3/18/17 17/99/42 27/66/93
f 27/66/93 49/67/53 56/101/27
f 63/37/2 89/105/79 28/111/51 37/23/19
f 70/71/62 66/117/72 47/49/61
f 84/85/22 23/58/80 37/23/19
f 47/49/61 73/2/59 72/88/63
f 72/88/63 73/2/59 84/85/22
f 37/23/19 23/58/80 63/37/2
f 28/111/51 84/85/22 37/23/19
f 23/58/80 3/18/17 63/37/2
f 63/37/2 3/18/17 58/40/3
f 58/40/3 56/101/27 2/25/50
f 58/40/3 27/66/93 56/101/27
f 12/106/47 70/71/62 47/49/61
f 42/97/49 47/49/61 72/88/63
f 72/88/63 84/85/22 28/111/51
f 5/93/15 87/19/69 60/7/96 93/41/65
f 63/21/2 58/53/3 96/12/70
f 12/106/47 47/49/61 30/89/91
f 47/49/61 42/97/49 30/89/91
f 54/15/74 12/8/47 30/68/91
f 41/63/67 30/68/91 9/76/38
f 9/76/38 67/113/89 35/87/81
f 35/87/81 67/113/89 97/92/90
f 97/92/90 89/81/79 82/17/64
f 9/76/38 45/1/9 31/107/82 41/63/67
f 54/15/74 30/68/91 31/107/82
f 31/107/82 30/68/91 41/63/67
f 10/70/58 82/17/64 96/12/70
f 10/70/58 40/50/54 97/92/90 82/17/64
f 18/26/52 55/115/86 92/118/78 16/22/57
f 80/104/55 60/7/96 16/27/57
f 60/7/96 87/19/69 16/27/57
f 31/107/82 29/51/18 55/115/86 18/26/52
f 45/1/9 14/73/56 51/108/77 31/107/82
f 91/61/13 40/50/54 75/79/39 14/73/56
f 14/73/56 45/1/9 91/61/13
f 10/70/58 6/28/73 75/79/39 40/50/54
f 80/104/55 34/56/37 53/33/28 10/70/58
f 83/6/26 81/55/75 53/33/28 71/82/95
f 53/33/28 34/56/37 71/82/95
f 76/48/36 55/115/86 29/51/18
f 77/91/44 14/73/56 75/79/39
f 77/91/44 6/28/73 46/45/83
f 15/84/71 8/77/97 36/36/88 71/82/95
f 29/51/18 88/14/40 25/57/46 76/48/36
f 15/10/71 76/48/36 8/30/97
f 44/39/32 48/96/94 38/65/48
f 44/39/32 51/108/77 48/96/94
f 48/96/94 77/91/44 38/65/48
f 74/103/25 79/60/20 94/44/92 88/14/40
f 44/39/32 38/65/48 74/103/25
