v 0.018998757004737854 0.021454911679029465 -0.18736930191516876
v -0.09222710877656937 -0.012571112252771854 -0.18088310956954956
v 0.06168738007545471 0.018091414123773575 -0.15557783842086792
v -0.0925939530134201 -0.02495957538485527 0.1483231633901596
v 0.009413141757249832 0.012905588373541832 0.2224227488040924
v 0.08051925152540207 0.01802477240562439 -0.11716765910387039
v 0.10853992402553558 -0.021578582003712654 0.1391541063785553
v 0.09113045781850815 0.024973951280117035 0.12640658020973206
v 0.02460462413728237 -0.01815619133412838 0.1786225587129593
v 0.05284588411450386 3.8247854661221936e-08 -0.1549784243106842
v -0.04325664043426514 -0.021577199921011925 -0.1776401549577713
v -0.10689385235309601 0.021879136562347412 0.14443174004554749
v -0.10502160340547562 0.02490723691880703 -0.12179335951805115
v -0.05956859141588211 -6.342447278484542e-08 0.14760778844356537
v 0.10775124281644821 0.02175200544297695 0.1401502639055252
v 0.07631967216730118 0.021691758185625076 -0.18668095767498016
v -0.04419765993952751 0.02500002831220627 -0.19459868967533112
v -0.0453389510512352 0.021744903177022934 0.20488736033439636
v -0.1181812584400177 -0.012919542379677296 0.13548389077186584
v -0.06221288442611694 2.4538932663631385e-08 -0.14326956868171692
v 0.12283498793840408 -0.007252017967402935 -0.1272977590560913
v 0.02906843088567257 -0.021156655624508858 -0.1856357604265213
v -0.11949678510427475 0.012772192247211933 -0.12779156863689423
v -0.08343081176280975 1.1459696303006695e-08 -0.1951354444026947
v -0.09330560266971588 -0.005782106891274452 0.18472591042518616
v -0.08439324796199799 0.021639365702867508 -0.13031776249408722
v -0.005255021154880524 -0.012235987931489944 -0.18018171191215515
v 0.024599557742476463 4.656945762349096e-08 -0.2236638218164444
v 0.08382762968540192 -0.02164553478360176 -0.13139693439006805
v -0.10601375252008438 -0.022036446258425713 0.1454462856054306
v 0.07208897918462753 0.0002947109460365027 0.12656444311141968
v -0.021957430988550186 -0.0066515738144516945 0.17291060090065002
v -0.12300600856542587 -0.0002987611514981836 0.12836220860481262
v 0.10567233711481094 0.024895673617720604 -0.1199292242527008
v -0.11985570192337036 -0.012351619079709053 -0.12741641700267792
v 0.07624378800392151 -0.012624059803783894 0.12281541526317596
v 0.044528745114803314 -0.005940381903201342 0.1615080088376999
v -0.03748982027173042 0.01882954314351082 -0.17532092332839966
v 0.0913662314414978 -0.012302175164222717 0.182278111577034
v -0.037089407444000244 0.007891187444329262 -0.22015869617462158
v -0.052163321524858475 0.007367101963609457 0.2138974517583847
v 0.11985614150762558 0.012351644225418568 -0.12741634249687195
v 0.024700365960597992 0.021599411964416504 0.18539521098136902
v -0.05710868537425995 0.01262055616825819 -0.15555378794670105
v -0.07981978356838226 -0.017932016402482986 0.12163905799388885
v -0.07631917297840118 -0.02169170416891575 -0.18668104708194733
v -0.07698141783475876 -0.012177814729511738 -0.11707712709903717
v -0.10567189007997513 -0.024895643815398216 -0.11992934346199036
v 0.0013027845416218042 0.02001422643661499 -0.21731537580490112
v 0.11818168312311172 0.012919475324451923 0.13548390567302704
v 0.0969436913728714 0.008197331801056862 -0.17936867475509644
v -0.07631919533014297 0.02169172465801239 -0.18668103218078613
v 0.12314025312662125 -0.00747551117092371 0.12496714293956757
v -0.08548956364393234 0.012335996143519878 0.1875319480895996
v 0.047418978065252304 -0.012328069657087326 -0.21297305822372437
v 0.10484524816274643 -0.024953879415988922 -0.1221768781542778
v -0.12214599549770355 0.0003685716073960066 -0.13393038511276245
v 0.07397440820932388 -0.006689871661365032 -0.11648096889257431
v 0.06358492374420166 0.006830736994743347 -0.20917101204395294
v 0.07663595676422119 0.012619370594620705 0.12187951058149338
v -0.07981981337070465 0.017931897193193436 0.12163905799388885
v 0.05375558137893677 -0.0125694265589118 -0.15957234799861908
v -0.020632505416870117 0.01797209307551384 0.18006138503551483
v 0.014815350994467735 0.006728943902999163 -0.1744786947965622
v -0.09222711622714996 0.012571124359965324 -0.18088310956954956
v 0.0750838965177536 0.012652741745114326 0.19784973561763763
v 0.05655185878276825 0.02492135763168335 0.19158680737018585
v -0.027784178033471107 1.9286868990775474e-08 -0.1710169017314911
v 0.0013270886847749352 -0.019210079684853554 0.218033567070961
v 0.09134422242641449 -0.025051124393939972 0.12602242827415466
v -0.061048708856105804 -0.0185004323720932 0.15597252547740936
v -0.0838063657283783 -0.021571779623627663 -0.13123026490211487
v 0.061877623200416565 -0.02157731167972088 0.16379551589488983
v 0.056688711047172546 -0.024873994290828705 0.1916433423757553
v 0.09350117295980453 -0.012302221730351448 -0.17984718084335327
v -0.07424549013376236 -6.365232962934897e-08 0.1127205416560173
v 0.10521012544631958 -3.384475988355007e-08 0.17029787600040436
v 0.051523782312870026 0.02500005066394806 -0.18924392759799957
v -0.11865763366222382 0.012372215278446674 0.1351107507944107
v 0.05576411634683609 -4.770854999947005e-08 0.21308092772960663
v -0.02470085769891739 -0.021599607542157173 0.18539512157440186
v -0.04077746719121933 -0.012905598618090153 -0.21581873297691345
v -0.005909849889576435 -6.969609955831402e-08 0.22615933418273926
v 0.03937726095318794 -0.013180510140955448 0.21599338948726654
v 0.004345371387898922 0.024725347757339478 0.20830753445625305
v 0.07631969451904297 -0.02169165574014187 -0.18668094277381897
v 0.001302794087678194 -0.020014150068163872 -0.21731537580490112
v 0.06104770302772522 0.018500227481126785 0.15597394108772278
v 0.02021019160747528 0.007411162834614515 0.1738535612821579
v -0.012336158193647861 -0.024956099689006805 0.20246894657611847
v -0.0402524396777153 -0.02499997615814209 -0.19718019664287567
v -0.05751838535070419 0.01852891594171524 0.16014498472213745
v 0.055169060826301575 -0.024999957531690598 -0.1863306313753128
v -0.0442461296916008 -0.019357630982995033 0.20966164767742157
v -0.057108696550130844 -0.012620540335774422 -0.15555375814437866
v -0.07426051795482635 0.0067857191897928715 -0.1145416721701622
v -0.0930555984377861 0.024999938905239105 0.14772853255271912

vn -0.634388267993927 0.7579271793365479 0.1519211381673813
vn -0.13220618665218353 -0.8041932582855225 0.5794244408607483
vn 0.4945524334907532 0.8399609327316284 0.2232734113931656
vn -0.06491287052631378 -0.9953612089157104 0.07061982899904251
vn -0.0797448679804802 0.9674672484397888 -0.23999756574630737
vn -0.25836971402168274 0.9636829495429993 -0.06741538643836975
vn -0.8654438853263855 0.4382458031177521 0.24262215197086334
vn -0.23136082291603088 0.26776939630508423 -0.9352702498435974
vn 0.21195104718208313 0.7063509225845337 -0.6753441095352173
vn -0.19730216264724731 -0.9786980748176575 -0.05615405738353729
vn 0.08371227234601974 -0.32117679715156555 0.9432966113090515
vn 0.1350138783454895 0.9558396935462952 0.2609027326107025
vn 0.772484540939331 -0.012970366515219212 -0.634876549243927
vn -0.9425641894340515 -0.25772881507873535 0.21240882575511932
vn 0.8528397679328918 -0.04525895044207573 0.5201574563980103
vn 0.8488113284111023 0.48731955885887146 -0.20496231317520142
vn 0.0397961363196373 0.9910275340080261 -0.1275063306093216
vn -0.9544358849525452 0.004913480021059513 -0.29825738072395325
vn -0.38462477922439575 0.790276825428009 -0.4769432544708252
vn 0.6247749328613281 -0.4862514138221741 0.6108890175819397
vn -0.8130741119384766 -0.556871235370636 -0.16956083476543427
vn 0.460982084274292 -0.7183446884155273 -0.52098149061203
vn -0.9319131970405579 0.06030457466840744 -0.3575853705406189
vn 0.3321939706802368 -0.940153181552887 -0.07544175535440445
vn 0.4742576479911804 0.2542802095413208 -0.842829704284668
vn -0.38486891984939575 -0.7973875999450684 -0.46479690074920654
vn 0.11624500155448914 0.47025972604751587 0.8748130798339844
vn -0.5476241111755371 0.7979674935340881 0.251625120639801
vn 0.22382274270057678 -0.9076510071754456 0.3549913167953491
vn 0.9287087321281433 -0.3082064390182495 -0.2060304582118988
vn 0.014709921553730965 0.7371745705604553 -0.6755272150039673
vn -0.4037598669528961 0.20288705825805664 0.8920560479164124
vn 0.8389843702316284 0.04516739398241043 0.5422528982162476
vn -0.7159032225608826 -0.27246925234794617 0.6428113579750061
vn 0.17136143147945404 -0.9465621113777161 0.27317118644714355
vn 0.9544053673744202 0.24433118104934692 0.17139194905757904
vn -0.20868556201457977 0.8413037657737732 0.4986114203929901
vn 0.8707236051559448 0.4385814964771271 0.2223578542470932
vn 0.39994508028030396 -0.7885982990264893 -0.4670552611351013
vn -0.2594988942146301 -0.9636219143867493 -0.0638752430677414
vn -0.010010071098804474 -0.9945982098579407 0.1029999703168869
vn 0.2764061391353607 -0.2149418592453003 -0.9366741180419922
vn 0.6363109350204468 -0.4500259459018707 0.6265144944190979
vn 0.5604419112205505 -0.7982726693153381 0.22046571969985962
vn -0.39936521649360657 -0.8964506983757019 0.19190038740634918
vn 0.44102299213409424 0.02932828664779663 0.8970000147819519
vn 0.617480993270874 0.772576093673706 -0.14767906069755554
vn -0.17218543589115143 -0.7316812872886658 -0.6595050096511841
vn -0.27420881390571594 -0.5187841653823853 -0.8097171187400818
vn -0.13003936409950256 0.9020355939865112 -0.4115420877933502
vn 0.8748130798339844 -0.45789971947669983 0.1579638123512268
vn -0.6547440886497498 -0.300119012594223 0.6936857104301453
vn 0.6807153820991516 0.2939237654209137 0.6709494590759277
vn 0.016144290566444397 -0.712546169757843 0.7014068961143494
vn 0.5626697540283203 0.4545121490955353 0.6904813051223755
vn -0.539262056350708 0.7116916179656982 -0.4501785337924957
vn 0.34653767943382263 0.13626514375209808 0.9280678629875183
vn -0.40134891867637634 -0.8599505424499512 -0.3151951730251312
vn -0.6988433599472046 -0.0040894802659749985 0.7152317762374878
vn -0.8097476363182068 -0.5425580739974976 -0.2233649641275406
vn -0.5962095856666565 0.5315103530883789 0.6016418933868408
vn 0.1673329919576645 0.03094576857984066 -0.9853816032409668
vn -0.7212134003639221 0.44914090633392334 -0.5273598432540894
vn 0.27442243695259094 0.9598681330680847 -0.057557910680770874
vn -0.08175908774137497 -0.009552293457090855 0.9965819120407104
vn -0.006836146116256714 -0.7107760906219482 -0.7033295631408691
vn -0.8111209273338318 0.5602588057518005 -0.16782128810882568
vn 0.9893185496330261 0.021973326802253723 -0.14389477670192719
vn 0.6261482834815979 -0.765648365020752 -0.14728233218193054
vn 0.3326517641544342 -0.5267800092697144 -0.7821893692016602
vn -0.29557177424430847 -0.6938993334770203 0.6565752029418945
vn 0.4364757239818573 0.8782311677932739 0.19528794288635254
vn 0.021149326115846634 0.9501632452011108 0.3109530806541443
vn -0.08868678659200668 0.7607348561286926 0.6429334282875061
vn -0.862056314945221 -0.4505142271518707 0.23200170695781708
vn 0.9500716924667358 -0.2847377061843872 0.1274758130311966
vn 0.7681203484535217 0.3230079114437103 -0.5528427958488464
vn -0.8179265856742859 0.5433820486068726 -0.18890957534313202
vn 0.28345590829849243 0.7789239287376404 0.5593737363815308
vn -0.5298623442649841 -0.8107547163963318 0.24878689646720886
vn -0.6274300217628479 0.009430219419300556 -0.7785882353782654
vn -0.20462660491466522 0.3191625773906708 0.9253212213516235
vn 0.02630695514380932 -0.9922788143157959 -0.12106692790985107
vn 0.2603839337825775 -0.49537643790245056 0.8287301063537598
vn -0.12018188834190369 -0.9381694793701172 -0.3245643377304077
vn -0.5682851672172546 -0.23398540914058685 -0.7888119220733643
vn -0.26517534255981445 0.3165379762649536 -0.9107333421707153
vn -0.06921598315238953 0.9954527616500854 0.06515701860189438
vn -0.5188757181167603 0.713644802570343 0.47053438425064087
vn -0.17175817489624023 0.983245313167572 -0.060823388397693634
vn 0.20511490106582642 -0.8364512920379639 -0.5081636905670166
vn 0.3823053538799286 0.8204901218414307 -0.42493972182273865
vn 0.4823450446128845 0.6410107612609863 -0.5970031023025513
vn -0.9870296120643616 -0.003875850699841976 0.16040527820587158
vn -0.7237464785575867 -0.44944608211517334 -0.5235755443572998
vn 0.7166051268577576 -0.4428235590457916 -0.538834810256958
vn 0.4215216636657715 -0.8852809071540833 0.19635608792304993

vt 0.9407402276992798 1.0
vt 0.5636188983917236 0.6338976621627808
vt 0.34376052021980286 0.5
vt 0.7864880561828613 0.6904226541519165
vt 0.11484856903553009 0.6666666865348816
vt 0.9787774085998535 0.9166666269302368
vt 0.6231425404548645 0.4166666865348816
vt 0.9300158023834229 0.25
vt 0.7858161330223083 0.5833333134651184
vt 0.13752254843711853 0.5833333134651184
vt 0.6853927969932556 0.6666666865348816
vt 0.8727189898490906 0.0833333358168602
vt 0.6427662968635559 2.220446049250313e-16
vt 0.9461154341697693 0.5833333730697632
vt 0.7229968309402466 1.0
vt 0.8467487096786499 1.0
vt 0.5410875082015991 0.12553086876869202
vt 0.7090631723403931 0.12126164883375168
vt 0.42709213495254517 0.5
vt 0.29649925231933594 0.4166666865348816
vt 0.8067671060562134 0.8333332538604736
vt 0.21518714725971222 0.5414844155311584
vt 0.3977881371974945 0.9721537828445435
vt 0.11682261526584625 0.9166667461395264
vt 0.09047748148441315 0.75
vt 0.12193535268306732 2.220446049250313e-16
vt 0.8854057192802429 0.5
vt 0.7752971649169922 1.0
vt 0.7884149551391602 0.30584195256233215
vt 0.41398534178733826 0.28821611404418945
vt 0.4966185688972473 0.6217550039291382
vt 0.7805688381195068 0.043165162205696106
vt 0.3959214389324188 0.4166666865348816
vt 0.02086789906024933 0.9166666865348816
vt 0.7139010429382324 0.5
vt 0.9929404258728027 0.8333333134651184
vt 0.9523048400878906 0.45147472620010376
vt 0.7863869071006775 0.4166666567325592
vt 0.2920515537261963 0.21385765075683594
vt 0.5520907640457153 2.220446049250313e-16
vt 0.2191484421491623 0.12120531499385834
vt 0.9407402276992798 2.220446049250313e-16
vt 0.3775103688240051 0.8333332538604736
vt 0.7847518920898438 0.9166666269302368
vt 0.8851516842842102 0.6666666269302368
vt 0.5648537874221802 0.3333333432674408
vt 0.6236070990562439 0.12992581725120544
vt 0.544907808303833 0.8333332538604736
vt 0.1351824253797531 0.11865001171827316
vt 0.8048560619354248 0.1666666865348816
vt 0.36670613288879395 0.5833333730697632
vt 0.03718861564993858 0.1666666716337204
vt 0.40502995252609253 0.6931204199790955
vt 0.3061833381652832 1.0
vt 0.7035008668899536 0.5833333134651184
vt 0.6311284303665161 0.8696247339248657
vt 0.5074326992034912 0.5
vt 0.08357884734869003 0.46090462803840637
vt 0.2943480610847473 0.0833333358168602
vt 0.9861474633216858 0.64461350440979
vt 0.21144211292266846 0.6976647973060608
vt 0.7229968309402466 2.220446049250313e-16
vt 1.0 0.04206695780158043
vt 0.213512122631073 0.30957794189453125
vt 0.8467487096786499 2.220446049250313e-16
vt 1.0 0.5
vt 0.36887326836586 0.13037146627902985
vt 0.03124580904841423 0.5
vt 0.5191507339477539 0.75
vt 0.008563073351979256 0.75
vt 0.8645891547203064 0.5833332538604736
vt 0.08318833261728287 0.25
vt 0.4534672200679779 0.8800951242446899
vt 0.011209877207875252 0.35538649559020996
vt 0.7931687235832214 0.5
vt 0.30490466952323914 0.6666666865348816
vt 0.21390041708946228 2.220446049250313e-16
vt 0.6310356855392456 0.5297645330429077
vt 0.4954703450202942 0.31302791833877563
vt 0.6745926141738892 0.25
vt 0.06329195201396942 0.5833333134651184
vt 0.1148485392332077 0.3333333432674408
vt 0.673430323600769 0.75
vt 0.031246710568666458 1.0
vt 0.14162634313106537 0.44247257709503174
vt 0.6871559619903564 0.3333333432674408
vt 0.2141839563846588 0.4166666269302368
vt 0.7041214108467102 0.4166666865348816
vt 0.8645891547203064 0.4166666269302368
vt 0.8851516246795654 0.3333333432674408
vt 0.6427662968635559 1.0
vt 0.28121012449264526 0.5513508319854736
vt 0.03129282593727112 0.04206695407629013
vt 0.011209866963326931 0.64461350440979
vt 8.881784197001252e-16 0.25
vt 0.05565527081489563 0.8333333134651184
vt 0.7092556953430176 0.8806769847869873
vt 0.21516114473342896 0.958168625831604
vt 0.30661827325820923 0.3333333134651184
vt 0.3061833381652832 2.220446049250313e-16
vt 0.9292305111885071 0.14348196983337402
vt 0.9353212118148804 0.75
vt 0.4599185585975647 0.05381489545106888
vt 0.12193535268306732 1.0
vt 0.9892926812171936 0.1666666716337204
vt 0.4817768633365631 1.0
vt 0.19296324253082275 0.8333333730697632
vt 0.48777323961257935 0.4166666865348816
vt 0.986147403717041 0.35538649559020996
vt 0.547343909740448 0.9575803875923157
vt 0.5672136545181274 0.4575825333595276
vt 0.29636502265930176 0.9166667461395264
vt 0.4479188323020935 0.5833333134651184
vt 1.0 1.0
vt 0.9190168380737305 0.8333333134651184
vt 0.4092356264591217 2.220446049250313e-16
vt 0.29138511419296265 0.785028338432312
vt 0.45509377121925354 0.1666666716337204
vt 0.8727190494537354 0.9166667461395264

f 83/57/65 69/31/54 84/113/84
f 5/108/27 83/57/65 80/19/46
f 83/57/65 84/113/84 80/19/46
f 5/108/27 80/19/46 66/33/55
f 94/2/71 90/69/41 69/31/54
f 63/17/9 43/118/50 89/103/8
f 63/17/9 85/79/73 43/118/50
f 43/118/50 67/30/12 88/67/56
f 84/113/84 74/53/35 39/51/20
f 74/53/35 9/73/48 73/43/58
f 90/69/41 9/73/48 74/53/35
f 37/116/86 89/103/8 88/67/56
f 50/20/38 77/3/33 53/92/76
f 73/43/58 37/23/86 36/112/60
f 31/54/23 58/98/14 36/112/60
f 15/99/3 34/64/64 8/39/90
f 70/117/10 56/61/24 7/76/44
f 6/41/1 34/64/64 3/49/89
f 29/107/45 58/98/14 62/24/52
f 56/61/24 29/107/45 93/25/83
f 62/24/52 58/98/14 10/104/59
f 3/49/89 34/64/64 78/72/17
f 34/64/64 16/82/92 78/72/17
f 21/22/30 75/10/96 51/85/77
f 86/5/39 56/61/24 93/25/83
f 29/107/45 62/24/52 22/96/2
f 51/85/77 75/10/96 59/58/25
f 62/24/52 10/104/59 64/84/82
f 59/58/25 55/81/70 28/68/62
f 55/81/70 86/5/39 87/94/66
f 28/68/62 55/81/70 87/94/66
f 87/94/66 93/25/83 91/70/85
f 93/25/83 22/96/2 91/70/85
f 16/82/92 59/58/25 49/74/31
f 59/58/25 28/68/62 49/74/31
f 68/42/57 64/63/82 38/101/79
f 64/63/82 1/105/74 38/101/79
f 87/60/66 91/102/85 46/45/26
f 91/102/85 22/36/2 11/115/29
f 1/105/74 17/8/5 38/101/79
f 17/8/5 49/109/31 52/90/19
f 52/90/19 40/37/87 65/89/63
f 40/37/87 24/27/81 65/89/63
f 24/27/81 82/14/49 2/71/95
f 82/14/49 46/45/26 2/71/95
f 11/115/29 27/6/11 95/119/43
f 27/6/11 68/1/57 95/119/43
f 68/42/57 38/101/79 44/12/53
f 38/101/79 17/8/5 26/50/72
f 91/102/85 11/115/29 72/21/97
f 65/89/63 24/27/81 57/75/18
f 24/27/81 2/71/95 57/75/18
f 95/119/43 20/16/15 47/44/51
f 20/65/15 44/12/53 96/32/36
f 97/80/88 13/29/6 12/86/28
f 30/11/80 48/4/40 4/83/4
f 45/97/69 76/15/68 14/91/13
f 76/62/68 61/18/47 14/13/13
f 79/88/7 33/35/94 25/78/34
f 33/35/94 19/55/75 25/78/34
f 19/55/75 30/11/80 25/78/34
f 45/97/69 14/91/13 71/56/22
f 14/13/13 61/18/47 92/47/93
f 12/86/28 79/88/7 54/7/61
f 79/88/7 25/78/34 54/7/61
f 30/11/80 4/83/4 94/2/71
f 94/2/71 4/83/4 90/69/41
f 81/48/91 71/56/22 32/110/42
f 92/47/93 97/80/88 85/79/73
f 97/80/88 18/46/37 85/79/73
f 97/80/88 12/86/28 18/46/37
f 41/111/32 25/78/34 94/2/71
f 41/111/32 94/2/71 83/57/65
f 41/111/32 83/57/65 5/108/27
f 83/57/65 94/2/71 69/31/54
f 58/98/14 29/107/45 70/117/10 36/112/60
f 84/113/84 69/31/54 74/53/35
f 69/31/54 90/69/41 74/53/35
f 90/69/41 81/48/91 9/73/48
f 9/73/48 81/48/91 32/110/42
f 9/73/48 32/110/42 89/106/8
f 89/103/8 32/40/42 63/17/9
f 43/118/50 85/79/73 67/30/12
f 66/33/55 80/19/46 77/3/33
f 77/3/33 80/19/46 39/51/20
f 80/19/46 84/113/84 39/51/20
f 9/73/48 89/106/8 37/23/86
f 88/67/56 89/103/8 43/118/50
f 88/67/56 67/30/12 8/39/90
f 8/39/90 67/30/12 15/99/3
f 15/99/3 66/33/55 50/20/38
f 15/99/3 67/30/12 66/33/55
f 50/20/38 66/33/55 77/3/33
f 39/51/20 74/53/35 7/76/44
f 7/76/44 74/53/35 70/117/10
f 70/117/10 74/53/35 73/43/58
f 73/43/58 9/73/48 37/23/86
f 31/100/23 37/116/86 88/67/56
f 36/112/60 37/23/86 31/54/23
f 31/100/23 88/67/56 60/59/78
f 60/59/78 88/67/56 8/39/90
f 77/3/33 39/51/20 53/92/76
f 53/92/76 39/51/20 7/76/44
f 70/117/10 73/43/58 36/112/60
f 58/77/14 31/100/23 60/59/78 6/41/1
f 34/64/64 15/99/3 50/20/38 42/87/16
f 60/59/78 8/39/90 6/41/1
f 8/39/90 34/64/64 6/41/1
f 42/87/16 50/20/38 53/92/76 21/22/30
f 21/22/30 53/92/76 7/76/44 56/61/24
f 3/49/89 10/26/59 58/77/14 6/41/1
f 70/117/10 29/107/45 56/61/24
f 42/87/16 51/85/77 16/82/92 34/64/64
f 86/5/39 75/10/96 21/22/30 56/61/24
f 42/87/16 21/22/30 51/85/77
f 87/60/66 82/14/49 40/37/87 28/66/62
f 93/25/83 29/107/45 22/96/2
f 59/58/25 75/10/96 55/81/70
f 55/81/70 75/10/96 86/5/39
f 10/26/59 3/49/89 64/93/82
f 64/93/82 3/49/89 1/52/74
f 5/108/27 66/33/55 67/30/12 85/79/73
f 1/52/74 3/49/89 78/72/17
f 16/82/92 51/85/77 59/58/25
f 87/94/66 86/5/39 93/25/83
f 22/96/2 62/24/52 27/34/11
f 27/34/11 62/24/52 64/84/82
f 78/72/17 16/82/92 49/74/31
f 49/109/31 28/66/62 40/37/87
f 23/38/67 13/29/6 52/90/19 65/89/63
f 27/6/11 64/114/82 68/1/57
f 1/52/74 78/72/17 17/95/5
f 17/95/5 78/72/17 49/74/31
f 52/90/19 49/109/31 40/37/87
f 82/14/49 87/60/66 46/45/26
f 11/115/29 22/36/2 27/6/11
f 24/27/81 40/37/87 82/14/49
f 72/21/97 11/115/29 95/119/43
f 95/119/43 68/1/57 20/16/15
f 20/65/15 68/42/57 44/12/53
f 44/12/53 38/101/79 26/50/72
f 26/50/72 17/8/5 13/29/6
f 96/32/36 44/12/53 26/50/72
f 13/29/6 17/8/5 52/90/19
f 46/45/26 48/4/40 35/9/21 2/71/95
f 23/38/67 65/89/63 57/75/18
f 57/75/18 2/71/95 35/9/21
f 96/28/36 76/15/68 45/97/69 47/44/51
f 46/45/26 91/102/85 48/4/40
f 48/4/40 91/102/85 72/21/97
f 72/21/97 95/119/43 47/44/51
f 47/44/51 20/16/15 96/28/36
f 61/18/47 76/62/68 96/32/36
f 26/50/72 13/29/6 97/80/88 61/18/47
f 61/18/47 96/32/36 26/50/72
f 23/38/67 79/88/7 12/86/28 13/29/6
f 57/75/18 33/35/94 79/88/7 23/38/67
f 35/9/21 19/55/75 33/35/94 57/75/18
f 48/4/40 30/11/80 19/55/75 35/9/21
f 72/21/97 45/97/69 4/83/4 48/4/40
f 81/48/91 90/69/41 4/83/4 71/56/22
f 45/97/69 72/21/97 47/44/51
f 4/83/4 45/97/69 71/56/22
f 92/47/93 61/18/47 97/80/88
f 25/78/34 30/11/80 94/2/71
f 63/17/9 32/40/42 14/13/13 92/47/93
f 32/110/42 71/56/22 14/91/13
f 18/46/37 54/7/61 41/111/32
f 18/46/37 12/86/28 54/7/61
f 54/7/61 25/78/34 41/111/32
f 63/17/9 92/47/93 85/79/73
f 18/46/37 41/111/32 5/108/27
f 85/79/73 18/46/37 5/108/27
