v 0.037490349262952805 -0.018829578533768654 -0.17530804872512817
v 0.09239602833986282 -0.007383803371340036 0.18508528172969818
v 0.11949728429317474 0.01277228631079197 0.12780128419399261
v -0.055168502032756805 -0.025000063702464104 -0.18631775677204132
v -0.05655132234096527 -0.024921314790844917 0.19159966707229614
v -0.12283444404602051 0.007252016570419073 -0.12728486955165863
v 0.05710924416780472 0.012620502151548862 -0.15554089844226837
v -0.0013022348284721375 0.020014116540551186 -0.21730250120162964
v -0.092227041721344 0.012570996768772602 -0.1808701753616333
v 0.04025299474596977 0.024999933317303658 -0.1971673220396042
v 0.057518914341926575 0.018529053777456284 0.16015785932540894
v -0.010268346406519413 0.006799830123782158 0.17487092316150665
v -0.09112990647554398 -0.024973910301923752 0.12641943991184235
v -0.056551311165094376 0.024921488016843796 0.19159968197345734
v 0.07631975412368774 -0.02169177494943142 -0.18666815757751465
v 0.02431824430823326 1.551601087612653e-07 0.17164713144302368
v -0.10853936523199081 0.021578630432486534 0.1391669660806656
v 0.12277288734912872 -0.006957145407795906 -0.12840738892555237
v 0.08102814853191376 0.007037467788904905 -0.1963082104921341
v 0.025227554142475128 0.02503030188381672 0.19839870929718018
v -0.07663540542125702 -0.012619334273040295 0.12189237773418427
v -0.024508900940418243 -0.01830180361866951 0.17921879887580872
v -0.04741843789815903 0.012328045442700386 -0.2129601687192917
v 0.10484534502029419 -0.02495395578444004 -0.12216414511203766
v 0.12214641273021698 0.00036866762093268335 0.13394050300121307
v 0.09694366902112961 -0.008197360672056675 -0.17935603857040405
v 0.059569135308265686 6.893276349728694e-08 0.14762066304683685
v -0.009412589482963085 -0.012905554845929146 0.2224356234073639
v 0.07982034981250763 0.017932014539837837 0.12165196985006332
v -0.08166968077421188 0.021410712972283363 0.13980534672737122
v 0.04533949866890907 -0.02174488827586174 0.20490023493766785
v 0.07631976157426834 0.02169165387749672 -0.18666814267635345
v -0.08439308404922485 -0.02163943648338318 -0.1303052008152008
v -0.0551685132086277 0.024999942630529404 -0.18631775677204132
v -0.057108402252197266 -0.012620547786355019 -0.1555410474538803
v 0.02778472751379013 -5.454170093344146e-08 -0.1710040271282196
v -0.10775069892406464 -0.02175195887684822 0.1401631087064743
v -0.029067963361740112 -0.021156752482056618 -0.18562284111976624
v 0.04025299474596977 -0.025000063702464104 -0.1971673220396042
v 0.07426106184720993 -0.006785770412534475 -0.1145288273692131
v 0.07434975355863571 0.00012828268518205732 0.11230495572090149
v -0.08382707834243774 0.02164553478360176 -0.13138402998447418
v -0.07435832917690277 -0.006867196410894394 -0.11427570879459381
v -0.04444969817996025 0.006664373446255922 0.161847785115242
v -0.02459901198744774 -7.570523763433812e-08 -0.2236509472131729
v 0.03708994388580322 0.00789108406752348 -0.2201458215713501
v -0.07208842784166336 -0.00029467177228070796 0.12657731771469116
v 0.005255584605038166 0.012235965579748154 -0.18016883730888367
v -0.0620342418551445 0.006199355702847242 -0.14339014887809753
v 0.0703817754983902 0.02160717360675335 -0.1539953500032425
v -0.12313970178365707 0.007475550286471844 0.12498001009225845
v 0.09259449690580368 -0.02504044957458973 0.14833606779575348
v 0.020633051171898842 -0.017972072586417198 0.18007425963878632
v 0.08442030847072601 -0.02170671336352825 -0.13044261932373047
v 0.07986854761838913 -0.018042737618088722 0.1217292845249176
v 0.1056724488735199 0.024895595386624336 -0.11991647630929947
v -0.04325634986162186 0.02157716080546379 -0.17762739956378937
v -0.10520955175161362 8.314844279766476e-08 0.17031076550483704
v -0.014814826659858227 -0.006728971842676401 -0.17446580529212952
v -0.03937673196196556 0.013180550187826157 0.21600624918937683
v -0.0043448214419186115 -0.02472531609237194 0.20832040905952454
v -0.09791111946105957 -0.007802619133144617 -0.1785510927438736
v 0.10689439624547958 -0.02187914215028286 0.14444462954998016
v -0.10567179322242737 -0.024895668029785156 -0.11991634219884872
v -0.10484468936920166 0.02495388686656952 -0.12216400355100632
v -0.061047159135341644 -0.01850019209086895 0.15598681569099426
v -0.05576355382800102 9.52884278149213e-08 0.2130938023328781
v -0.07624322921037674 0.01262409333139658 0.12282827496528625
v -0.047418445348739624 -0.012328188866376877 -0.2129601687192917
v 0.005910401698201895 9.963187608263979e-08 0.22617220878601074
v -0.001302235876210034 -0.020014261826872826 -0.21730250120162964
v 0.05751891806721687 -0.018528902903199196 0.16015785932540894
v 0.018999505788087845 0.02145485207438469 -0.18735645711421967
v 0.09259450435638428 0.02495957352221012 0.14833605289459229
v 0.04424668103456497 0.019357647746801376 0.20967452228069305
v -0.039317384362220764 0.007179702632129192 -0.1645520031452179
v -0.119855597615242 -0.012351635843515396 -0.12740345299243927
v 0.05216384306550026 -0.007367085665464401 0.2139103263616562
v -0.07631911337375641 0.021691646426916122 -0.18666808307170868
v 0.10601431131362915 0.022036438807845116 0.14545917510986328
v -0.07722412049770355 0.012303483672440052 -0.11652854830026627
v 0.09136652946472168 0.012302249670028687 0.18229062855243683
v 0.04077800363302231 -0.012905695475637913 -0.21580585837364197
v -0.11818114668130875 -0.012919425964355469 0.13549676537513733
v 0.024604439735412598 0.01815619505941868 0.17863549292087555
v 0.11893753707408905 0.012030738405883312 -0.13445833325386047
v -0.09136570245027542 0.012302221730351448 0.1822909712791443
v 0.11985623091459274 -0.012351557612419128 0.12742610275745392
v -0.07508336007595062 -0.012652693316340446 0.19786259531974792
v -0.07631910592317581 -0.02169176936149597 -0.18666808307170868
v -0.0013265262823551893 0.01921011321246624 0.21804644167423248
v -0.09740395843982697 0.025022512301802635 0.12904809415340424
v -0.024699823930859566 0.021599549800157547 0.1854080855846405
v 0.06221344321966171 -6.575127997621166e-08 -0.14325669407844543
v 0.0805194079875946 0.018024707213044167 -0.11715472489595413
v 0.05710923671722412 -0.012620603665709496 -0.15554089844226837
v -0.07485900074243546 -6.780140893170028e-08 -0.2009434551000595

vn -0.11624500155448914 -0.47025972604751587 0.8748130798339844
vn 0.07647938281297684 0.19739371538162231 -0.9773247241973877
vn -0.5821405649185181 -0.01654103212058544 -0.8128910064697266
vn -0.6633808612823486 0.7292702794075012 0.1674550622701645
vn 0.9309061169624329 -0.08676411956548691 -0.35471662878990173
vn 0.10904263705015182 -0.9469588398933411 -0.3022553324699402
vn 0.40079957246780396 0.8171025514602661 -0.4143497943878174
vn -0.026673177257180214 -0.9922482967376709 -0.12131107598543167
vn 0.19644764065742493 -0.7499008178710938 -0.6316720843315125
vn -0.3487960398197174 -0.02627643570303917 -0.9367961883544922
vn 0.6007263660430908 0.13919492065906525 -0.7871944308280945
vn -0.18854334950447083 0.9384136199951172 0.28946805000305176
vn 0.006836146116256714 -0.7107760906219482 -0.7033295631408691
vn 0.5940122604370117 -0.7616809606552124 0.25873592495918274
vn -0.8707236051559448 -0.4385814964771271 0.2223578542470932
vn 0.20914334058761597 0.8599810600280762 0.46546831727027893
vn 0.7817010879516602 -0.2854090929031372 -0.5544908046722412
vn 0.43263038992881775 0.8837244510650635 0.17835016548633575
vn -0.7103488445281982 0.46440017223358154 -0.5288857817649841
vn -0.7817926406860352 0.0022583696991205215 -0.6235236525535583
vn -0.6363719701766968 0.7562181353569031 -0.15213477611541748
vn -0.6796777248382568 -0.29697561264038086 0.670674741268158
vn 0.6226081252098083 0.1978209763765335 -0.7570726871490479
vn 0.6206854581832886 0.5182958245277405 0.5882747769355774
vn -0.3971068561077118 0.7926877737045288 -0.46250802278518677
vn -0.4688253402709961 -0.6576128602027893 -0.5896481275558472
vn 0.08175908774137497 0.009552293457090855 0.9965819120407104
vn -0.9288003444671631 0.3086336851119995 -0.20499283075332642
vn 0.2854090929031372 -0.9552598595619202 -0.07745597511529922
vn -0.01919614151120186 0.461134672164917 0.887112021446228
vn 0.19531846046447754 -0.9786980748176575 -0.06283760815858841
vn -0.0711386427283287 0.8843653798103333 0.461317777633667
vn -0.012024292722344398 0.729514479637146 0.6838282346725464
vn -0.23377178609371185 -0.7108981609344482 -0.6632587909698486
vn -0.3150120675563812 -0.9464400410652161 -0.07052827626466751
vn 0.8367259502410889 0.47901850938796997 -0.26529741287231445
vn -0.5758537650108337 0.5067293047904968 0.6415295600891113
vn 0.8535721898078918 0.5055086016654968 0.125736266374588
vn 0.6856593489646912 -0.3075350224971771 0.6597186326980591
vn -0.4945524334907532 -0.8399609327316284 0.2232734113931656
vn -0.11850336939096451 -0.9606921672821045 0.25092318654060364
vn -0.6186407208442688 -0.7715994715690613 -0.14786218106746674
vn 0.3082064390182495 0.6733909249305725 0.6719565391540527
vn 0.8658711314201355 -0.4839015007019043 0.1267128586769104
vn 0.9553514122962952 0.01184118166565895 0.2952055335044861
vn 0.5836359858512878 0.7698904275894165 0.25803399085998535
vn -0.9897457957267761 -0.0029908139258623123 -0.1427655816078186
vn 0.8715170621871948 0.46272164583206177 -0.16223639249801636
vn 0.5591295957565308 -0.7022614479064941 -0.44062623381614685
vn -0.05792412906885147 0.9981994032859802 0.0138248847797513
vn 0.41837823390960693 -0.21185949444770813 0.8831751346588135
vn 0.05853450298309326 0.9958189725875854 0.07010101526975632
vn 0.9355449080467224 -0.3032318949699402 0.18106631934642792
vn -0.6244697570800781 0.4866481423377991 0.6108585000038147
vn -0.33899959921836853 0.491439551115036 -0.8022095561027527
vn -0.029725028201937675 0.9937437176704407 -0.10745567083358765
vn 0.4467604458332062 0.3488570749759674 0.8237861394882202
vn -0.3406170904636383 -0.491470068693161 -0.8015075922012329
vn -0.34653767943382263 -0.13626514375209808 0.9280678629875183
vn 0.11432233452796936 0.9378032684326172 -0.32776880264282227
vn -0.2927335500717163 -0.7773369550704956 0.556779682636261
vn -0.9605700969696045 -0.2132023125886917 0.17844171822071075
vn 0.6908780336380005 -0.25647756457328796 0.6758934259414673
vn -0.18488113582134247 0.7534714937210083 -0.6309091448783875
vn -0.7758110165596008 -0.3155613839626312 -0.5463118553161621
vn -0.8389843702316284 -0.04516739398241043 0.5422528982162476
vn 0.1515549123287201 -0.7615894079208374 0.6300546526908875
vn -0.008972441777586937 0.7369304299354553 -0.6758629083633423
vn 0.018402662128210068 0.9984740614891052 0.05154576152563095
vn 0.4212774932384491 0.8798485994338989 -0.21988585591316223
vn 0.2628864347934723 0.31424909830093384 -0.9121982455253601
vn 0.11532944440841675 0.8594622611999512 -0.4979705214500427
vn 0.8013244867324829 0.25821709632873535 0.539597749710083
vn -0.16064943373203278 -0.0007019257172942162 -0.9869990944862366
vn 0.39945676922798157 -0.8968779444694519 0.1897030472755432
vn -0.02868739888072014 -0.9553208947181702 0.2941068708896637
vn -0.9500716924667358 0.2847377061843872 0.1274758130311966
vn 0.40244758129119873 -0.7851802110671997 -0.47062593698501587
vn 0.24259163439273834 0.9696340560913086 -0.030335398390889168
vn 0.0711996853351593 -0.9950559735298157 0.06900235265493393
vn -0.8486586809158325 -0.48863184452056885 -0.20242927968502045
vn -0.4451735019683838 0.8275094032287598 0.3420819640159607
vn -0.8423413634300232 0.07361064851284027 0.5338602662086487
vn -0.4377574920654297 -0.8769188523292542 0.1982787549495697
vn 0.21933652460575104 -0.8388012051582336 0.4982756972312927
vn 0.8813440203666687 0.4531998634338379 0.13348795473575592
vn -0.3232215344905853 0.9432966113090515 -0.07538072019815445
vn 0.82595294713974 -0.5327921509742737 -0.18408764898777008
vn -0.5798516869544983 0.7812128067016602 0.2311471849679947
vn -0.4590288996696472 0.7088534235954285 -0.5354777574539185
vn -0.5626697540283203 -0.4545121490955353 0.6904813051223755
vn 0.28211310505867004 -0.5156407356262207 -0.808984637260437
vn 0.15720084309577942 -0.3115634620189667 0.9371013641357422
vn -0.2604754865169525 0.49559006094932556 0.8285470008850098
vn -0.40220344066619873 -0.7873165011405945 -0.4672383666038513
vn 0.9257484674453735 -0.32264167070388794 -0.19702750444412231
vn -0.44102299213409424 -0.02932828664779663 0.8970000147819519

vt 0.8540738821029663 0.8333332538604736
vt 0.9523048400878906 0.5485252141952515
vt 0.940740168094635 2.220446049250313e-16
vt 0.5648537874221802 0.3333333730697632
vt 0.7947949171066284 0.5833333134651184
vt 0.195143461227417 0.1666666716337204
vt 0.6236070394515991 0.12992581725120544
vt 0.9787774085998535 0.9166666269302368
vt 0.1272806078195572 0.0833333283662796
vt 0.8727186918258667 0.9166667461395264
vt 0.8050730228424072 0.1666666865348816
vt 0.9292304515838623 0.14348194003105164
vt 0.8727189302444458 0.0833333283662796
vt 0.7864879965782166 0.690422534942627
vt 0.30661821365356445 0.3333333432674408
vt 0.6236070394515991 0.8700742721557617
vt 0.4014868438243866 0.9561333656311035
vt 0.6427663564682007 1.0
vt 0.06329198181629181 0.4166666269302368
vt 0.986147403717041 0.64461350440979
vt 0.36670613288879395 0.5833333134651184
vt 0.5636188983917236 0.6338974833488464
vt 0.8467408418655396 2.220446049250313e-16
vt 0.2943480610847473 0.0833333432674408
vt 0.42709213495254517 0.5
vt 0.6309441328048706 0.45106256008148193
vt 0.706961452960968 0.5
vt 0.9929404258728027 0.1666666716337204
vt 0.22392889857292175 1.0
vt 0.7856584191322327 0.457106351852417
vt 0.06329198181629181 0.5833333134651184
vt 0.09047748148441315 0.25
vt 0.011209874413907528 0.64461350440979
vt 0.28121012449264526 0.5513507127761841
vt 0.714192807674408 0.4166666269302368
vt 0.7092556953430176 0.8806768655776978
vt 0.031292837113142014 0.042066920548677444
vt 0.03124581277370453 0.5
vt 0.13541090488433838 0.5833333134651184
vt 0.7087027430534363 0.12322712689638138
vt 0.296364963054657 0.9166666865348816
vt 0.03124670311808586 1.0
vt 0.5465322732925415 0.8800945281982422
vt 0.9628104567527771 0.8333333134651184
vt 0.2150646448135376 0.5436171293258667
vt 0.32207661867141724 0.8333333134651184
vt 0.4514719545841217 0.12454235553741455
vt 0.6853927969932556 0.6666667461395264
vt 0.9353210926055908 0.25
vt 0.8877884745597839 0.5362560153007507
vt 0.7809596061706543 0.8770495653152466
vt 0.4092355966567993 2.220446049250313e-16
vt 0.19296330213546753 0.8333332538604736
vt 0.41398531198501587 0.2882160544395447
vt 0.4966185390949249 0.6217550039291382
vt 0.10150738060474396 0.5
vt 0.39592140913009644 0.4166666269302368
vt 0.14291344583034515 0.446666955947876
vt 0.3061833381652832 1.0
vt 0.47960561513900757 0.9562788009643555
vt 0.5074326992034912 0.5
vt 0.9353211522102356 0.75
vt 0.21351216733455658 0.30957794189453125
vt 0.6427663564682007 2.220446049250313e-16
vt 0.2920515239238739 0.21385763585567474
vt 0.21144211292266846 0.6976647973060608
vt 0.5520910024642944 2.220446049250313e-16
vt 1.0 0.5
vt 0.08860617876052856 0.9539627432823181
vt 0.02086789719760418 0.9166666865348816
vt 0.008563063107430935 0.75
vt 0.34376055002212524 0.5
vt 0.011209866963326931 0.35538649559020996
vt 0.11484852433204651 0.3333333432674408
vt 0.713615894317627 0.5833333134651184
vt 0.2141839861869812 0.4166666865348816
vt 1.0 0.04206692427396774
vt 0.008563128300011158 0.25
vt 0.08098281919956207 0.8333333134651184
vt 0.7239298820495605 1.0
vt 0.48777323961257935 0.4166666269302368
vt 0.09047749638557434 0.75
vt 0.986147403717041 0.3553864359855652
vt 0.7802014350891113 0.04251394793391228
vt 0.940740168094635 1.0
vt 0.4954703450202942 0.31302791833877563
vt 0.1507640928030014 0.9626865386962891
vt 0.3688732981681824 0.13037148118019104
vt 0.673430323600769 0.75
vt 0.7885580658912659 0.30233466625213623
vt 0.29649922251701355 0.4166666567325592
vt 0.5398678183555603 0.75
vt 0.055655501782894135 0.1666666865348816
vt 0.2960333824157715 0.75
vt 0.8851516246795654 0.3333333432674408
vt 0.9461154937744141 0.4166666567325592
vt 0.41398531198501587 0.7117840051651001
vt 0.8467408418655396 1.0
vt 0.6734299659729004 0.25
vt 0.48177674412727356 2.220446049250313e-16
vt 0.010707002133131027 0.8333333134651184
vt 0.11484852433204651 0.6666666269302368
vt 0.21641191840171814 0.9166666865348816
vt 0.5410875082015991 0.12553085386753082
vt 0.44791877269744873 0.5833333134651184
vt 0.3061833381652832 2.220446049250313e-16
vt 0.8851515054702759 0.6666666865348816
vt 0.15325836837291718 2.220446049250313e-16
vt 0.30490466952323914 0.6666667461395264
vt 0.21905943751335144 0.04315319284796715
vt 0.5520910024642944 1.0
vt 0.5672136545181274 0.4575825333595276
vt 0.7760711312294006 1.0
vt 0.6871558427810669 0.3333333730697632
vt 0.4550938010215759 0.8333333134651184
vt 1.0 1.0
vt 0.6332943439483643 0.5833333134651184
vt 0.8583738803863525 0.44247201085090637
vt 0.7239298820495605 2.220446049250313e-16
vt 0.09189790487289429 2.220446049250313e-16

f 70/61/27 91/55/33 60/105/94
f 28/81/1 70/61/27 67/25/97
f 70/61/27 60/105/94 67/25/97
f 28/81/1 67/25/97 89/57/91
f 91/55/33 20/92/69 14/97/12
f 75/22/43 20/92/69 91/55/33
f 20/92/69 85/43/64 93/115/72
f 85/43/64 12/60/2 93/115/72
f 53/104/34 61/86/76 22/47/9
f 22/47/9 5/54/41 66/88/49
f 60/105/94 14/97/12 87/21/54
f 14/97/12 93/115/72 30/46/70
f 93/115/72 12/60/2 44/17/11
f 44/52/11 22/47/9 66/88/49
f 93/115/72 44/17/11 30/46/70
f 84/91/15 58/72/66 51/34/77
f 30/46/70 44/17/11 68/41/48
f 21/24/88 43/110/53 47/106/5
f 37/15/40 64/63/35 13/65/31
f 92/94/50 65/66/87 17/109/89
f 81/103/86 43/29/53 49/87/73
f 42/53/18 81/103/86 49/87/73
f 65/66/87 42/53/18 34/82/56
f 43/110/53 33/6/75 35/9/63
f 33/6/75 64/63/35 4/32/8
f 64/63/35 90/74/95 4/32/8
f 62/58/65 6/45/28 9/39/19
f 79/102/25 65/66/87 34/82/56
f 42/53/18 49/87/73 57/79/16
f 49/108/73 35/9/63 76/120/57
f 35/9/63 33/6/75 38/93/67
f 62/58/65 9/39/19 97/56/3
f 69/19/58 97/56/3 45/38/74
f 97/56/3 23/31/55 45/38/74
f 23/31/55 79/102/25 8/33/68
f 45/38/74 23/31/55 8/33/68
f 8/33/68 34/82/56 10/71/60
f 57/79/16 48/70/30 73/101/32
f 38/93/67 4/32/8 39/78/6
f 4/32/8 71/73/13 39/78/6
f 90/74/95 69/19/58 71/73/13
f 69/19/58 45/38/74 71/73/13
f 36/3/59 59/77/93 1/12/61
f 59/77/93 38/28/67 1/12/61
f 8/20/68 10/62/60 32/107/7
f 38/28/67 39/49/6 1/12/61
f 39/49/6 71/83/13 15/95/78
f 15/95/78 83/96/92 26/118/17
f 83/96/92 19/50/23 26/118/17
f 46/2/71 32/107/7 19/50/23
f 10/62/60 73/44/32 50/1/82
f 73/44/32 7/10/37 50/1/82
f 73/44/32 48/8/30 7/10/37
f 48/8/30 36/85/59 7/10/37
f 36/3/59 1/12/61 96/13/22
f 1/12/61 39/49/6 54/11/84
f 86/5/36 32/107/7 56/14/79
f 19/50/23 32/107/7 86/5/36
f 7/10/37 94/98/83 95/51/4
f 94/23/83 96/13/22 40/84/62
f 41/119/47 40/84/62 55/40/42
f 52/99/80 24/90/29 63/114/14
f 88/35/44 18/30/96 25/27/45
f 80/48/46 56/14/79 74/89/52
f 29/36/21 41/80/47 27/18/20
f 41/119/47 55/40/42 27/64/20
f 63/114/14 88/35/44 2/26/39
f 88/35/44 25/27/45 2/26/39
f 25/27/45 3/75/38 82/117/24
f 3/75/38 80/48/46 82/117/24
f 29/36/21 27/18/20 11/16/90
f 27/64/20 55/40/42 72/7/26
f 80/48/46 74/89/52 75/22/43
f 75/22/43 74/89/52 20/92/69
f 74/89/52 11/16/90 20/92/69
f 72/7/26 52/99/80 61/86/76
f 52/99/80 31/4/85 61/86/76
f 52/99/80 63/114/14 31/4/85
f 78/112/51 75/22/43 70/61/27
f 78/112/51 70/61/27 28/81/1
f 70/61/27 75/22/43 91/55/33
f 81/103/86 42/53/18 30/46/70 68/41/48
f 60/105/94 91/55/33 14/97/12
f 14/97/12 20/92/69 93/115/72
f 12/100/2 53/104/34 22/47/9
f 85/43/64 16/111/10 12/60/2
f 12/100/2 16/67/10 53/104/34
f 22/47/9 61/86/76 5/54/41
f 89/57/91 67/25/97 58/72/66
f 58/72/66 67/25/97 87/21/54
f 67/25/97 60/105/94 87/21/54
f 44/52/11 12/100/2 22/47/9
f 66/88/49 5/54/41 13/65/31
f 13/65/31 5/54/41 37/15/40
f 37/15/40 89/57/91 84/91/15
f 37/15/40 5/54/41 89/57/91
f 84/91/15 89/57/91 58/72/66
f 87/21/54 14/97/12 17/109/89
f 17/109/89 14/97/12 92/94/50
f 92/94/50 14/97/12 30/46/70
f 28/81/1 89/57/91 5/54/41 61/86/76
f 47/106/5 44/52/11 66/88/49
f 68/41/48 44/17/11 47/59/5
f 47/106/5 66/88/49 21/24/88
f 21/24/88 66/88/49 13/65/31
f 58/72/66 87/21/54 51/34/77
f 51/34/77 87/21/54 17/109/89
f 81/103/86 68/41/48 47/59/5 43/29/53
f 33/6/75 43/110/53 21/24/88 13/65/31
f 64/63/35 37/15/40 84/91/15 77/76/81
f 13/65/31 64/63/35 33/6/75
f 77/76/81 84/91/15 51/34/77 6/45/28
f 6/45/28 51/34/77 17/109/89 65/66/87
f 65/66/87 92/94/50 30/46/70 42/53/18
f 77/76/81 62/58/65 90/74/95 64/63/35
f 49/108/73 43/110/53 35/9/63
f 79/102/25 9/39/19 6/45/28 65/66/87
f 77/76/81 6/45/28 62/58/65
f 73/101/32 10/71/60 34/82/56 57/79/16
f 34/82/56 42/53/18 57/79/16
f 57/79/16 49/87/73 76/69/57
f 38/93/67 33/6/75 4/32/8
f 97/56/3 9/39/19 23/31/55
f 23/31/55 9/39/19 79/102/25
f 76/120/57 35/9/63 59/37/93
f 59/37/93 35/9/63 38/93/67
f 90/74/95 62/58/65 69/19/58
f 69/19/58 62/58/65 97/56/3
f 8/33/68 79/102/25 34/82/56
f 46/2/71 83/96/92 71/83/13 45/68/74
f 57/79/16 76/69/57 48/70/30
f 48/70/30 76/69/57 59/42/93
f 4/32/8 90/74/95 71/73/13
f 18/30/96 24/90/29 15/95/78 26/118/17
f 46/2/71 45/68/74 8/20/68
f 48/8/30 59/116/93 36/85/59
f 15/95/78 71/83/13 83/96/92
f 46/2/71 8/20/68 32/107/7
f 83/96/92 46/2/71 19/50/23
f 7/10/37 36/85/59 94/98/83
f 94/23/83 36/3/59 96/13/22
f 96/13/22 1/12/61 54/11/84
f 54/11/84 39/49/6 24/90/29
f 40/84/62 96/13/22 54/11/84
f 24/90/29 39/49/6 15/95/78
f 40/113/62 41/80/47 29/36/21 95/51/4
f 18/30/96 26/118/17 86/5/36
f 26/118/17 19/50/23 86/5/36
f 32/107/7 10/62/60 56/14/79
f 56/14/79 10/62/60 50/1/82
f 50/1/82 7/10/37 95/51/4
f 95/51/4 94/98/83 40/113/62
f 56/14/79 50/1/82 95/51/4
f 24/90/29 52/99/80 55/40/42 54/11/84
f 55/40/42 40/84/62 54/11/84
f 18/30/96 88/35/44 63/114/14 24/90/29
f 86/5/36 3/75/38 25/27/45 18/30/96
f 56/14/79 80/48/46 3/75/38 86/5/36
f 95/51/4 29/36/21 74/89/52 56/14/79
f 27/18/20 16/111/10 85/43/64 11/16/90
f 74/89/52 29/36/21 11/16/90
f 72/7/26 55/40/42 52/99/80
f 2/26/39 25/27/45 82/117/24
f 82/117/24 80/48/46 75/22/43
f 53/104/34 16/67/10 27/64/20 72/7/26
f 82/117/24 75/22/43 78/112/51 2/26/39
f 31/4/85 2/26/39 78/112/51
f 31/4/85 63/114/14 2/26/39
f 20/92/69 11/16/90 85/43/64
f 53/104/34 72/7/26 61/86/76
f 31/4/85 78/112/51 28/81/1
f 61/86/76 31/4/85 28/81/1
