v -0.09136626124382019 -0.012302206829190254 0.18229158222675323
v -0.07424577325582504 -2.0136965872552537e-08 0.11273437738418579
v -0.043256908655166626 0.021577265113592148 -0.1776263266801834
v -0.005910128820687532 -5.166926442257136e-08 0.22617316246032715
v 2.471989830610255e-07 -0.02189476601779461 -0.2138548046350479
v -0.09562227874994278 0.006374596152454615 0.18236027657985687
v 0.07624350488185883 -0.012624066323041916 0.12282921373844147
v -0.021080708131194115 0.012350347824394703 0.17676842212677002
v 0.10567206144332886 0.024895651265978813 -0.11991538852453232
v 0.0290682315826416 -0.02115664817392826 -0.18562188744544983
v 0.06221284344792366 3.1757391383280265e-08 -0.1432560533285141
v -0.07426080107688904 0.006785767152905464 -0.11452784389257431
v -0.08102788031101227 -0.0070374757051467896 -0.1963072568178177
v 0.031240947544574738 0.01273227110505104 -0.21956461668014526
v -0.12277261912822723 0.006957153789699078 -0.12840642035007477
v 0.11985587328672409 0.01235161256045103 -0.12740251421928406
v 0.0246345903724432 4.073029913342907e-08 -0.17255695164203644
v -0.07986412197351456 0.01804136484861374 0.1217380240559578
v 0.10484495759010315 -0.024953899905085564 -0.12216305732727051
v -0.02108071558177471 -0.012350428849458694 0.17676842212677002
v -0.1048450767993927 0.02495395950973034 -0.12216317653656006
v -0.010089275427162647 -3.88729013423017e-08 0.17663638293743134
v 0.055168766528367996 -0.024999963119626045 -0.18631680309772491
v 0.08380648493766785 0.021571822464466095 -0.13121673464775085
v -0.07982008159160614 -0.017931975424289703 0.12165289372205734
v 0.11818140745162964 0.012919450178742409 0.13549773395061493
v 0.05152351036667824 0.02500004880130291 -0.18923009932041168
v 0.0111921401694417 -0.006680257618427277 -0.2246287614107132
v -0.09259423613548279 0.02504049427807331 0.1483370065689087
v 0.07508362084627151 0.012652731500566006 0.19786356389522552
v -0.03749007731676102 -0.018829474225640297 -0.17530709505081177
v -0.05710896477103233 0.012620593421161175 -0.15553994476795197
v 0.09136594831943512 -0.012302188202738762 0.1822919398546219
v -0.027784453704953194 4.5785274238596685e-08 -0.1710030734539032
v 0.001326802303083241 -0.01921006664633751 0.2180473953485489
v 0.09350088238716125 -0.012302239425480366 -0.1798333376646042
v -0.08442003279924393 0.0217067152261734 -0.13044168055057526
v -0.044246409088373184 -0.019357601180672646 0.20967547595500946
v -0.012336436659097672 -0.024956079199910164 0.20248277485370636
v -0.11985597014427185 0.012351599521934986 0.12742702662944794
v 0.05576383322477341 -5.34410311558986e-08 0.21309475600719452
v -0.005255300551652908 0.012236061505973339 -0.18016788363456726
v -0.09694340080022812 0.008197342976927757 -0.17935508489608765
v -0.07631947100162506 0.021691767498850822 -0.18666720390319824
v 0.05668841302394867 -0.024873998016119003 0.1916571855545044
v 0.09108387678861618 0.02497313730418682 0.12654732167720795
v 0.07631939649581909 0.02169174514710903 -0.18666712939739227
v -0.059568870812654495 -2.8274634189529024e-08 0.14762161672115326
v 0.07208869606256485 0.0002946981694549322 0.12657827138900757
v -0.10567218065261841 -0.024895593523979187 -0.11991550773382187
v -0.024701138958334923 -0.021599585190415382 0.18540894985198975
v -0.1068941205739975 0.02187918871641159 0.14444558322429657
v 0.07421991974115372 -0.006897096987813711 -0.1147991418838501
v -0.12283477932214737 -0.007252171635627747 0.1273084282875061
v 0.1085396334528923 -0.021578606218099594 0.1391679346561432
v 2.5070434617191495e-07 0.021894868463277817 -0.2138548046350479
v 0.00171992601826787 0.024995535612106323 0.20744991302490234
v 0.122834712266922 -0.007252032868564129 -0.12728393077850342
v -0.06104894354939461 -0.01850038208067417 0.15598638355731964
v 0.044528473168611526 -0.005940380040556192 0.16152183711528778
v -0.0441979244351387 0.025000058114528656 -0.19458486139774323
v -0.045339230448007584 0.02174493297934532 0.20490118861198425
v 0.061877328902482986 -0.021577319130301476 0.16380935907363892
v -0.061048977077007294 0.01850033551454544 0.15598635375499725
v 0.07660187780857086 0.012802118435502052 0.12221098691225052
v 0.024604346603155136 0.01815609820187092 0.17863638699054718
v -0.05710897967219353 -0.012620506808161736 -0.15553992986679077
v 0.057108670473098755 -0.012620458379387856 -0.1555400788784027
v -0.024701138958334923 0.021599503234028816 0.18540894985198975
v 0.08382733911275864 -0.021645547822117805 -0.13138309121131897
v 0.05751754716038704 0.018528904765844345 0.16015976667404175
v 0.05668841674923897 0.024873901158571243 0.1916571855545044
v -0.10601404309272766 -0.022036394104361534 0.1454601287841797
v -0.052163589745759964 0.0073671359568834305 0.2139112800359726
v 0.09412436187267303 0.006374774966388941 -0.18404415249824524
v 0.011559615842998028 0.02146073803305626 -0.18779347836971283
v -0.06221317872405052 6.437431210315481e-08 -0.14325572550296783
v -0.08380666375160217 -0.02157173678278923 -0.13121645152568817
v 0.00941286701709032 0.012905600480735302 0.2224365770816803
v 0.03937699645757675 -0.013180507346987724 0.21600720286369324
v 0.07611508667469025 0.01222983654588461 -0.12284192442893982
v 0.10775096714496613 0.02175198495388031 0.1401640921831131
v 0.04980045184493065 0.01782931759953499 -0.16568823158740997
v 0.0154662374407053 -0.012436632998287678 -0.17774279415607452
v -0.07631947100162506 -0.021691661328077316 -0.18666721880435944
v -0.04025272652506828 -0.024999946355819702 -0.19716636836528778
v -0.07698170840740204 -0.012177770957350731 -0.11706329882144928
v -0.03708967566490173 -0.007891101762652397 -0.2201448678970337
v 0.12313997000455856 -0.00747552840039134 0.12498097121715546
v 0.07631939649581909 -0.021691668778657913 -0.18666712939739227
v -0.04077773541212082 0.012905680574476719 -0.21580490469932556
v 0.05006885156035423 -0.006685585714876652 -0.21514876186847687
v 0.1052098423242569 -4.9172864891033896e-08 0.17031170427799225
v 0.024604346603155136 -0.018156185746192932 0.17863638699054718
v -0.0925942212343216 -0.02495952881872654 0.14833702147006989
v 0.09134393185377121 -0.025051141157746315 0.12603624165058136
v -0.11893727630376816 -0.012030738405883312 -0.13445736467838287

vn 0.4058351516723633 -0.28003785014152527 -0.869960606098175
vn 0.2685628831386566 -0.5238196849822998 -0.808374285697937
vn -0.06491287052631378 -0.9953612089157104 0.07061982899904251
vn 0.29099398851394653 -0.7817316055297852 0.5515304803848267
vn 0.3230384290218353 0.9432355761528015 -0.07678456604480743
vn -0.40040284395217896 -0.8171635866165161 -0.4145634174346924
vn -0.42280343174934387 0.21591845154762268 0.8800927996635437
vn -0.9413129091262817 -0.28882718086242676 0.1744743138551712
vn -0.9241920113563538 0.3257545828819275 -0.1993468999862671
vn 0.6392711997032166 0.4511246085166931 0.6226996779441833
vn 0.8528397679328918 -0.04525895044207573 0.5201574563980103
vn -0.6082949042320251 -0.5321207046508789 0.5888546109199524
vn -0.16010010242462158 -0.8048341274261475 -0.5714591145515442
vn 0.9893490672111511 0.02227851189672947 -0.14383374154567719
vn -0.19751578569412231 -0.9786675572395325 -0.05618457496166229
vn 0.6247749328613281 -0.4862514138221741 0.6108890175819397
vn -0.18134097754955292 0.9814752340316772 -0.06128116697072983
vn -0.27378153800964355 -0.9607226848602295 -0.04522842913866043
vn -0.09762871265411377 0.9551683068275452 -0.2794579863548279
vn 0.39374980330467224 -0.7926877737045288 -0.46534621715545654
vn 0.3321939706802368 -0.940153181552887 -0.07544175535440445
vn -0.30579546093940735 -0.6830652952194214 0.6632282733917236
vn -0.2625202238559723 -0.30567339062690735 -0.9152196049690247
vn 0.8513443470001221 0.47904905676841736 -0.2137211263179779
vn -0.4265877306461334 0.7424542903900146 0.5164647102355957
vn 0.7598498463630676 0.00027466658502817154 -0.6500442624092102
vn 0.3404950201511383 -0.16208380460739136 0.9261451959609985
vn 0.2685628831386566 0.5238196849822998 -0.808374285697937
vn 0.8389843702316284 0.04516739398241043 0.5422528982162476
vn 0.4592730402946472 -0.7194738388061523 -0.52092045545578
vn 0.17136143147945404 -0.9465621113777161 0.27317118644714355
vn -0.8855555653572083 0.4378185272216797 0.15509507060050964
vn 0.4378795623779297 0.8780785799026489 0.19290749728679657
vn 0.8707236051559448 0.4385814964771271 0.2223578542470932
vn 0.11548203974962234 0.9620655179023743 0.2471388876438141
vn -0.010010071098804474 -0.9945982098579407 0.1029999703168869
vn 0.5604419112205505 -0.7982726693153381 0.22046571969985962
vn -0.9444868564605713 -0.28806421160697937 0.1578722447156906
vn 0.44102299213409424 0.02932828664779663 0.8970000147819519
vn -0.05154576152563095 -0.48854029178619385 0.8709982633590698
vn -0.7817010879516602 0.2854090929031372 -0.5544908046722412
vn 0.23126927018165588 0.8215888142585754 -0.521012008190155
vn 0.02630695514380932 0.9553819298744202 0.2941679060459137
vn 0.8748130798339844 -0.45789971947669983 0.1579638123512268
vn 0.4197821021080017 -0.8857081532478333 0.1981566846370697
vn -0.5774407386779785 -0.7785882353782654 0.2456739991903305
vn 0.5618152618408203 0.45698416233062744 0.6895657181739807
vn -0.8099307417869568 -0.5421918630599976 -0.22357860207557678
vn -0.6584978699684143 -0.34595781564712524 0.6683248281478882
vn 0.016144290566444397 -0.712546169757843 0.7014068961143494
vn 0.47227394580841064 0.6900234818458557 -0.5484176278114319
vn 0.9545274376869202 0.24396497011184692 0.17120884358882904
vn -0.3193151652812958 0.007751701399683952 0.9475997090339661
vn -0.40134891867637634 -0.8599505424499512 -0.3151951730251312
vn 0.20300912857055664 -0.8530839085578918 -0.48063600063323975
vn -0.7177647948265076 0.27423933148384094 0.6399731636047363
vn -0.12329477816820145 -0.9288003444671631 -0.3494369387626648
vn 0.6194646954536438 0.7716605067253113 -0.14404736459255219
vn -0.8362987041473389 0.5108798742294312 -0.1989196389913559
vn 0.2227851152420044 0.491073340177536 -0.8421277403831482
vn -0.4044007658958435 0.7831659913063049 -0.47230446338653564
vn -0.6226081252098083 -0.1978209763765335 -0.7570726871490479
vn -0.8188421130180359 0.5241248607635498 0.23395489156246185
vn 0.4944913983345032 0.8399914503097534 0.2232428938150406
vn 0.21570482850074768 0.9117099642753601 0.3496200442314148
vn -0.37589648365974426 0.9068574905395508 0.1904354989528656
vn -0.9321878552436829 0.03518784046173096 -0.36024048924446106
vn -0.5238196849822998 0.7221900224685669 -0.4516739249229431
vn -0.08175908774137497 -0.009552293457090855 0.9965819120407104
vn -0.5846735835075378 0.7715384364128113 0.25064852833747864
vn -0.08276619762182236 0.7889034748077393 0.6088747978210449
vn 0.6261482834815979 -0.765648365020752 -0.14728233218193054
vn 0.1194799616932869 0.4756004512310028 0.8714865446090698
vn -0.8402966260910034 -0.47242653369903564 -0.26584672927856445
vn 0.9287087321281433 -0.30640584230422974 -0.20877712965011597
vn 0.12512588500976562 0.0016785180196166039 -0.9921262264251709
vn 0.7340617179870605 0.27280494570732117 -0.6218146085739136
vn 0.006530961021780968 -0.8361766338348389 -0.5483871102333069
vn -0.2779015600681305 0.520889937877655 -0.8070924878120422
vn -0.14029358327388763 -0.7882015705108643 0.599139392375946
vn 0.05725272372364998 -0.2227240800857544 -0.9731742143630981
vn 0.9500716924667358 -0.2847377061843872 0.1274758130311966
vn 0.07513657212257385 0.5081331729888916 0.8579668402671814
vn 0.3894467055797577 0.7946409583091736 -0.46565142273902893
vn -0.8407849073410034 0.04516739398241043 0.539445161819458
vn -0.3966185450553894 -0.8980376720428467 0.1902829110622406
vn 0.6759849786758423 -0.29795220494270325 0.6739707589149475
vn 0.2603839337825775 -0.49537643790245056 0.8287301063537598
vn -0.2851954698562622 0.9552903771400452 -0.07760857045650482
vn 0.027405621483922005 -0.9927060604095459 -0.11719107627868652
vn 0.7154148817062378 -0.45692312717437744 -0.5285195708274841
vn -0.014923551119863987 0.7999511957168579 -0.599841296672821
vn -0.1597338765859604 0.773644208908081 -0.6130863428115845
vn 0.03424176573753357 0.9920346736907959 -0.12115848064422607
vn -0.07019257545471191 0.9952391386032104 0.06723227351903915
vn -0.5551927089691162 -0.1837214231491089 -0.8111514449119568
vn -0.22602008283138275 0.8353526592254639 0.5010834336280823

vt 1.0 0.4166666567325592
vt 0.9407402276992798 1.0
vt 0.34376052021980286 0.5
vt 0.9523048400878906 0.5485252141952515
vt 0.6360146999359131 0.4609344005584717
vt 0.8851516246795654 0.6666666269302368
vt 0.01112220250070095 0.5393685698509216
vt 0.011701532639563084 0.6666666269302368
vt 0.19296325743198395 0.8333333134651184
vt 0.7947949171066284 0.5833333134651184
vt 0.6311284303665161 0.8696248531341553
vt 0.5449078679084778 0.8333333134651184
vt 0.05188415199518204 1.0
vt 0.10325510799884796 0.12333522737026215
vt 0.9300158023834229 0.25
vt 0.1532505452632904 1.0
vt 0.8467485904693604 2.220446049250313e-16
vt 0.09047746658325195 0.75
vt 0.13752254843711853 0.5833333134651184
vt 0.7092325091362 0.1218937411904335
vt 0.7864879965782166 0.690422534942627
vt 0.8851516246795654 0.3333333134651184
vt 0.6427663564682007 1.0
vt 0.3049046993255615 0.6666667461395264
vt 0.7229968309402466 1.0
vt 0.36670613288879395 0.5833333134651184
vt 0.42709213495254517 0.5
vt 0.49884843826293945 0.2945416569709778
vt 0.2949879765510559 0.0833333358168602
vt 0.5191506743431091 0.75
vt 0.3775103986263275 0.8333332538604736
vt 0.8067671060562134 0.8333332538604736
vt 0.9929404258728027 0.1666666716337204
vt 0.3977881371974945 0.9721537828445435
vt 0.1148485466837883 0.6666666865348816
vt 0.29138511419296265 0.7850283980369568
vt 0.7752971649169922 1.0
vt 0.7092556953430176 0.8806768655776978
vt 0.22392894327640533 2.220446049250313e-16
vt 0.040765464305877686 0.4166666865348816
vt 0.6871558427810669 0.3333333432674408
vt 0.9292304515838623 0.8565180897712708
vt 0.5427656173706055 0.9166667461395264
vt 0.3061833083629608 2.220446049250313e-16
vt 0.9929404258728027 0.8333333134651184
vt 0.02708888053894043 0.1666666865348816
vt 0.6734302639961243 0.75
vt 0.7885580062866211 0.30233466625213623
vt 0.12728062272071838 0.9166666269302368
vt 0.02086789347231388 0.0833333358168602
vt 0.9407402276992798 2.220446049250313e-16
vt 0.4479188024997711 0.5833333730697632
vt 0.19323240220546722 0.1666666716337204
vt 0.5209528207778931 1.0
vt 0.05188415199518204 2.220446049250313e-16
vt 0.5427655577659607 0.0833333358168602
vt 0.1532505452632904 2.220446049250313e-16
vt 0.39592140913009644 0.4166666269302368
vt 0.30661827325820923 0.3333333432674408
vt 0.5074326992034912 0.5
vt 0.9353211522102356 0.75
vt 0.6427663564682007 2.220446049250313e-16
vt 0.9190168380737305 0.1666666567325592
vt 0.06362013518810272 0.5431447625160217
vt 0.714192807674408 0.4166666865348816
vt 0.28121012449264526 0.5513507723808289
vt 0.6734300851821899 0.25
vt 0.7229968309402466 2.220446049250313e-16
vt 0.4050300121307373 0.6931203603744507
vt 0.1343848705291748 0.45932918787002563
vt 0.05565550550818443 0.8333333730697632
vt 0.544907808303833 0.1666666716337204
vt 0.296364963054657 0.9166667461395264
vt 0.4534672200679779 0.8800951242446899
vt 1.0 2.220446049250313e-16
vt 0.48777323961257935 0.4166666269302368
vt 0.8727189898490906 0.9166667461395264
vt 1.0 0.9166666865348816
vt 0.21993514895439148 0.9557247161865234
vt 0.7847518920898438 0.9166666865348816
vt 0.1148485466837883 0.3333333432674408
vt 0.8877884745597839 0.5362560749053955
vt 0.4534671902656555 0.11990491300821304
vt 0.8467485904693604 1.0
vt 0.5636188983917236 0.633897602558136
vt 0.29649922251701355 0.4166666567325592
vt 0.9811623096466064 0.6666666865348816
vt 0.2141839563846588 0.4166666269302368
vt 0.5648537874221802 0.3333333134651184
vt 0.6853927373886108 0.6666666865348816
vt 1.0 0.5393685698509216
vt 0.37639373540878296 0.1299261748790741
vt 0.9461154341697693 0.4166666269302368
vt 0.21351216733455658 0.309578001499176
vt 0.5209528207778931 2.220446049250313e-16
vt 0.8050730228424072 0.1666666716337204
vt 0.8727189898490906 0.0833333432674408
vt 0.9787774085998535 0.0833333432674408
vt 8.881784197001252e-16 0.25
vt 0.21144211292266846 0.6976648569107056
vt 0.9811623096466064 0.3333333730697632
vt 0.29151439666748047 0.21536271274089813
vt 0.7805687189102173 0.04316519945859909
vt 0.08318832516670227 0.25
vt 0.7150615453720093 0.5436177253723145
vt 0.20349204540252686 0.0833333283662796
vt 0.8583739399909973 0.4424721300601959
vt 0.4050300121307373 0.30687958002090454
vt 0.011701547540724277 0.3333333432674408
vt 0.5672136545181274 0.4575825333595276
vt 0.21518714725971222 0.5414843559265137
vt 0.3061833083629608 1.0
vt 0.7856584191322327 0.4571062922477722
vt 0.03133809193968773 0.9166666269302368
vt 1.0 1.0
vt 0.6311284899711609 0.13037526607513428
vt 0.6332944631576538 0.5833333730697632
vt 0.4092356264591217 2.220446049250313e-16
vt 0.008563091978430748 0.75
vt 0.4966185688972473 0.6217549443244934

f 38/85/22 39/30/36 35/120/50
f 4/60/69 38/85/22 35/120/50
f 74/110/7 4/60/69 79/76/73
f 74/110/7 38/85/22 4/60/69
f 38/85/22 95/47/3 39/30/36
f 51/12/55 59/11/30 20/43/2
f 64/116/51 69/72/42 8/56/28
f 29/67/95 62/89/97 57/28/43
f 73/90/46 95/47/3 38/85/22
f 29/67/95 52/41/70 62/89/97
f 25/38/72 48/23/26 59/11/30
f 48/62/26 18/20/58 64/116/51
f 6/5/56 54/105/8 1/117/12
f 54/105/8 73/90/46 1/117/12
f 52/41/70 40/65/32 6/5/56
f 25/38/72 2/25/14 48/23/26
f 2/68/14 18/20/58 48/62/26
f 29/67/95 21/48/89 52/41/70
f 96/36/15 19/100/21 55/24/37
f 82/59/64 9/94/5 46/102/17
f 49/112/67 53/79/38 7/73/48
f 40/65/32 15/113/9 54/105/8
f 73/90/46 50/21/18 95/47/3
f 26/86/34 93/3/29 89/66/82
f 63/31/54 60/34/96 7/73/48
f 80/52/88 45/69/31 33/26/16
f 60/118/96 66/83/93 71/92/68
f 45/69/31 94/74/13 63/31/54
f 66/83/93 72/108/35 71/92/68
f 39/30/36 94/74/13 45/69/31
f 66/83/93 57/28/43 72/108/35
f 79/76/73 41/27/39 30/58/47
f 4/60/69 80/52/88 41/27/39
f 79/76/73 4/60/69 41/27/39
f 4/60/69 35/120/50 80/52/88
f 97/10/74 85/6/6 50/21/18
f 67/77/87 77/84/11 87/80/44
f 77/17/11 32/97/10 12/103/52
f 13/82/62 85/6/6 97/10/74
f 86/61/57 31/42/4 78/32/45
f 3/63/65 61/15/19 37/96/33
f 88/4/23 85/6/6 13/82/62
f 44/22/61 91/93/79 43/107/41
f 91/93/79 13/82/62 43/107/41
f 31/42/4 34/2/27 67/77/87
f 34/51/27 42/98/83 32/97/10
f 42/98/83 3/63/65 32/97/10
f 5/87/78 86/61/57 85/6/6
f 61/15/19 56/101/92 44/22/61
f 86/61/57 10/45/80 31/42/4
f 76/33/71 61/15/19 3/63/65
f 10/45/80 84/78/40 31/42/4
f 5/8/78 23/18/90 86/119/57
f 23/18/90 10/71/80 86/119/57
f 92/64/1 90/35/20 5/8/78
f 47/81/84 14/40/60 56/109/92
f 75/70/77 92/64/1 14/40/60
f 68/49/49 11/16/85 17/13/53
f 11/57/85 83/14/25 17/55/53
f 70/9/86 68/49/49 10/71/80
f 90/35/20 19/100/21 23/18/90
f 19/100/21 70/9/86 23/18/90
f 11/57/85 81/106/63 83/14/25
f 81/106/63 24/53/66 83/14/25
f 24/53/66 9/94/5 27/104/94
f 9/94/5 47/81/84 27/104/94
f 58/111/75 36/19/91 75/70/77
f 70/9/86 53/79/38 68/49/49
f 53/39/38 81/106/63 11/57/85
f 57/28/43 62/89/97 79/76/73
f 62/89/97 74/110/7 79/76/73
f 51/12/55 39/30/36 95/47/3 59/11/30
f 48/23/26 22/54/76 20/43/2 59/11/30
f 8/56/28 22/95/76 48/62/26 64/116/51
f 29/67/95 57/28/43 69/72/42 64/116/51
f 12/37/52 2/25/14 25/38/72 87/80/44
f 62/89/97 6/5/56 74/110/7
f 1/117/12 38/85/22 74/110/7 6/5/56
f 1/117/12 73/90/46 38/85/22
f 62/89/97 52/41/70 6/5/56
f 95/47/3 25/38/72 59/11/30
f 64/116/51 18/20/58 29/67/95
f 40/65/32 54/105/8 6/5/56
f 50/21/18 73/90/46 54/105/8 97/10/74
f 21/48/89 29/67/95 18/20/58 37/96/33
f 58/111/75 89/66/82 55/24/37 19/100/21
f 53/79/38 70/9/86 96/36/15 7/73/48
f 25/38/72 78/32/45 87/80/44
f 54/105/8 15/113/9 97/10/74
f 46/102/17 9/94/5 24/53/66
f 78/32/45 25/38/72 95/47/3 50/21/18
f 18/20/58 12/103/52 37/96/33
f 16/88/24 26/86/34 89/66/82 58/111/75
f 81/106/63 65/29/59 46/102/17 24/53/66
f 15/113/9 40/65/32 52/41/70 21/48/89
f 9/94/5 82/59/64 26/86/34 16/88/24
f 96/36/15 70/9/86 19/100/21
f 18/20/58 2/68/14 12/103/52
f 53/39/38 49/44/67 65/29/59 81/106/63
f 79/76/73 30/58/47 72/108/35 57/28/43
f 93/3/29 33/26/16 89/66/82
f 89/66/82 33/26/16 55/24/37
f 96/36/15 63/31/54 7/73/48
f 65/29/59 71/92/68 46/102/17
f 55/24/37 45/69/31 96/36/15
f 96/36/15 45/69/31 63/31/54
f 7/73/48 60/34/96 49/112/67
f 49/44/67 71/92/68 65/29/59
f 71/92/68 72/108/35 46/102/17
f 46/102/17 72/108/35 82/59/64
f 82/59/64 30/58/47 26/86/34
f 26/86/34 30/58/47 93/3/29
f 33/26/16 45/69/31 55/24/37
f 49/44/67 60/118/96 71/92/68
f 82/59/64 72/108/35 30/58/47
f 93/3/29 41/27/39 33/26/16
f 30/58/47 41/27/39 93/3/29
f 41/27/39 80/52/88 33/26/16
f 63/31/54 94/74/13 60/34/96
f 80/52/88 35/120/50 45/69/31
f 35/120/50 39/30/36 45/69/31
f 94/74/13 22/54/76 60/34/96
f 60/118/96 22/95/76 66/83/93
f 15/113/9 21/48/89 44/22/61 43/107/41
f 39/30/36 51/12/55 94/74/13
f 94/74/13 51/12/55 20/43/2
f 94/74/13 20/43/2 22/54/76
f 22/95/76 8/56/28 66/83/93
f 8/56/28 69/72/42 66/83/93
f 66/83/93 69/72/42 57/28/43
f 87/80/44 77/84/11 12/37/52
f 15/113/9 43/107/41 97/10/74
f 78/32/45 67/77/87 87/80/44
f 12/103/52 32/97/10 37/96/33
f 34/2/27 31/42/4 84/78/40 17/115/53
f 43/107/41 13/82/62 97/10/74
f 85/6/6 86/61/57 50/21/18
f 50/21/18 86/61/57 78/32/45
f 37/96/33 61/15/19 21/48/89
f 21/48/89 61/15/19 44/22/61
f 78/32/45 31/42/4 67/77/87
f 32/97/10 3/63/65 37/96/33
f 67/77/87 34/2/27 77/84/11
f 77/17/11 34/51/27 32/97/10
f 91/93/79 88/4/23 13/82/62
f 88/4/23 5/87/78 85/6/6
f 44/22/61 56/101/92 91/93/79
f 42/98/83 76/33/71 3/63/65
f 88/4/23 28/91/81 5/87/78
f 88/4/23 91/93/79 14/1/60 28/91/81
f 34/51/27 17/75/53 42/98/83
f 56/101/92 14/1/60 91/93/79
f 90/35/20 36/19/91 58/111/75 19/100/21
f 76/46/71 27/104/94 61/99/19
f 61/99/19 27/104/94 56/109/92
f 28/7/81 92/64/1 5/8/78
f 14/40/60 92/64/1 28/7/81
f 5/8/78 90/35/20 23/18/90
f 17/55/53 83/14/25 42/50/83
f 42/50/83 83/14/25 76/46/71
f 27/104/94 47/81/84 56/109/92
f 10/71/80 68/49/49 84/114/40
f 84/114/40 68/49/49 17/13/53
f 76/46/71 83/14/25 27/104/94
f 75/70/77 36/19/91 92/64/1
f 92/64/1 36/19/91 90/35/20
f 47/81/84 75/70/77 14/40/60
f 23/18/90 70/9/86 10/71/80
f 83/14/25 24/53/66 27/104/94
f 16/88/24 75/70/77 47/81/84 9/94/5
f 68/49/49 53/79/38 11/16/85
f 16/88/24 58/111/75 75/70/77
