v 0.007252071052789688 -0.12283467501401901 0.12730838358402252
v -0.021706674247980118 -0.0844198688864708 -0.13044197857379913
v -0.012544585391879082 -0.07573290169239044 -0.12604407966136932
v -0.020014120265841484 -0.0013025226071476936 -0.21730154752731323
v -0.01793198101222515 0.07982008904218674 0.12165289372205734
v 0.0185288917273283 -0.05751752853393555 0.16015976667404175
v 5.818513315603013e-08 0.038045331835746765 -0.16588479280471802
v 0.007891234941780567 0.03708965703845024 -0.2201448678970337
v -0.021657222881913185 -0.10777779668569565 0.1403779536485672
v 0.021691756322979927 -0.07631944119930267 -0.18666709959506989
v -0.012235957197844982 0.005255290772765875 -0.18016788363456726
v -0.012559403665363789 -0.11989076435565948 0.126977801322937
v 0.025000059977173805 -0.051523514091968536 -0.18923011422157288
v 0.012802105396986008 -0.07660186290740967 0.12221100181341171
v -0.012905552051961422 0.040777724236249924 -0.21580490469932556
v 0.01242588460445404 0.07720489054918289 -0.11681616306304932
v -0.02157006412744522 -0.005534713622182608 -0.1879854053258896
v 0.01804277114570141 0.07986828684806824 0.12173021584749222
v -0.007252168375998735 0.12283479422330856 0.12730838358402252
v 0.007021923083811998 -0.055604495108127594 -0.15216919779777527
v 0.024973124265670776 -0.09108386933803558 0.12654732167720795
v 0.007802614476531744 -0.09791141003370285 -0.178550124168396
v 0.006830744445323944 -0.06358466297388077 -0.20915718376636505
v 0.02157728001475334 0.043256908655166626 -0.1776263266801834
v 7.500297982687698e-08 0.07485977560281754 -0.20094221830368042
v 0.018156083300709724 -0.02460433356463909 0.17863638699054718
v 0.006181919015944004 0.009265406057238579 -0.17562521994113922
v -0.005940394476056099 -0.04452846199274063 0.16152183711528778
v 0.025040486827492714 0.09259423613548279 0.14833702147006989
v -0.01243477500975132 -0.07629770785570145 0.1224546730518341
v 0.02159949019551277 0.024701151996850967 0.18540894985198975
v -0.01235154364258051 0.11985599249601364 -0.12740261852741241
v -0.01935761608183384 0.04424642026424408 0.20967547595500946
v 0.02115674316883087 -0.029068242758512497 -0.18562188744544983
v -0.025051027536392212 -0.04505729302763939 -0.19398243725299835
v -0.024959536269307137 0.09259423613548279 0.14833702147006989
v 0.012436730787158012 -0.015466258861124516 -0.17774279415607452
v 0.021571828052401543 -0.08380648493766785 -0.13121674954891205
v -0.012302213348448277 0.09136629104614258 0.18229156732559204
v 0.021751966327428818 -0.10775096714496613 0.1401640772819519
v 0.012350336648523808 0.02108072303235531 0.17676842212677002
v 0.021744919940829277 0.04533924162387848 0.20490118861198425
v -0.024874014779925346 -0.05668840557336807 0.1916571855545044
v 0.007367121987044811 0.05216360464692116 0.2139112800359726
v -0.02203640341758728 0.10601404309272766 0.14546014368534088
v -0.013180525973439217 -0.03937698155641556 0.21600721776485443
v 0.018500326201319695 0.061048999428749084 0.15598635375499725
v -0.024948112666606903 -0.10549435764551163 -0.12028516829013824
v 0.0248738843947649 -0.056688398122787476 0.1916571855545044
v 0.007662856951355934 -0.09717919677495956 0.1797075867652893
v -0.01230220589786768 -0.09136593341827393 0.1822919398546219
v -0.018287286162376404 -0.04589783772826195 -0.1687941700220108
v 0.0067464429885149 -0.07404087483882904 -0.11630421876907349
v 0.01235161628574133 -0.11985588073730469 -0.12740246951580048
v 5.04575865534207e-08 -0.03345995023846626 -0.16783709824085236
v -5.211303033547665e-08 0.010089290328323841 0.17663638293743134
v -0.006989437621086836 -0.12273351103067398 -0.12782007455825806
v -0.02157733403146267 -0.0618773028254509 0.16380935907363892
v -0.021639319136738777 0.08439350873231888 -0.13030394911766052
v -0.012620491907000542 0.057108961045742035 -0.15553994476795197
v -0.018156200647354126 -0.024604329839348793 0.17863638699054718
v -0.024956094101071358 0.012336459942162037 0.20248277485370636
v 6.863012202984464e-08 -0.024599295109510422 -0.2236499935388565
v 0.019209949299693108 -0.0013267840258777142 0.2180473953485489
v -0.021691644564270973 0.07631943374872208 -0.18666721880435944
v 0.007252128329128027 0.12283483147621155 -0.1272840052843094
v -0.019210083410143852 -0.001326782046817243 0.2180473953485489
v -0.021691657602787018 -0.07631944864988327 -0.18666709959506989
v -0.00012825062731280923 0.07434949278831482 0.11230587959289551
v 0.024953972548246384 0.1048450693488121 -0.12216318398714066
v 0.021706728264689445 0.08442002534866333 -0.13044168055057526
v -6.887588455128935e-08 0.0059101455844938755 0.22617316246032715
v -3.6481896614759535e-08 0.05956888571381569 0.14762161672115326
v 0.00637459009885788 0.09562230110168457 0.18236026167869568
v -0.007802487816661596 0.09791135787963867 -0.17855040729045868
v -0.02505178190767765 -0.09141978621482849 0.12582644820213318
v -0.012309386394917965 0.07694597542285919 -0.11742003262042999
v 0.021691784262657166 0.07631943374872208 -0.18666721880435944
v 0.012571186758577824 0.09222736954689026 -0.18086929619312286
v 0.00029477427597157657 0.07208885997533798 -0.12655434012413025
v -0.01816096343100071 0.021684354171156883 0.18028029799461365
v 0.025000074878335 0.044197916984558105 -0.19458486139774323
v -0.02495594322681427 0.05061009153723717 -0.18993863463401794
v 0.020014258101582527 -0.001302532502450049 -0.21730154752731323
v 0.024955973029136658 0.012336437590420246 0.20248277485370636
v -0.018500393256545067 0.0610489696264267 0.15598636865615845
v 0.0131803834810853 -0.03937699273228645 0.21600720286369324
v 0.01235159207135439 0.11985597759485245 0.12742699682712555
v -0.012328054755926132 -0.04741872847080231 -0.21295921504497528
v 0.012620605528354645 0.057108961045742035 -0.15553994476795197
v -0.021577153354883194 0.043256908655166626 -0.1776263266801834
v -0.012571011669933796 -0.09222734719514847 -0.1808691918849945
v 0.02489565685391426 -0.10567206889390945 -0.11991535872220993
v 0.0002946863532997668 -0.07208868861198425 0.12657827138900757
v 0.021879183128476143 0.1068941280245781 0.14444558322429657
v -7.027244919299847e-08 -0.06340953707695007 0.20983906090259552
v -0.024895580485463142 0.10567216575145721 -0.11991553008556366

vn 0.03094576857984066 -0.1673329919576645 -0.9853816032409668
vn -0.008148442022502422 0.574175238609314 -0.8186590075492859
vn 0.15451520681381226 0.7240516543388367 0.6721701622009277
vn -0.4454481601715088 -0.05868709459900856 0.8933683037757874
vn -0.4361705482006073 -0.8839991688728333 0.16812646389007568
vn -0.5239417552947998 0.8040406703948975 0.28098392486572266
vn -0.9750358462333679 -0.07409894466400146 -0.20917385816574097
vn 0.0018616290763020515 -0.9899594187736511 -0.14120914041996002
vn 0.43986326456069946 0.8844569325447083 0.15555284917354584
vn -0.9418011903762817 -0.32840967178344727 -0.0715964213013649
vn -0.7115390300750732 0.016479995101690292 -0.7024445533752441
vn -0.9027985334396362 0.3864253759384155 0.18869593739509583
vn 0.9430524706840515 -0.3250831663608551 -0.07040619850158691
vn 0.8855555653572083 0.4196905493736267 0.1990112066268921
vn -0.46421703696250916 -0.2627643644809723 0.8458204865455627
vn -0.0011597033590078354 -0.9306619167327881 0.3657948672771454
vn 0.9422284364700317 -0.19318217039108276 0.27356791496276855
vn 0.5238196849822998 -0.2685628831386566 -0.808374285697937
vn 0.5332499146461487 0.8233283758163452 -0.19418928027153015
vn 0.6808679699897766 0.16852320730686188 0.712729275226593
vn -0.29544970393180847 0.938932478427887 0.17618335783481598
vn -0.8028504252433777 -0.5502487421035767 0.2293771207332611
vn 0.8523819446563721 -0.20392468571662903 -0.48149052262306213
vn 0.2555925250053406 -0.47379985451698303 -0.8427075743675232
vn 0.46479690074920654 -0.26789146661758423 0.843897819519043
vn 0.7720572352409363 0.5840021967887878 0.25067904591560364
vn -0.712546169757843 -0.016144290566444397 0.7014068961143494
vn -0.4519791305065155 -0.7051606774330139 -0.5462813377380371
vn -0.7805109024047852 0.574724555015564 0.2458876371383667
vn 0.8952299356460571 -0.23416852951049805 0.3790398836135864
vn 0.287484347820282 0.9450666904449463 0.15536972880363464
vn 0.46513259410858154 0.7067476511001587 -0.5330362915992737
vn -0.9465621113777161 -0.17108675837516785 0.27335429191589355
vn -0.982146680355072 0.17932675778865814 -0.05652027949690819
vn -0.5008697509765625 -0.6572160720825195 0.5631580352783203
vn -0.7149876356124878 0.4062623977661133 0.5689565539360046
vn -0.06173894554376602 -0.4596087634563446 0.885952353477478
vn 0.3072298467159271 -0.7768791913986206 -0.5495772957801819
vn -0.5268410444259644 -0.3320108652114868 -0.7824030518531799
vn 0.1594897359609604 -0.1270180344581604 0.9789727330207825
vn -0.9584948420524597 0.2765892446041107 -0.06881923973560333
vn -0.8597369194030762 0.40162357687950134 -0.3154393136501312
vn 0.3194372355937958 0.2593157887458801 -0.9114047884941101
vn 0.9790032505989075 0.19394512474536896 -0.06256294250488281
vn -0.8041322231292725 0.1663258820772171 -0.5706655979156494
vn -0.9967650175094604 0.011200292967259884 0.079348124563694
vn -0.9136326313018799 -0.1981872022151947 0.35486921668052673
vn 0.8217414021492004 -0.5308084487915039 0.2072511911392212
vn 0.33127841353416443 -0.7445295453071594 0.5795465111732483
vn -0.0002441480755805969 0.0633564293384552 0.9979857802391052
vn 0.9603259563446045 0.09399700909852982 -0.2625202238559723
vn -0.7979064583778381 -0.39448225498199463 -0.45570239424705505
vn -0.47206029295921326 -0.6430860161781311 0.6029847264289856
vn 0.7181615829467773 -0.460463285446167 -0.521683394908905
vn 0.3317667245864868 0.9201330542564392 -0.20798364281654358
vn -0.7192907333374023 -0.4597003161907196 -0.52079838514328
vn 0.7371745705604553 -0.014709921553730965 -0.6755272150039673
vn -0.3162633180618286 0.774040937423706 -0.5484481453895569
vn -0.5273903608322144 0.8191778063774109 -0.22534868121147156
vn -0.7242957949638367 -0.2530899941921234 -0.6413159370422363
vn 0.712271511554718 -0.01348918117582798 0.7017425894737244
vn 0.9870906472206116 -0.0394299142062664 -0.15503403544425964
vn 0.8939787149429321 -0.41059601306915283 0.17944884300231934
vn 0.7846919298171997 0.39384135603904724 -0.47862178087234497
vn 0.8188421130180359 -0.38425853848457336 -0.4263741075992584
vn -0.9954222440719604 0.06436353921890259 0.07028412818908691
vn 0.27350687980651855 -0.9432660937309265 0.18817712366580963
vn -0.8935208916664124 -0.4121524691581726 0.17807550728321075
vn -0.6830652952194214 0.30579546093940735 0.6632282733917236
vn -0.3259987235069275 -0.9206518530845642 -0.2146977186203003
vn 0.4761803150177002 -0.8554948568344116 -0.20331430435180664
vn 0.47819453477859497 -0.6437879800796509 0.5973387956619263
vn -0.7761161923408508 -0.6136966943740845 -0.14490188658237457
vn 0.019409772008657455 -0.5186010599136353 0.8547929525375366
vn -0.05087435618042946 -0.12302011251449585 -0.9910885691642761
vn -0.5321207046508789 0.6082949042320251 0.5888546109199524
vn 0.8182622790336609 0.12894070148468018 0.5601672530174255
vn 0.7221900224685669 0.5238196849822998 -0.4516739249229431
vn -0.7809381484985352 0.40226447582244873 -0.4777672588825226
vn 0.9572435617446899 0.2791833281517029 -0.07556383311748505
vn -0.7921079397201538 0.03903317451477051 0.6090884208679199
vn 0.7749260067939758 -0.6151615977287292 -0.14487136900424957
vn -0.5241858959197998 0.2683492600917816 -0.808191180229187
vn -0.16327401995658875 0.3961302638053894 0.903531014919281
vn -0.47892695665359497 0.8535111546516418 -0.20511490106582642
vn 0.49537643790245056 -0.861659586429596 0.10986663401126862
vn -0.49546799063682556 -0.860744059085846 0.11661122739315033
vn 0.7570116519927979 0.15503403544425964 -0.634693443775177
vn 0.27423933148384094 0.7177647948265076 0.6399731636047363
vn 0.9949949383735657 0.0713217556476593 0.06961271911859512
vn 0.21259193122386932 0.4275032877922058 0.8786278963088989
vn -0.1837519407272339 0.5552537441253662 -0.8110904097557068
vn 0.09118930995464325 0.9279457926750183 -0.36136966943740845
vn -0.0035401470959186554 -0.7613757848739624 -0.6482436656951904
vn -0.9845881462097168 0.05005035549402237 -0.1674855798482895
vn 0.9950559735298157 0.0002136295661330223 0.09927671402692795
vn 0.8347117304801941 0.2375560700893402 0.49678030610084534

vt 0.1949264258146286 0.8333333134651184
vt 0.015178036876022816 0.8333333134651184
vt 0.4050299823284149 0.6931203603744507
vt 0.2949880063533783 0.0833333358168602
vt 0.30661824345588684 0.3333333134651184
vt 0.08318830281496048 0.25
vt 0.6311284303665161 0.8696248531341553
vt 0.4534671902656555 0.11990490555763245
vt 0.9787774085998535 0.9166666269302368
vt 0.5438319444656372 0.8751847147941589
vt 0.9300158023834229 0.25
vt 0.5636188387870789 0.6338975429534912
vt 0.564853847026825 0.3333333730697632
vt 0.08357885479927063 0.46090465784072876
vt 0.8984920382499695 0.5
vt 0.8727189898490906 0.0833333358168602
vt 0.6427662968635559 2.220446049250313e-16
vt 0.9190168380737305 0.1666666865348816
vt 0.29560166597366333 0.9166666865348816
vt 0.031338103115558624 0.0833333358168602
vt 0.36670613288879395 0.5833333134651184
vt 0.4050300121307373 0.3068796396255493
vt 0.4966185688972473 0.3782450556755066
vt 0.5191506743431091 0.25
vt 0.9929404258728027 0.1666666716337204
vt 0.784935474395752 0.456382691860199
vt 0.4479188323020935 0.5833333730697632
vt 0.06329198181629181 0.5833333134651184
vt 0.07292377203702927 2.220446049250313e-16
vt 0.09386826306581497 0.8736920356750488
vt 0.011209871619939804 0.3553864657878876
vt 0.012273932807147503 2.220446049250313e-16
vt 0.8061837553977966 2.220446049250313e-16
vt 0.19747373461723328 0.9166666269302368
vt 0.9861474633216858 0.35538649559020996
vt 0.4966185688972473 0.6217550039291382
vt 0.2141839861869812 0.4166666269302368
vt 0.6871558427810669 0.3333333432674408
vt 0.3775104284286499 0.8333333730697632
vt 0.8851516246795654 0.6666666865348816
vt 0.11484859883785248 0.6666666269302368
vt 0.7864880561828613 0.6904227137565613
vt 0.8727189898490906 0.9166666865348816
vt 0.3587806522846222 0.44543275237083435
vt 0.13541096448898315 0.5833333134651184
vt 0.3977881073951721 0.9721537828445435
vt 0.8645892143249512 0.4166666865348816
vt 0.4534672498703003 0.8800951242446899
vt 0.44791877269744873 0.4166666567325592
vt 0.5209528207778931 1.0
vt 0.11484859883785248 0.3333333134651184
vt 0.21461474895477295 0.04417235404253006
vt 0.4092355966567993 2.220446049250313e-16
vt 0.7885580658912659 0.30233460664749146
vt 1.0 0.0833333358168602
vt 0.055655501782894135 0.1666666716337204
vt 0.5427655577659607 0.0833333358168602
vt 0.37639373540878296 0.1299261599779129
vt 0.2147127240896225 0.5430925488471985
vt 0.7858161926269531 0.5833333134651184
vt 0.8050730228424072 0.1666666567325592
vt 0.785474419593811 0.9166666269302368
vt 0.3061833381652832 1.0
vt 0.21340122818946838 0.6919295787811279
vt 0.5074326992034912 0.5
vt 0.1337706595659256 0.049423545598983765
vt 0.011209874413907528 0.6446135640144348
vt 0.9861474633216858 0.64461350440979
vt 0.9186220169067383 0.75
vt 1.0 0.75
vt 1.0 0.5
vt 0.03124580904841423 0.5
vt 0.5191507339477539 0.75
vt 0.5672135949134827 0.4575825333595276
vt 0.9760240316390991 0.03708485886454582
vt 0.544907808303833 0.1666666716337204
vt 0.7841670513153076 0.0833333283662796
vt 0.02086789160966873 0.9166666269302368
vt 0.07292377203702927 1.0
vt 0.9190168976783752 0.8333333730697632
vt 0.7239298820495605 1.0
vt 0.9167477488517761 2.220446049250313e-16
vt 0.012273932807147503 1.0
vt 0.9523048400878906 0.45147478580474854
vt 0.28493839502334595 0.4563823640346527
vt 0.9892927408218384 0.8333333730697632
vt 0.1432299017906189 1.0
vt 0.6332944631576538 0.5833333134651184
vt 0.14291346073150635 0.4466668665409088
vt 0.30688226222991943 0.6666667461395264
vt 0.6360146999359131 0.4609343409538269
vt 0.2915143370628357 0.21536271274089813
vt 0.6853927373886108 0.6666666865348816
vt 0.9922987222671509 1.0
vt 0.8851516246795654 0.3333333432674408
vt 0.19323235750198364 0.1666666865348816
vt 0.6427662968635559 1.0
vt 0.21390044689178467 1.0
vt 0.5209528207778931 2.220446049250313e-16
vt 0.07156394422054291 0.75
vt 8.881784197001252e-16 0.25
vt 0.6734299659729004 0.25
vt 0.6734302043914795 0.75
vt 0.7090631723403931 0.8787384629249573
vt 0.3061833381652832 2.220446049250313e-16
vt 0.8570868372917175 0.5533334612846375
vt 0.2919110655784607 0.7864518761634827
vt 0.6311284303665161 0.13037526607513428
vt 0.9461154341697693 0.5833333134651184
vt 0.7141928672790527 0.4166666865348816
vt 0.7150615453720093 0.5436177253723145
vt 0.21351219713687897 0.3095780611038208
vt 0.4166133999824524 0.5
vt 0.8061837553977966 1.0
vt 0.2852253317832947 0.5833333134651184
vt 0.8048560619354248 0.8333332538604736
vt 0.7239298820495605 2.220446049250313e-16
vt 0.9167477488517761 1.0
vt 0.708702802658081 0.12322711944580078

f 33/12/69 62/73/46 67/36/27
f 85/24/96 42/13/97 64/23/61
f 72/65/50 33/12/69 67/36/27
f 44/74/91 72/65/50 64/23/61
f 44/74/91 33/12/69 72/65/50
f 33/12/69 36/103/66 62/73/46
f 47/108/54 31/76/23 41/57/18
f 29/102/90 42/13/97 85/24/96
f 45/93/29 36/103/66 33/12/69
f 29/102/90 95/38/26 42/13/97
f 5/104/73 73/97/94 86/7/56
f 73/17/94 18/119/82 47/108/54
f 74/91/89 19/111/21 39/88/76
f 19/111/21 45/93/29 39/88/76
f 95/38/26 88/110/9 74/91/89
f 5/104/73 69/81/8 73/97/94
f 69/117/8 18/119/82 73/17/94
f 29/102/90 70/54/80 95/38/26
f 76/107/34 48/64/10 9/90/22
f 40/5/48 93/112/13 21/92/44
f 5/104/73 59/116/68 77/62/87
f 88/110/9 66/26/55 19/111/21
f 12/115/5 57/59/70 1/85/67
f 45/93/29 97/42/41 36/103/66
f 14/4/19 53/52/31 94/105/93
f 58/39/42 28/46/92 30/19/59
f 46/27/15 43/3/33 51/21/35
f 28/53/92 26/8/88 6/58/78
f 49/22/17 87/49/25 50/44/49
f 43/3/33 61/48/45 58/39/42
f 26/8/88 49/22/17 6/58/78
f 62/73/46 61/48/45 43/3/33
f 26/8/88 85/24/96 49/22/17
f 72/65/50 46/27/15 96/113/74
f 87/49/25 72/65/50 96/113/74
f 72/65/50 67/36/27 46/27/15
f 64/23/61 72/65/50 87/49/25
f 75/106/58 32/60/85 66/26/55
f 60/43/53 80/114/16 77/62/87
f 80/33/16 90/16/72 16/77/86
f 83/69/95 91/80/47 59/116/68
f 24/18/30 82/11/51 71/61/63
f 25/15/2 15/109/83 75/106/58
f 15/109/83 65/40/79 75/106/58
f 78/95/64 8/84/43 79/47/32
f 8/84/43 25/15/2 79/47/32
f 91/80/47 11/9/4 60/43/53
f 11/9/4 7/118/37 60/43/53
f 7/82/37 27/75/40 90/16/72
f 27/75/40 24/18/30 90/16/72
f 4/68/11 83/69/95 65/40/79
f 82/11/51 84/35/57 78/95/64
f 83/69/95 17/86/81 91/80/47
f 11/9/4 27/94/40 7/118/37
f 34/25/77 82/11/51 24/18/30
f 4/68/11 35/70/7 83/69/95
f 37/55/20 34/25/77 27/75/40
f 63/72/1 89/28/39 4/67/11
f 23/14/24 63/72/1 84/31/57
f 89/28/39 68/41/52 4/67/11
f 35/100/7 52/30/36 17/2/81
f 52/30/36 11/78/4 17/2/81
f 10/51/65 23/14/24 84/31/57
f 23/14/24 89/28/39 63/72/1
f 52/30/36 20/87/3 55/79/84
f 22/89/38 92/45/28 23/14/24
f 20/66/3 38/96/14 34/56/77
f 68/41/52 48/64/10 35/100/7
f 48/64/10 2/1/12 35/100/7
f 38/96/14 93/112/13 13/6/62
f 93/112/13 10/51/65 13/6/62
f 22/89/38 57/59/70 92/45/28
f 3/34/6 53/98/31 20/87/3
f 53/52/31 38/96/14 20/66/3
f 42/13/97 44/74/91 64/23/61
f 81/10/60 62/73/46 36/103/66 86/7/56
f 73/97/94 56/50/75 81/10/60 86/7/56
f 41/57/18 56/99/75 73/17/94 47/108/54
f 29/102/90 85/24/96 31/76/23 47/108/54
f 80/114/16 69/81/8 5/104/73 77/62/87
f 42/13/97 74/91/89 44/74/91
f 39/88/76 45/93/29 33/12/69
f 42/13/97 95/38/26 74/91/89
f 36/103/66 5/104/73 86/7/56
f 47/108/54 18/119/82 29/102/90
f 88/110/9 19/111/21 74/91/89
f 97/42/41 45/93/29 19/111/21 32/60/85
f 3/34/6 30/19/59 94/63/93 53/98/31
f 70/54/80 29/102/90 18/119/82 71/61/63
f 48/64/10 57/59/70 12/115/5 9/90/22
f 2/1/12 76/107/34 30/19/59 3/34/6
f 19/111/21 66/26/55 32/60/85
f 21/92/44 93/112/13 38/96/14
f 59/116/68 5/104/73 36/103/66 97/42/41
f 18/119/82 16/77/86 71/61/63
f 53/52/31 14/4/19 21/92/44 38/96/14
f 1/85/67 57/59/70 54/37/71
f 66/26/55 88/110/9 95/38/26 70/54/80
f 16/77/86 18/119/82 69/117/8 80/33/16
f 76/107/34 2/1/12 48/64/10
f 93/112/13 40/5/48 1/85/67 54/37/71
f 12/115/5 1/85/67 50/44/49 51/21/35
f 65/40/79 97/42/41 32/60/85 75/106/58
f 12/115/5 51/21/35 9/90/22
f 76/107/34 58/39/42 30/19/59
f 14/4/19 6/58/78 21/92/44
f 40/5/48 50/44/49 1/85/67
f 9/90/22 43/3/33 76/107/34
f 76/107/34 43/3/33 58/39/42
f 30/19/59 28/46/92 94/63/93
f 94/105/93 6/58/78 14/4/19
f 6/58/78 49/22/17 21/92/44
f 21/92/44 49/22/17 40/5/48
f 50/44/49 96/113/74 51/21/35
f 51/21/35 43/3/33 9/90/22
f 94/105/93 28/53/92 6/58/78
f 40/5/48 49/22/17 50/44/49
f 96/113/74 46/27/15 51/21/35
f 58/39/42 61/48/45 28/46/92
f 50/44/49 87/49/25 96/113/74
f 46/27/15 67/36/27 43/3/33
f 67/36/27 62/73/46 43/3/33
f 61/48/45 56/50/75 28/46/92
f 28/53/92 56/99/75 26/8/88
f 49/22/17 85/24/96 64/23/61
f 49/22/17 64/23/61 87/49/25
f 62/73/46 81/10/60 61/48/45
f 39/88/76 33/12/69 44/74/91 74/91/89
f 61/48/45 81/10/60 56/50/75
f 56/99/75 41/57/18 26/8/88
f 41/57/18 31/76/23 26/8/88
f 26/8/88 31/76/23 85/24/96
f 66/26/55 70/54/80 78/95/64 79/47/32
f 59/116/68 60/43/53 77/62/87
f 16/77/86 90/16/72 71/61/63
f 4/68/11 15/109/83 8/84/43 63/71/1
f 66/26/55 79/47/32 75/106/58
f 65/40/79 83/69/95 97/42/41
f 97/42/41 83/69/95 59/116/68
f 71/61/63 82/11/51 70/54/80
f 70/54/80 82/11/51 78/95/64
f 59/116/68 91/80/47 60/43/53
f 60/43/53 7/118/37 80/114/16
f 80/33/16 7/82/37 90/16/72
f 90/16/72 24/18/30 71/61/63
f 79/47/32 25/15/2 75/106/58
f 25/15/2 8/84/43 15/109/83
f 15/109/83 4/68/11 65/40/79
f 78/95/64 84/35/57 8/84/43
f 91/80/47 17/86/81 11/9/4
f 27/75/40 34/25/77 24/18/30
f 68/41/52 92/45/28 57/59/70 48/64/10
f 83/69/95 35/70/7 17/86/81
f 84/35/57 63/71/1 8/84/43
f 34/56/77 13/6/62 82/101/51
f 82/101/51 13/6/62 84/31/57
f 11/78/4 55/79/84 27/83/40
f 27/32/40 55/29/84 37/20/20
f 4/67/11 68/41/52 35/100/7
f 11/78/4 52/30/36 55/79/84
f 13/6/62 10/51/65 84/31/57
f 55/29/84 20/66/3 37/20/20
f 37/20/20 20/66/3 34/56/77
f 23/14/24 92/45/28 89/28/39
f 89/28/39 92/45/28 68/41/52
f 10/51/65 22/89/38 23/14/24
f 35/100/7 2/1/12 52/30/36
f 2/1/12 3/34/6 52/30/36
f 52/30/36 3/34/6 20/87/3
f 34/56/77 38/96/14 13/6/62
f 54/37/71 22/89/38 10/51/65 93/112/13
f 54/37/71 57/59/70 22/89/38
