v 0.037089623510837555 0.007891067303717136 -0.22015678882598877
v -0.07631946355104446 0.021691609174013138 -0.18667903542518616
v -0.05751761421561241 0.01852898672223091 0.16014783084392548
v 0.012336388230323792 0.024956101551651955 0.20247085392475128
v -0.04452851414680481 -0.00594030087813735 0.1615099161863327
v 0.09259418398141861 -0.025040457025170326 0.1483250856399536
v 0.07434942573308945 0.00012827114551328123 0.11229398101568222
v -0.06187736243009567 -0.02157723717391491 0.16379745304584503
v -0.09134399145841599 0.02505112625658512 0.12602433562278748
v -0.07663573324680328 -0.01261937152594328 0.12188141793012619
v 0.1230943575501442 0.0066846259869635105 -0.12763281166553497
v -0.05576387792825699 6.369994309807225e-08 0.21308283507823944
v -0.04325657710433006 0.0215771421790123 -0.1776384860277176
v 0.07631941139698029 0.021691642701625824 -0.18667912483215332
v -0.0913659930229187 0.012302184477448463 0.1822800189256668
v -0.024599332362413406 -1.047085049776797e-07 -0.22366191446781158
v -0.0013025517109781504 -0.020014286041259766 -0.2173134684562683
v -0.11818145960569382 -0.012919467873871326 0.13548581302165985
v 0.11985591053962708 -0.012351560406386852 0.12741512060165405
v -0.0013025528751313686 0.020014090463519096 -0.2173134684562683
v 0.005910083185881376 7.663219747655603e-08 0.22616124153137207
v 0.09694334864616394 0.008197221904993057 -0.17936700582504272
v -0.07508368045091629 -0.012652733363211155 0.19785162806510925
v -0.09113022685050964 -0.024973949417471886 0.12640847265720367
v 0.01008923165500164 5.6904170264715503e-08 0.17662446200847626
v -0.10853969305753708 0.021578587591648102 0.1391560137271881
v -0.06221289932727814 -7.416385017222638e-08 -0.14326795935630798
v -0.07426070421934128 -0.006785801611840725 -0.11453978717327118
v -0.012000960297882557 -0.021545367315411568 -0.18976160883903503
v 0.11846490949392319 -0.012601390480995178 -0.13484765589237213
v 0.05710883438587189 -0.01262054406106472 -0.15555192530155182
v -0.05152354761958122 -0.02500010095536709 -0.18924202024936676
v -0.055168844759464264 0.024999909102916718 -0.1863287091255188
v 0.044246360659599304 0.019357632845640182 0.20966355502605438
v -0.06358469277620316 0.006830578204244375 -0.20916911959648132
v 0.07986822724342346 -0.01804274506866932 0.12171828746795654
v -0.05668847635388374 0.024874001741409302 0.19164526462554932
v 0.08045715093612671 0.017869938164949417 -0.11699171364307404
v 0.12273351848125458 0.00698962202295661 0.12783269584178925
v 0.09562218189239502 0.006374668795615435 0.18234841525554657
v -0.10775101184844971 -0.021752001717686653 0.14015217125415802
v -0.10484501719474792 0.024953842163085938 -0.12217497825622559
v -0.09222736954689026 -0.012571149505674839 -0.18088114261627197
v 0.052163541316986084 -0.00736710149794817 0.21389935910701752
v 0.07426074147224426 -0.006785782985389233 -0.11453977972269058
v 0.061048898845911026 0.018500415608286858 0.15597444772720337
v 0.08441998064517975 -0.021706722676753998 -0.13045360147953033
v -0.047418754547834396 -0.012328222393989563 -0.21297113597393036
v -0.02463463693857193 -8.391184280753805e-08 -0.17256887257099152
v 0.062213122844696045 -7.955285497018849e-08 -0.1432676613330841
v 0.0913662239909172 -0.012302094139158726 0.18227964639663696
v -0.12283475697040558 0.00725196860730648 -0.1272958666086197
v -0.10567210614681244 -0.02489571087062359 -0.1199272945523262
v -0.057108715176582336 -0.012620571069419384 -0.1555519998073578
v -0.08382739871740341 0.021645495668053627 -0.13139501214027405
v 0.09208931028842926 0.025000074878335 0.1489754021167755
v 0.040777698159217834 -0.01290571317076683 -0.21581682562828064
v 0.045339178293943405 -0.021744903177022934 0.20488926768302917
v 0.05956881865859032 5.477667386344365e-08 0.14760969579219818
v -0.01546628400683403 0.01243659295141697 -0.1777547150850296
v 0.021080665290355682 0.012350448407232761 0.17675650119781494
v -0.0017199538415297866 -0.02499551698565483 0.20743799209594727
v -0.015466267243027687 -0.012436751276254654 -0.1777547150850296
v -0.07631943374872208 -0.021691806614398956 -0.18667905032634735
v 0.026984339579939842 0.006195446476340294 -0.17112860083580017
v -0.0013268501497805119 0.0192100889980793 0.2180354744195938
v -0.009412907063961029 -0.01290557999163866 0.22242465615272522
v 0.044197890907526016 -0.025000087916851044 -0.1945967823266983
v -0.08166999369859695 -0.02141064591705799 -0.13979381322860718
v 0.07038145512342453 0.021607160568237305 -0.15400631725788116
v -0.10520988702774048 3.512984392273211e-08 0.17029978334903717
v -0.05668846517801285 -0.024873897433280945 0.19164526462554932
v 0.07631941884756088 -0.021691787987947464 -0.18667913973331451
v 0.10484503209590912 -0.02495396137237549 -0.12217510491609573
v -0.07182671874761581 2.619636418899063e-08 0.12705431878566742
v 0.04025265946984291 0.024999916553497314 -0.19717828929424286
v 0.02470109984278679 0.021599609404802322 0.18539702892303467
v 0.05710892006754875 0.012620484456419945 -0.15555186569690704
v 0.10689407587051392 -0.021879147738218307 0.1444336622953415
v -0.03937704861164093 0.01318051666021347 0.21599529683589935
v 0.10484500974416733 0.02495388127863407 -0.12217510491609573
v -0.09791143983602524 0.007802458014339209 -0.17856207489967346
v 0.07986406981945038 0.01804143749177456 0.12172611802816391
v 0.10687243193387985 0.02196122519671917 0.14425379037857056
v 0.08102784305810928 -0.007037601433694363 -0.19631917774677277
v -0.07698160409927368 0.012177728116512299 -0.11707526445388794
v -0.02460438944399357 -0.018156088888645172 0.1786244660615921
v -0.05710871145129204 0.012620413675904274 -0.15555201470851898
v 0.038118429481983185 -0.018788911402225494 -0.17481854557991028
v -0.11985591799020767 -0.01235167682170868 -0.12741443514823914
v 0.018999185413122177 0.0214548297226429 -0.18736742436885834
v -0.024604395031929016 0.01815619319677353 0.1786244660615921
v 0.02108066715300083 -0.01235032919794321 0.17675650119781494
v -0.12314002215862274 0.007475501392036676 0.12496905028820038
v -0.07660192251205444 0.012802175246179104 0.12219906598329544
v 0.06104893982410431 -0.018500305712223053 0.15597443282604218
v 0.024701083078980446 -0.021599480882287025 0.18539702892303467

vn -0.3028046488761902 -0.7626270055770874 0.5715506672859192
vn -0.3878597319126129 -0.8001953363418579 -0.45741140842437744
vn 0.8507339954376221 0.04531998559832573 0.5236060619354248
vn -0.47230446338653564 -0.6900234818458557 -0.5484176278114319
vn 0.5551316738128662 -0.1832026094198227 -0.8113040328025818
vn 0.9263588190078735 0.04339732229709625 -0.3740653693675995
vn 0.8359935283660889 -0.47965940833091736 -0.26645711064338684
vn 0.6282845735549927 -0.1910458654165268 -0.7541428804397583
vn 0.01037629321217537 -0.7118747234344482 -0.7022004127502441
vn -0.2685628831386566 -0.5238196849822998 -0.808374285697937
vn -0.1673329919576645 0.03094576857984066 -0.9853816032409668
vn -0.3102511763572693 -0.9481490254402161 -0.06863612681627274
vn -0.8707236051559448 -0.4385814964771271 0.2223578542470932
vn -0.4944913983345032 -0.8399914503097534 0.2232734113931656
vn -0.7025055885314941 -0.45701467990875244 -0.5454878211021423
vn -0.669148862361908 0.7246314883232117 0.16464735567569733
vn -0.5604419112205505 0.7982726693153381 0.22046571969985962
vn 0.25000762939453125 -0.9670094847679138 -0.048707541078329086
vn -0.2603839337825775 0.49537643790245056 0.8287301063537598
vn 0.5939512252807617 -0.7624133825302124 0.25672170519828796
vn 0.08175908774137497 0.009552293457090855 0.9965819120407104
vn -0.016144290566444397 0.712546169757843 0.7014068961143494
vn -0.1191442608833313 -0.9581286311149597 0.2603228986263275
vn 0.2154301553964615 -0.8373363614082336 0.5023956894874573
vn -0.3320108652114868 -0.5268410444259644 -0.7824030518531799
vn 0.7226477861404419 0.3021027147769928 0.6216620206832886
vn 0.4189886152744293 -0.8705710172653198 0.25794243812561035
vn -0.9311807751655579 0.2933133840560913 -0.21637623012065887
vn 0.07739493995904922 -0.9679250717163086 -0.2388683706521988
vn 0.5247963070869446 0.7209692597389221 -0.4524979293346405
vn 0.2638630270957947 -0.52110356092453 -0.8116397857666016
vn 0.8415784239768982 0.5155797004699707 0.16089358925819397
vn 0.29752495884895325 0.6926481127738953 0.6570024490356445
vn -0.7599108815193176 -3.0518509447574615e-05 -0.6499832272529602
vn -0.694753885269165 -0.2782982885837555 0.6631977558135986
vn 0.16437269747257233 -0.8196966648101807 -0.5486312508583069
vn -0.5618152618408203 -0.45698416233062744 0.6895657181739807
vn 0.009949034079909325 0.9945982098579407 0.1030915230512619
vn 0.5725577473640442 0.7848750352859497 0.23691518604755402
vn 0.6401562690734863 -0.5118259191513062 0.5728934407234192
vn 0.634907066822052 0.45674002170562744 0.6230964064598083
vn 0.07019257545471191 -0.9952391386032104 0.06723227351903915
vn -0.6247749328613281 0.4862514138221741 0.6108890175819397
vn -0.4588152766227722 0.7206640839576721 -0.5196691751480103
vn 0.20657978951931 -0.9765312671661377 -0.06060975790023804
vn 0.286782443523407 0.9560227990150452 -0.06109805405139923
vn 0.40708640217781067 -0.8163396120071411 -0.40964993834495544
vn -0.7889950275421143 0.29676198959350586 -0.5379497408866882
vn -0.43287453055381775 0.8369701504707336 0.334727019071579
vn 0.37656790018081665 0.9094516038894653 0.17621387541294098
vn 0.8720663785934448 -0.461134672164917 0.16370128095149994
vn -0.4363536536693573 -0.8784753084182739 0.19449445605278015
vn 0.19339579343795776 0.886623740196228 0.4200872778892517
vn -0.8422192931175232 0.06750693917274475 0.5348368883132935
vn 0.4112369120121002 -0.20404675602912903 0.8883633017539978
vn -0.029725028201937675 0.9937437176704407 -0.10745567083358765
vn 0.7821893692016602 0.2844325006008148 -0.5543076992034912
vn -0.9897457957267761 -0.002868739888072014 -0.1426740288734436
vn 0.12384410947561264 0.4523758590221405 0.8831751346588135
vn -0.05374309420585632 -0.9845576286315918 -0.1664174348115921
vn 0.40003663301467896 -0.860927164554596 -0.31424909830093384
vn 0.8140507340431213 -0.5432599782943726 -0.20526748895645142
vn -0.8389843702316284 -0.04516739398241043 0.5422528982162476
vn 0.40098270773887634 0.7810602188110352 -0.47865229845046997
vn -0.2685628831386566 0.5238196849822998 -0.808374285697937
vn -0.47379985451698303 0.2555925250053406 -0.8427075743675232
vn 0.8346201777458191 0.5134739279747009 -0.1993468999862671
vn 0.34412670135498047 0.01663258671760559 0.938749372959137
vn -0.01815851405262947 0.7360454201698303 -0.6766563653945923
vn 0.06744590401649475 0.9943235516548157 0.08200323581695557
vn -0.9603259563446045 -0.2139652669429779 0.17871639132499695
vn -0.9500716924667358 0.2847377061843872 0.1274758130311966
vn -0.843867301940918 -0.4929349720478058 -0.21176794171333313
vn 0.11420026421546936 0.9378032684326172 -0.32779932022094727
vn -0.16809594631195068 0.9508346915245056 0.2600176930427551
vn 0.14627522230148315 -0.5240333080291748 0.8390148878097534
vn -0.3422650694847107 0.20218512415885925 0.9175695180892944
vn 0.05682546645402908 -0.6836756467819214 0.7275307178497314
vn -0.20184941589832306 0.8539689183235168 -0.47953733801841736
vn -0.1194799616932869 -0.4756004512310028 0.8714865446090698
vn 0.6112552285194397 -0.33903011679649353 0.7151097059249878
vn 0.9310892224311829 0.31254005432128906 -0.18793298304080963
vn 0.1816461682319641 0.981597363948822 -0.05871761217713356
vn -0.12512588500976562 0.0016785180196166039 -0.9921262264251709
vn -0.02630695514380932 -0.9553819298744202 0.2941679060459137
vn -0.6423535943031311 0.7518845200538635 -0.14835047721862793
vn -0.557298481464386 0.5356303453445435 0.634388267993927
vn -0.05264442786574364 0.860835611820221 0.5061189532279968
vn 0.9475691914558411 -0.2779625952243805 0.1575060337781906
vn -0.6198614239692688 -0.7711722254753113 -0.14499343931674957
vn 0.15503403544425964 0.7570116519927979 -0.634693443775177
vn 0.26630452275276184 0.317850261926651 -0.9099704027175903
vn -0.23126927018165588 -0.8215888142585754 -0.521012008190155
vn -0.39210182428359985 0.8129215240478516 -0.430524617433548
vn -0.44102299213409424 -0.02932828664779663 0.8970000147819519
vn 0.9505905508995056 0.251503050327301 0.1819513589143753
vn -0.33777886629104614 0.9377422332763672 -0.08053834736347198

vt 0.9523048400878906 0.5485252141952515
vt 0.9464881420135498 0.9680408835411072
vt 0.6721594333648682 0.75
vt 0.1148485615849495 0.6666666269302368
vt 0.9300158023834229 0.25
vt 0.1272806078195572 0.0833333283662796
vt 0.05188414826989174 1.0
vt 0.5636188387870789 0.6338975429534912
vt 0.3763936758041382 0.8700737953186035
vt 0.564853847026825 0.3333333730697632
vt 0.21144209802150726 0.697664737701416
vt 0.2949879765510559 0.9166666269302368
vt 0.6427662968635559 2.220446049250313e-16
vt 0.7094000577926636 0.8801432847976685
vt 0.06329197436571121 0.4166666269302368
vt 0.986147403717041 0.64461350440979
vt 0.8467408418655396 2.220446049250313e-16
vt 0.011209864169359207 0.35538649559020996
vt 0.8540738224983215 0.8333333134651184
vt 0.34376049041748047 0.5
vt 0.2150646299123764 0.5436171293258667
vt 0.8851515650749207 0.6666666865348816
vt 0.030488114804029465 0.1666666567325592
vt 0.031245814636349678 0.5
vt 0.17762640118598938 0.1666666567325592
vt 0.9861474633216858 0.35538649559020996
vt 0.1532505750656128 2.220446049250313e-16
vt 0.5672136545181274 0.4575825035572052
vt 0.42709219455718994 0.5
vt 0.6871558427810669 0.3333333432674408
vt 0.2247028648853302 1.0
vt 0.7850643396377563 0.5435652732849121
vt 0.1148485392332077 0.3333333730697632
vt 0.9254981279373169 0.13424484431743622
vt 0.9407402276992798 2.220446049250313e-16
vt 0.5427655577659607 0.9166666269302368
vt 0.011209869757294655 0.64461350440979
vt 0.9353210926055908 0.75
vt 0.4479188024997711 0.5833333730697632
vt 0.4534671902656555 0.11990487575531006
vt 0.9461154341697693 0.4166666567325592
vt 0.21943116188049316 0.0431651696562767
vt 0.5209528207778931 1.0
vt 1.0 0.0833333358168602
vt 0.8877884745597839 0.4637439250946045
vt 0.8727186322212219 0.9166666269302368
vt 0.19296327233314514 0.8333333134651184
vt 0.48777326941490173 0.4166666865348816
vt 0.5427655577659607 0.0833333358168602
vt 0.4050300121307373 0.3068796992301941
vt 0.6360145211219788 0.5390655994415283
vt 0.09047751873731613 0.75
vt 0.7087028622627258 0.12322704493999481
vt 0.5074326992034912 0.5
vt 0.3977881669998169 0.0278462003916502
vt 0.714192807674408 0.4166666865348816
vt 0.03133808448910713 0.9166667461395264
vt 0.6734300851821899 0.25
vt 0.21351218223571777 0.30957797169685364
vt 1.0 0.5
vt 0.5191507339477539 0.75
vt 0.9768009185791016 0.1666666567325592
vt 0.7760710716247559 1.0
vt 0.544907808303833 0.1666666716337204
vt 0.4534672200679779 0.8800951242446899
vt 0.4092356264591217 1.0
vt 1.0 2.220446049250313e-16
vt 0.3073410391807556 1.0
vt 0.7811339497566223 0.877730131149292
vt 0.7239298820495605 1.0
vt 0.8727191686630249 0.0833333432674408
vt 0.7886037826538086 0.6995408535003662
vt 0.7954535484313965 0.4166666865348816
vt 1.0 0.9166666865348816
vt 0.08357883989810944 0.539095401763916
vt 0.6876421570777893 0.6666667461395264
vt 0.7147103548049927 0.5430931448936462
vt 0.29138511419296265 0.7850282788276672
vt 0.1272805780172348 0.9166667461395264
vt 0.2943480312824249 0.0833333358168602
vt 0.8583738803863525 0.5575277805328369
vt 0.3775104582309723 0.1666666716337204
vt 0.4966185688972473 0.6217548847198486
vt 0.7885580062866211 0.30233463644981384
vt 0.05188414826989174 2.220446049250313e-16
vt 0.08098257333040237 0.8333333134651184
vt 0.2920515537261963 0.21385762095451355
vt 0.2141839563846588 0.4166666269302368
vt 0.39592140913009644 0.4166666865348816
vt 0.6311284303665161 0.8696247935295105
vt 0.8851516246795654 0.3333333432674408
vt 0.6427662968635559 1.0
vt 0.5449078679084778 0.8333332538604736
vt 0.30490463972091675 0.6666666865348816
vt 0.5209528207778931 2.220446049250313e-16
vt 0.8050730228424072 0.1666666716337204
vt 0.8467408418655396 1.0
vt 8.881784197001252e-16 0.25
vt 0.14291343092918396 0.5533331036567688
vt 0.4050300121307373 0.6931204199790955
vt 0.30661827325820923 0.3333333134651184
vt 0.03133806213736534 0.0833333432674408
vt 0.6311284303665161 0.13037526607513428
vt 0.08318832516670227 0.25
vt 0.6332944631576538 0.4166666865348816
vt 0.7802013754844666 0.042513951659202576
vt 0.2152480036020279 0.9166666269302368
vt 0.1532505750656128 1.0
vt 0.49884843826293945 0.294541597366333
vt 0.29649925231933594 0.4166666269302368
vt 0.008563132956624031 0.75
vt 0.010706971399486065 0.8333333134651184
vt 1.0 1.0
vt 0.9628103971481323 0.8333333134651184
vt 0.13541091978549957 0.4166666567325592
vt 0.3073410391807556 2.220446049250313e-16
vt 0.2812100946903229 0.5513508319854736
vt 0.7239298820495605 2.220446049250313e-16
vt 0.36670616269111633 0.5833333134651184

f 21/54/21 66/83/22 80/39/19
f 67/48/80 21/54/21 12/29/95
f 21/54/21 80/39/19 12/29/95
f 67/48/80 12/29/95 23/89/37
f 34/8/33 4/61/38 66/83/22
f 87/40/36 62/109/85 72/50/23
f 87/40/36 72/50/23 8/82/61
f 80/39/19 37/100/75 15/119/43
f 37/100/75 92/65/91 3/9/30
f 4/61/38 92/65/91 37/100/75
f 92/65/91 5/66/5 3/9/30
f 5/55/5 8/82/61 10/80/62
f 18/110/13 71/20/63 94/117/72
f 10/80/62 28/42/89 75/116/6
f 41/101/14 53/59/12 24/87/45
f 9/78/83 42/11/97 26/94/17
f 86/107/32 28/31/89 27/108/3
f 55/47/50 86/107/32 88/79/41
f 42/11/97 55/47/50 33/52/56
f 28/42/89 69/25/27 54/6/81
f 69/25/27 53/59/12 32/104/60
f 53/59/12 64/33/2 32/104/60
f 2/4/94 42/11/97 33/52/56
f 55/47/50 88/79/41 13/86/53
f 88/79/41 27/108/3 49/7/68
f 27/27/3 54/6/81 49/85/68
f 43/115/15 82/99/48 35/75/66
f 48/15/25 35/75/66 16/24/11
f 67/48/80 23/89/37 72/50/23 62/109/85
f 35/75/66 2/4/94 20/37/69
f 16/24/11 35/75/66 20/37/69
f 20/37/69 33/52/56 76/111/74
f 13/86/53 60/57/59 91/112/88
f 64/33/2 48/15/25 17/18/9
f 48/15/25 16/24/11 17/18/9
f 91/114/88 60/74/59 65/2/77
f 63/44/76 29/62/78 89/34/1
f 20/16/69 76/38/74 14/22/64
f 68/5/29 17/26/9 73/91/47
f 73/91/47 57/41/31 85/45/8
f 85/45/8 1/1/92 22/81/57
f 1/1/92 14/22/64 22/81/57
f 76/38/74 91/114/88 70/19/49
f 91/114/88 78/46/87 70/19/49
f 91/114/88 65/2/77 78/46/87
f 65/35/77 89/34/1 31/71/35
f 89/34/1 68/5/29 47/96/52
f 73/91/47 30/73/7 74/84/18
f 73/91/47 85/45/8 30/73/7
f 78/46/87 50/97/54 38/69/16
f 50/17/54 31/71/35 45/106/71
f 7/118/58 45/106/71 36/53/90
f 6/58/42 74/84/18 79/30/20
f 84/76/39 81/72/46 56/3/70
f 83/14/86 7/70/58 59/92/34
f 7/118/58 36/53/90 59/13/34
f 79/30/20 19/56/51 51/105/40
f 39/77/96 84/76/39 40/51/26
f 83/14/86 59/92/34 46/90/44
f 59/13/34 36/53/90 96/103/4
f 84/76/39 56/3/70 34/8/33
f 34/8/33 56/3/70 4/61/38
f 77/93/79 46/90/44 61/36/65
f 96/103/4 97/64/93 93/49/10
f 6/58/42 58/10/24 62/109/85
f 6/58/42 79/30/20 58/10/24
f 44/28/55 40/51/26 34/8/33
f 44/28/55 34/8/33 21/54/21
f 44/28/55 21/54/21 67/48/80
f 21/54/21 34/8/33 66/83/22
f 86/107/32 55/47/50 9/78/83 95/12/67
f 80/39/19 66/83/22 37/100/75
f 66/83/22 4/61/38 37/100/75
f 4/61/38 77/93/79 92/65/91
f 92/65/91 77/93/79 61/36/65
f 92/65/91 61/36/65 25/43/84
f 25/95/84 93/49/10 87/40/36
f 93/49/10 97/64/93 87/40/36
f 87/40/36 97/64/93 62/109/85
f 23/89/37 12/29/95 71/20/63
f 71/20/63 12/29/95 15/119/43
f 12/29/95 80/39/19 15/119/43
f 92/65/91 25/43/84 5/66/5
f 5/55/5 25/95/84 87/40/36
f 5/55/5 87/40/36 8/82/61
f 8/82/61 72/50/23 24/87/45
f 24/87/45 72/50/23 41/101/14
f 41/101/14 23/89/37 18/110/13
f 41/101/14 72/50/23 23/89/37
f 18/110/13 23/89/37 71/20/63
f 15/119/43 37/100/75 26/94/17
f 26/94/17 37/100/75 9/78/83
f 9/78/83 37/100/75 3/9/30
f 3/9/30 5/66/5 75/68/6
f 95/12/67 3/9/30 75/68/6
f 75/116/6 5/55/5 10/80/62
f 10/80/62 8/82/61 24/87/45
f 71/20/63 15/119/43 94/117/72
f 94/117/72 15/119/43 26/94/17
f 9/78/83 3/9/30 95/12/67
f 28/31/89 86/107/32 95/12/67 75/68/6
f 69/25/27 28/42/89 10/80/62 24/87/45
f 53/59/12 41/101/14 18/110/13 90/88/73
f 24/87/45 53/59/12 69/25/27
f 90/88/73 18/110/13 94/117/72 52/21/28
f 52/21/28 94/117/72 26/94/17 42/11/97
f 90/88/73 43/115/15 64/33/2 53/59/12
f 9/78/83 55/47/50 42/11/97
f 88/79/41 86/107/32 27/108/3
f 27/27/3 28/42/89 54/6/81
f 82/99/48 43/115/15 90/88/73 52/21/28
f 2/4/94 82/99/48 52/21/28 42/11/97
f 91/112/88 76/111/74 33/52/56 13/86/53
f 33/52/56 55/47/50 13/86/53
f 35/75/66 82/99/48 2/4/94
f 13/86/53 88/79/41 60/57/59
f 60/57/59 88/79/41 49/7/68
f 49/85/68 54/6/81 63/102/76
f 63/102/76 54/6/81 29/23/78
f 54/6/81 69/25/27 29/23/78
f 29/23/78 69/25/27 32/104/60
f 64/33/2 43/115/15 48/15/25
f 48/15/25 43/115/15 35/75/66
f 20/37/69 2/4/94 33/52/56
f 1/1/92 57/41/31 17/26/9 16/60/11
f 32/104/60 64/33/2 17/18/9
f 63/44/76 89/34/1 65/35/77 49/67/68
f 1/1/92 16/60/11 20/16/69
f 60/74/59 49/113/68 65/2/77
f 14/22/64 81/72/46 11/32/82 22/81/57
f 29/23/78 32/104/60 68/98/29
f 68/98/29 32/104/60 17/18/9
f 73/91/47 17/26/9 57/41/31
f 1/1/92 20/16/69 14/22/64
f 89/34/1 29/62/78 68/5/29
f 57/41/31 1/1/92 85/45/8
f 78/46/87 65/2/77 50/97/54
f 50/17/54 65/35/77 31/71/35
f 31/71/35 89/34/1 47/96/52
f 47/96/52 68/5/29 74/84/18
f 45/106/71 31/71/35 47/96/52
f 74/84/18 68/5/29 73/91/47
f 30/73/7 22/81/57 11/32/82
f 30/73/7 85/45/8 22/81/57
f 45/63/71 7/70/58 83/14/86 38/69/16
f 14/22/64 76/38/74 81/72/46
f 81/72/46 76/38/74 70/19/49
f 70/19/49 78/46/87 38/69/16
f 38/69/16 50/97/54 45/63/71
f 81/72/46 70/19/49 38/69/16
f 74/84/18 6/58/42 36/53/90 47/96/52
f 36/53/90 45/106/71 47/96/52
f 30/73/7 19/56/51 79/30/20 74/84/18
f 11/32/82 39/77/96 19/56/51 30/73/7
f 11/32/82 81/72/46 84/76/39 39/77/96
f 81/72/46 38/69/16 83/14/86 56/3/70
f 40/51/26 51/105/40 19/56/51 39/77/96
f 56/3/70 83/14/86 46/90/44
f 96/103/4 36/53/90 6/58/42
f 77/93/79 4/61/38 56/3/70 46/90/44
f 40/51/26 84/76/39 34/8/33
f 59/92/34 25/43/84 61/36/65 46/90/44
f 93/49/10 25/95/84 59/13/34 96/103/4
f 6/58/42 62/109/85 97/64/93 96/103/4
f 58/10/24 51/105/40 44/28/55
f 58/10/24 79/30/20 51/105/40
f 51/105/40 40/51/26 44/28/55
f 58/10/24 44/28/55 67/48/80
f 62/109/85 58/10/24 67/48/80
