v 1.4545457363128662 0.0 -10.181818008422852
v 16.0 0.0 7.272727012634277
v 4.363636016845703 0.0 -16.0
v 7.2727274894714355 0.0 4.363636493682861
v 16.0 0.0 -1.4545457363128662
v -16.0 0.0 1.4545457363128662
v 13.090909004211426 0.0 4.363636016845703
v 4.363636493682861 0.0 -4.363636016845703
v 13.090909004211426 0.0 1.454545021057129
v 4.363636493682861 0.0 -7.272727012634277
v 4.363636493682861 0.0 -1.454545497894287
v -4.363636016845703 0.0 7.2727274894714355
v -4.363636016845703 0.0 13.090909004211426
v -16.0 0.0 -10.181818008422852
v -4.363636016845703 0.0 -1.454545259475708
v -7.272727012634277 0.0 1.454545497894287
v 1.4545457363128662 0.0 4.363636493682861
v 1.454545021057129 0.0 -16.0
v 10.181818008422852 0.0 -7.272727012634277
v -10.181818008422852 0.0 -10.181818008422852
v -13.090909004211426 0.0 -1.4545451402664185
v 7.272727012634277 0.0 -16.0
v 4.363636493682861 0.0 7.2727274894714355
v 4.363636493682861 0.0 13.090909004211426
v -16.0 0.0 4.363636493682861
v 7.2727274894714355 0.0 -7.272727012634277
v 7.2727274894714355 0.0 -1.454545497894287
v 13.090909004211426 0.0 -10.181818008422852
v -13.090909004211426 0.0 -10.181818008422852
v -13.090909004211426 0.0 -13.090909004211426
v 10.181818008422852 0.0 7.2727274894714355
v 10.181818008422852 0.0 10.181818008422852
v -10.181818008422852 0.0 4.363636493682861
v -10.181818008422852 0.0 10.181818008422852
v -7.272727012634277 0.0 -10.181818008422852
v 1.4545457363128662 0.0 -4.363636016845703
v 1.4545457363128662 0.0 -7.272727012634277
v 1.4545457363128662 0.0 -1.454545497894287
v 16.0 0.0 13.090909004211426
v 16.0 0.0 10.181818008422852
v 10.181818008422852 0.0 1.4545451402664185
v 7.2727274894714355 0.0 7.2727274894714355
v 7.2727274894714355 0.0 13.090909004211426
v 7.2727274894714355 0.0 10.181818008422852
v -13.090909004211426 0.0 4.363636493682861
v 13.090909004211426 0.0 7.272727012634277
v -4.363636016845703 0.0 16.0
v 13.090909004211426 0.0 -1.4545457363128662
v -16.0 0.0 -7.272727012634277
v -7.272727012634277 0.0 4.363636493682861
v 1.4545457363128662 0.0 7.2727274894714355
v 1.4545457363128662 0.0 13.090909004211426
v -1.454545021057129 0.0 -10.181818008422852
v 1.4545457363128662 0.0 10.181818008422852
v -1.454545021057129 0.0 -13.090909004211426
v 10.181818008422852 0.0 -4.363636016845703
v -10.181818008422852 0.0 -4.363636016845703
v -10.181818008422852 0.0 -7.272727012634277
v 4.363636493682861 0.0 16.0
v -16.0 0.0 7.2727274894714355
v -16.0 0.0 13.090909004211426
v 7.2727274894714355 0.0 -4.363636016845703
v -16.0 0.0 10.181818008422852
v -4.363636016845703 0.0 -13.090909004211426
v -1.454545021057129 0.0 -1.4545453786849976
v 13.090909004211426 0.0 -7.272727012634277
v -13.090909004211426 0.0 -7.272727012634277
v -7.2727274894714355 0.0 -16.0
v 10.181818008422852 0.0 16.0
v 10.181818008422852 0.0 13.090909004211426
v -10.181818008422852 0.0 7.2727274894714355
v -10.181818008422852 0.0 13.090909004211426
v 16.0 0.0 1.454545021057129
v -7.272727012634277 0.0 -4.363636016845703
v -7.272727012634277 0.0 -7.272727012634277
v -10.181818008422852 0.0 -1.454545259475708
v 4.363636493682861 0.0 1.454545259475708
v 16.0 0.0 16.0
v 7.2727274894714355 0.0 16.0
v 4.363636493682861 0.0 -13.090909004211426
v -4.363636016845703 0.0 1.454545497894287
v 10.181818008422852 0.0 -1.4545456171035767
v 13.090909004211426 0.0 13.090909004211426
v -13.090909004211426 0.0 7.2727274894714355
v 13.090909004211426 0.0 10.181818008422852
v -13.090909004211426 0.0 10.181818008422852
v -16.0 0.0 -1.454545021057129
v -16.0 0.0 -4.363636016845703
v 10.181818008422852 0.0 -16.0
v -7.272727012634277 0.0 7.2727274894714355
v -10.181818008422852 0.0 -16.0
v -7.272727012634277 0.0 13.090909004211426
v -7.272727012634277 0.0 10.181818008422852
v 1.4545457363128662 0.0 16.0
v -1.454545021057129 0.0 -7.272727012634277
v -7.272727012634277 0.0 -1.454545259475708
v 7.2727274894714355 0.0 1.454545259475708
v 16.0 0.0 -13.090909004211426
v 16.0 0.0 -16.0
v 7.2727274894714355 0.0 -13.090909004211426
v -16.0 0.0 16.0
v -4.363636016845703 0.0 -10.181818008422852
v 13.090909004211426 0.0 -4.363636016845703
v -13.090909004211426 0.0 -4.363636016845703
v 1.4545457363128662 0.0 1.454545259475708
v -1.454545021057129 0.0 7.2727274894714355
v -1.454545021057129 0.0 4.363636493682861
v -1.454545021057129 0.0 10.181818008422852
v -1.4545457363128662 0.0 -16.0
v 1.4545457363128662 0.0 -13.090909004211426
v -10.181818008422852 0.0 16.0
v 16.0 0.0 4.363636016845703
v 4.363636493682861 0.0 -10.181818008422852
v -4.363636016845703 0.0 4.363636493682861
v -4.363636016845703 0.0 10.181818008422852
v -4.363636493682861 0.0 -16.0
v 13.090909004211426 0.0 16.0
v -16.0 0.0 -13.090909004211426
v -13.090909004211426 0.0 16.0
v -16.0 0.0 -16.0
v -13.090909004211426 0.0 13.090909004211426
v 10.181818008422852 0.0 -10.181818008422852
v 10.181818008422852 0.0 -13.090909004211426
v -7.272727012634277 0.0 16.0
v -10.181818008422852 0.0 -13.090909004211426
v -13.090909004211426 0.0 1.4545456171035767
v -1.454545021057129 0.0 -4.363636016845703
v 16.0 0.0 -10.181818008422852
v 16.0 0.0 -4.363636493682861
v -1.454545021057129 0.0 1.4545453786849976
v 4.363636493682861 0.0 4.363636493682861
v 16.0 0.0 -7.2727274894714355
v 4.363636493682861 0.0 10.181818008422852
v 7.2727274894714355 0.0 -10.181818008422852
v 13.090909004211426 0.0 -13.090909004211426
v 13.090909004211426 0.0 -16.0
v -13.090909004211426 0.0 -16.0
v -4.363636016845703 0.0 -4.363636016845703
v 10.181818008422852 0.0 4.363636493682861
v -4.363636016845703 0.0 -7.272727012634277
v -10.181818008422852 0.0 1.454545497894287
v -1.454545021057129 0.0 16.0
v -1.454545021057129 0.0 13.090909004211426
v -7.272727012634277 0.0 -13.090909004211426

vn 0.0 1.0 0.0

vt 0.5454545021057129 0.8181818127632141
vt 0.636363685131073 0.1818181872367859
vt 0.1818181723356247 0.09090909361839294
vt 0.6363637447357178 0.4545454978942871
vt 0.27272725105285645 0.8181818127632141
vt 0.09090908616781235 0.8181818127632141
vt 0.7272727489471436 0.0
vt 0.3636363744735718 0.9090908765792847
vt 0.0 0.8181817531585693
vt 1.0 0.5454545617103577
vt 0.5454545617103577 0.1818181872367859
vt 0.7272726893424988 0.7272727489471436
vt 0.4545454978942871 0.0
vt 0.27272728085517883 0.7272727489471436
vt 0.8181817531585693 0.5454545617103577
vt 0.27272728085517883 1.0
vt 0.7272726893424988 0.09090909361839294
vt 0.3636363744735718 0.0
vt 0.0 0.9090908765792847
vt 0.27272728085517883 0.09090909361839294
vt 0.9090908169746399 0.3636363744735718
vt 1.0 0.636363685131073
vt 0.1818181723356247 0.5454545617103577
vt 0.8181817531585693 0.636363685131073
vt 0.9090908765792847 0.7272727489471436
vt 0.636363685131073 0.0
vt 0.0 0.0
vt 0.9090908169746399 0.4545454978942871
vt 0.1818181723356247 0.636363685131073
vt 0.9090908765792847 1.0
vt 0.4545454680919647 1.0
vt 0.9090908765792847 0.09090909361839294
vt 0.5454545617103577 0.0
vt 1.0 0.3636363744735718
vt 0.6363636255264282 1.0
vt 0.7272726893424988 0.5454545617103577
vt 0.27272728085517883 0.5454545617103577
vt 0.8181817531585693 0.3636363744735718
vt 0.09090908616781235 0.7272727489471436
vt 0.1818181723356247 1.0
vt 0.3636363744735718 0.8181818127632141
vt 0.0 0.7272726893424988
vt 0.9090908169746399 0.1818181872367859
vt 1.0 0.4545454978942871
vt 0.1818181872367859 0.0
vt 0.1818181723356247 0.3636363744735718
vt 0.7272726893424988 0.636363685131073
vt 0.0 0.4545454680919647
vt 0.27272728085517883 0.636363685131073
vt 0.8181817531585693 0.4545454978942871
vt 0.09090908616781235 0.09090909361839294
vt 0.7272727489471436 0.27272728085517883
vt 0.8181816935539246 0.1818181872367859
vt 0.9090908765792847 0.5454545617103577
vt 0.636363685131073 0.8181818127632141
vt 0.4545454978942871 0.27272728085517883
vt 0.1818181723356247 0.4545454978942871
vt 0.7272726893424988 1.0
vt 1.0 0.1818181872367859
vt 0.7272726893424988 0.3636363744735718
vt 0.3636363744735718 0.27272728085517883
vt 0.27272728085517883 0.3636363744735718
vt 0.9090908765792847 0.636363685131073
vt 0.09090908616781235 0.5454545617103577
vt 0.636363685131073 0.27272728085517883
vt 0.1818181723356247 0.1818181872367859
vt 0.7272726893424988 0.4545454978942871
vt 0.0 0.27272728085517883
vt 0.27272728085517883 0.4545454978942871
vt 0.4545454978942871 0.7272727489471436
vt 1.0 0.9090908765792847
vt 0.4545454680919647 0.9090908765792847
vt 0.09090908616781235 0.636363685131073
vt 0.5454545617103577 0.27272728085517883
vt 0.8181817531585693 0.9090908765792847
vt 0.3636363744735718 0.7272727489471436
vt 0.0 0.6363636255264282
vt 0.4545454978942871 0.09090909361839294
vt 1.0 0.0
vt 0.1818181723356247 0.9090908765792847
vt 0.7272726893424988 0.1818181872367859
vt 0.3636363744735718 0.09090909361839294
vt 0.27272728085517883 0.1818181872367859
vt 0.1818181872367859 0.27272728085517883
vt 0.09090908616781235 1.0
vt 0.09090908616781235 0.3636363744735718
vt 0.5454545617103577 0.7272727489471436
vt 0.636363685131073 0.09090909361839294
vt 0.09090909361839294 0.0
vt 0.4545454978942871 0.5454545617103577
vt 0.5454545617103577 1.0
vt 0.7272726893424988 0.9090908765792847
vt 0.8181816935539246 0.8181818127632141
vt 0.09090908616781235 0.4545454978942871
vt 0.5454545617103577 0.09090909361839294
vt 0.6363637447357178 0.7272727489471436
vt 0.3636363744735718 0.5454545617103577
vt 0.8181818127632141 0.0
vt 0.4545454978942871 0.636363685131073
vt 1.0 0.8181818127632141
vt 0.4545454680919647 0.8181818127632141
vt 0.27272728085517883 0.0
vt 0.9090908169746399 0.27272728085517883
vt 0.0 0.1818181723356247
vt 0.3636363744735718 0.636363685131073
vt 0.0 0.5454545617103577
vt 0.9090908765792847 0.9090908765792847
vt 0.09090908616781235 0.1818181872367859
vt 0.8181816935539246 0.27272728085517883
vt 0.5454545617103577 0.5454545617103577
vt 0.6363636255264282 0.9090908765792847
vt 0.1818181723356247 0.8181818127632141
vt 0.4545454978942871 0.3636363744735718
vt 0.3636363744735718 1.0
vt 0.9090908765792847 0.0
vt 0.5454545021057129 0.9090908765792847
vt 1.0 0.27272728085517883
vt 0.6363637447357178 0.5454545617103577
vt 0.3636363744735718 0.3636363744735718
vt 0.5454545617103577 0.636363685131073
vt 0.27272725105285645 0.9090908765792847
vt 0.4545454978942871 0.4545454978942871
vt 0.09090908616781235 0.9090908765792847
vt 0.7272726893424988 0.8181818127632141
vt 0.0 1.0
vt 0.636363685131073 0.3636363744735718
vt 0.6363637447357178 0.636363685131073
vt 0.09090909361839294 0.27272728085517883
vt 0.3636363744735718 0.4545454978942871
vt 0.0 0.3636363744735718
vt 1.0 0.7272727489471436
vt 0.5454545617103577 0.3636363744735718
vt 0.4545454978942871 0.1818181872367859
vt 0.8181817531585693 0.7272727489471436
vt 1.0 1.0
vt 0.0 0.09090908616781235
vt 0.9090908765792847 0.8181818127632141
vt 1.0 0.09090909361839294
vt 0.3636363744735718 0.1818181872367859
vt 0.8181817531585693 1.0
vt 0.27272728085517883 0.27272728085517883
vt 0.5454545617103577 0.4545454978942871
vt 0.1818181723356247 0.7272727489471436
vt 0.8181817531585693 0.09090909361839294

f 83/107/1 117/71/1 78/135/1 39/30/1
f 136/19/1 135/123/1 98/85/1 99/125/1
f 135/123/1 28/80/1 128/40/1 98/85/1
f 28/80/1 66/121/1 132/16/1 128/40/1
f 66/121/1 103/8/1 129/114/1 132/16/1
f 103/8/1 48/72/1 5/31/1 129/114/1
f 48/72/1 9/116/1 73/91/1 5/31/1
f 9/116/1 7/111/1 112/35/1 73/91/1
f 7/111/1 46/92/1 2/58/1 112/35/1
f 46/92/1 85/75/1 40/140/1 2/58/1
f 85/75/1 83/107/1 39/30/1 40/140/1
f 120/27/1 118/89/1 30/51/1 137/136/1
f 137/136/1 30/51/1 125/108/1 91/104/1
f 91/104/1 125/108/1 144/128/1 68/68/1
f 68/68/1 144/128/1 64/86/1 116/130/1
f 116/130/1 64/86/1 55/94/1 109/48/1
f 109/48/1 55/94/1 110/64/1 18/106/1
f 18/106/1 110/64/1 80/73/1 3/77/1
f 3/77/1 80/73/1 100/39/1 22/42/1
f 22/42/1 100/39/1 123/6/1 89/9/1
f 89/9/1 123/6/1 135/123/1 136/19/1
f 118/89/1 14/45/1 29/3/1 30/51/1
f 30/51/1 29/3/1 20/66/1 125/108/1
f 125/108/1 20/66/1 35/84/1 144/128/1
f 144/128/1 35/84/1 102/46/1 64/86/1
f 64/86/1 102/46/1 53/57/1 55/94/1
f 55/94/1 53/57/1 1/23/1 110/64/1
f 110/64/1 1/23/1 113/29/1 80/73/1
f 80/73/1 113/29/1 134/143/1 100/39/1
f 100/39/1 134/143/1 122/112/1 123/6/1
f 123/6/1 122/112/1 28/80/1 135/123/1
f 14/45/1 49/102/1 67/20/1 29/3/1
f 29/3/1 67/20/1 58/83/1 20/66/1
f 20/66/1 58/83/1 75/141/1 35/84/1
f 35/84/1 75/141/1 140/62/1 102/46/1
f 102/46/1 140/62/1 95/69/1 53/57/1
f 53/57/1 95/69/1 37/37/1 1/23/1
f 1/23/1 37/37/1 10/49/1 113/29/1
f 113/29/1 10/49/1 26/14/1 134/143/1
f 134/143/1 26/14/1 19/5/1 122/112/1
f 122/112/1 19/5/1 66/121/1 28/80/1
f 49/102/1 88/18/1 104/82/1 67/20/1
f 67/20/1 104/82/1 57/139/1 58/83/1
f 58/83/1 57/139/1 74/61/1 75/141/1
f 75/141/1 74/61/1 138/119/1 140/62/1
f 140/62/1 138/119/1 127/129/1 95/69/1
f 95/69/1 127/129/1 36/97/1 37/37/1
f 37/37/1 36/97/1 8/105/1 10/49/1
f 10/49/1 8/105/1 62/76/1 26/14/1
f 26/14/1 62/76/1 56/41/1 19/5/1
f 19/5/1 56/41/1 103/8/1 66/121/1
f 88/18/1 87/13/1 21/78/1 104/82/1
f 104/82/1 21/78/1 76/133/1 57/139/1
f 57/139/1 76/133/1 96/56/1 74/61/1
f 74/61/1 96/56/1 15/113/1 138/119/1
f 138/119/1 15/113/1 65/122/1 127/129/1
f 127/129/1 65/122/1 38/90/1 36/97/1
f 36/97/1 38/90/1 11/99/1 8/105/1
f 8/105/1 11/99/1 27/70/1 62/76/1
f 62/76/1 27/70/1 82/101/1 56/41/1
f 56/41/1 82/101/1 48/72/1 103/8/1
f 87/13/1 6/33/1 126/95/1 21/78/1
f 21/78/1 126/95/1 141/11/1 76/133/1
f 76/133/1 141/11/1 16/74/1 96/56/1
f 96/56/1 16/74/1 81/132/1 15/113/1
f 15/113/1 81/132/1 130/142/1 65/122/1
f 65/122/1 130/142/1 105/110/1 38/90/1
f 38/90/1 105/110/1 77/120/1 11/99/1
f 11/99/1 77/120/1 97/87/1 27/70/1
f 27/70/1 97/87/1 41/1/1 82/101/1
f 82/101/1 41/1/1 9/116/1 48/72/1
f 6/33/1 25/26/1 45/88/1 126/95/1
f 126/95/1 45/88/1 33/2/1 141/11/1
f 141/11/1 33/2/1 50/65/1 16/74/1
f 16/74/1 50/65/1 114/126/1 81/132/1
f 81/132/1 114/126/1 107/4/1 130/142/1
f 130/142/1 107/4/1 17/118/1 105/110/1
f 105/110/1 17/118/1 131/127/1 77/120/1
f 77/120/1 131/127/1 4/96/1 97/87/1
f 97/87/1 4/96/1 139/55/1 41/1/1
f 41/1/1 139/55/1 7/111/1 9/116/1
f 25/26/1 60/7/1 84/17/1 45/88/1
f 45/88/1 84/17/1 71/81/1 33/2/1
f 33/2/1 71/81/1 90/52/1 50/65/1
f 50/65/1 90/52/1 12/60/1 114/126/1
f 114/126/1 12/60/1 106/67/1 107/4/1
f 107/4/1 106/67/1 51/36/1 17/118/1
f 17/118/1 51/36/1 23/47/1 131/127/1
f 131/127/1 23/47/1 42/12/1 4/96/1
f 4/96/1 42/12/1 31/124/1 139/55/1
f 139/55/1 31/124/1 46/92/1 7/111/1
f 60/7/1 63/98/1 86/144/1 84/17/1
f 84/17/1 86/144/1 34/53/1 71/81/1
f 71/81/1 34/53/1 93/109/1 90/52/1
f 90/52/1 93/109/1 115/38/1 12/60/1
f 12/60/1 115/38/1 108/50/1 106/67/1
f 106/67/1 108/50/1 54/15/1 51/36/1
f 51/36/1 54/15/1 133/24/1 23/47/1
f 23/47/1 133/24/1 44/134/1 42/12/1
f 42/12/1 44/134/1 32/93/1 31/124/1
f 31/124/1 32/93/1 85/75/1 46/92/1
f 63/98/1 61/115/1 121/32/1 86/144/1
f 86/144/1 121/32/1 72/43/1 34/53/1
f 34/53/1 72/43/1 92/103/1 93/109/1
f 93/109/1 92/103/1 13/21/1 115/38/1
f 115/38/1 13/21/1 143/28/1 108/50/1
f 108/50/1 143/28/1 52/54/1 54/15/1
f 54/15/1 52/54/1 24/63/1 133/24/1
f 133/24/1 24/63/1 43/25/1 44/134/1
f 44/134/1 43/25/1 70/137/1 32/93/1
f 32/93/1 70/137/1 83/107/1 85/75/1
f 61/115/1 101/79/1 119/138/1 121/32/1
f 121/32/1 119/138/1 111/59/1 72/43/1
f 72/43/1 111/59/1 124/117/1 92/103/1
f 92/103/1 124/117/1 47/34/1 13/21/1
f 13/21/1 47/34/1 142/44/1 143/28/1
f 143/28/1 142/44/1 94/10/1 52/54/1
f 52/54/1 94/10/1 59/22/1 24/63/1
f 24/63/1 59/22/1 79/131/1 43/25/1
f 43/25/1 79/131/1 69/100/1 70/137/1
f 70/137/1 69/100/1 117/71/1 83/107/1
