v 0.2708951234817505 5.0 1.9999992847442627
v 0.2576366662979126 5.0 -1.9162886142730713
v -0.2708946466445923 5.0 1.9999992847442627
v 2.011032620430342e-07 0.0 2.2708942890167236
v 0.2576366066932678 0.0 -2.0837104320526123
v 0.21915900707244873 0.0 1.8407716751098633
v 0.15922850370407104 5.0 -1.7808408737182617
v -0.2191583514213562 0.0 2.159227132797241
v 0.15922823548316956 0.0 2.2191579341888428
v -0.2576361894607544 5.0 -2.0837104320526123
v 2.011032620430342e-07 5.0 2.2708942890167236
v -0.2191583514213562 0.0 -2.159227132797241
v 0.2576366066932678 0.0 2.0837104320526123
v -0.0837107002735138 0.0 -1.7423629760742188
v 0.2708951234817505 0.0 -1.9999992847442627
v -0.21915823221206665 5.0 -1.840771198272705
v -0.2708946466445923 0.0 -1.9999992847442627
v -0.1592276394367218 0.0 1.7808406352996826
v 0.08371132612228394 5.0 2.2576355934143066
v -0.15922778844833374 5.0 2.2191579341888428
v -0.0837109237909317 5.0 2.2576355934143066
v 0.21915876865386963 0.0 -2.1592273712158203
v -0.0837107002735138 0.0 1.7423629760742188
v 4.745203341371962e-07 0.0 1.7291045188903809
v -0.2191583514213562 5.0 2.159227132797241
v -0.25763607025146484 0.0 1.916288137435913
v 0.08371132612228394 5.0 -2.2576355934143066
v -0.2576361894607544 5.0 2.0837104320526123
v 0.08371162414550781 0.0 -1.7423629760742188
v 0.2576366662979126 5.0 1.9162886142730713
v -0.15922778844833374 5.0 -2.2191579341888428
v 0.15922823548316956 5.0 -2.2191579341888428
v 0.21915900707244873 5.0 -1.8407716751098633
v 0.15922850370407104 5.0 1.7808408737182617
v -0.21915823221206665 0.0 1.840771198272705
v -0.2191583514213562 5.0 -2.159227132797241
v -0.0837109237909317 0.0 2.2576355934143066
v -0.1592276394367218 0.0 -1.7808406352996826
v 0.08371162414550781 0.0 1.7423629760742188
v -0.0837107002735138 5.0 -1.7423629760742188
v 4.745203341371962e-07 5.0 1.7291045188903809
v 0.2576366066932678 5.0 -2.0837104320526123
v -0.1592276394367218 5.0 1.7808406352996826
v -0.25763607025146484 5.0 1.916288137435913
v 0.21915876865386963 0.0 2.1592273712158203
v 0.21915900707244873 5.0 1.8407716751098633
v -0.0837109237909317 0.0 -2.2576355934143066
v -0.25763607025146484 0.0 -1.916288137435913
v 2.011032620430342e-07 5.0 -2.2708942890167236
v -0.0837107002735138 5.0 1.7423629760742188
v 0.15922823548316956 5.0 2.2191579341888428
v 0.2708951234817505 0.0 1.9999992847442627
v 0.2576366662979126 0.0 -1.9162886142730713
v -0.2708946466445923 0.0 1.9999992847442627
v 2.011032620430342e-07 0.0 -2.2708942890167236
v 0.15922850370407104 0.0 -1.7808408737182617
v -0.0837109237909317 5.0 -2.2576355934143066
v -0.1592276394367218 5.0 -1.7808406352996826
v -0.25763607025146484 5.0 -1.916288137435913
v 0.2576366066932678 5.0 2.0837104320526123
v 0.2708951234817505 5.0 -1.9999992847442627
v -0.2708946466445923 5.0 -1.9999992847442627
v -0.2576361894607544 0.0 -2.0837104320526123
v 4.745203341371962e-07 0.0 -1.7291045188903809
v 0.21915876865386963 5.0 -2.1592273712158203
v 0.08371162414550781 5.0 -1.7423629760742188
v -0.21915823221206665 0.0 -1.840771198272705
v 0.08371132612228394 0.0 2.2576355934143066
v -0.21915823221206665 5.0 1.840771198272705
v -0.15922778844833374 0.0 2.2191579341888428
v 0.08371162414550781 5.0 1.7423629760742188
v 4.745203341371962e-07 5.0 -1.7291045188903809
v 0.08371132612228394 0.0 -2.2576355934143066
v -0.2576361894607544 0.0 2.0837104320526123
v 0.21915876865386963 5.0 2.1592273712158203
v 0.2576366662979126 0.0 1.9162886142730713
v -0.15922778844833374 0.0 -2.2191579341888428
v 0.15922823548316956 0.0 -2.2191579341888428
v 0.21915900707244873 0.0 -1.8407716751098633
v 0.15922850370407104 0.0 1.7808408737182617

vn -0.809015154838562 0.0 0.5877559781074524
vn -0.3089998960494995 0.0 -0.9510483145713806
vn 0.0 1.0 0.0
vn 0.0 0.0 -1.0
vn 0.809015154838562 0.0 0.5877559781074524
vn 0.0 0.0 1.0
vn 0.5877864956855774 0.0 -0.809015154838562
vn 0.0 -1.0 0.0
vn 0.9510483145713806 0.0 0.3089998960494995
vn -0.9510483145713806 0.0 0.3089998960494995
vn -0.5877559781074524 0.0 -0.809015154838562
vn 0.5877559781074524 0.0 -0.809015154838562
vn 0.3089998960494995 0.0 0.9510483145713806
vn 0.0 0.0 -0.999969482421875
vn 0.0 0.0 0.999969482421875
vn -0.809015154838562 0.0 -0.5877559781074524
vn 0.5877864956855774 0.0 0.809015154838562
vn -0.999969482421875 0.0 0.0
vn -0.3089998960494995 0.0 0.9510483145713806
vn 0.3089998960494995 0.0 -0.9510483145713806
vn 0.999969482421875 0.0 0.0
vn 0.9510483145713806 0.0 -0.3089998960494995
vn -0.9510483145713806 0.0 -0.3089998960494995
vn -0.5877559781074524 0.0 0.809015154838562
vn 0.809015154838562 0.0 -0.5877559781074524
vn 0.5877559781074524 0.0 0.809015154838562

vt 0.0 0.0

f 5/1/8 15/1/8 53/1/8 79/1/8 56/1/8 29/1/8 64/1/8 14/1/8 38/1/8 67/1/8 48/1/8 17/1/8 63/1/8 12/1/8 77/1/8 47/1/8 55/1/8 73/1/8 78/1/8 22/1/8
f 42/1/3 65/1/3 32/1/3 27/1/3 49/1/3 57/1/3 31/1/3 36/1/3 10/1/3 62/1/3 59/1/3 16/1/3 58/1/3 40/1/3 72/1/3 66/1/3 7/1/3 33/1/3 2/1/3 61/1/3
f 22/1/25 78/1/12 32/1/12 65/1/25
f 56/1/17 79/1/5 33/1/5 7/1/17
f 17/1/18 48/1/10 59/1/10 62/1/18
f 78/1/12 73/1/20 27/1/20 32/1/12
f 79/1/5 53/1/9 2/1/9 33/1/5
f 48/1/10 67/1/1 16/1/1 59/1/10
f 73/1/20 55/1/14 49/1/14 27/1/20
f 53/1/9 15/1/21 61/1/21 2/1/9
f 67/1/1 38/1/24 58/1/24 16/1/1
f 55/1/14 47/1/2 57/1/2 49/1/14
f 38/1/24 14/1/19 40/1/19 58/1/24
f 47/1/2 77/1/11 31/1/11 57/1/2
f 14/1/19 64/1/6 72/1/6 40/1/19
f 77/1/11 12/1/16 36/1/16 31/1/11
f 15/1/21 5/1/22 42/1/22 61/1/21
f 64/1/6 29/1/13 66/1/13 72/1/6
f 12/1/16 63/1/23 10/1/23 36/1/16
f 5/1/22 22/1/25 65/1/25 42/1/22
f 29/1/13 56/1/17 7/1/17 66/1/13
f 63/1/23 17/1/18 62/1/18 10/1/23
f 13/1/8 45/1/8 9/1/8 68/1/8 4/1/8 37/1/8 70/1/8 8/1/8 74/1/8 54/1/8 26/1/8 35/1/8 18/1/8 23/1/8 24/1/8 39/1/8 80/1/8 6/1/8 76/1/8 52/1/8
f 60/1/3 1/1/3 30/1/3 46/1/3 34/1/3 71/1/3 41/1/3 50/1/3 43/1/3 69/1/3 44/1/3 3/1/3 28/1/3 25/1/3 20/1/3 21/1/3 11/1/3 19/1/3 51/1/3 75/1/3
f 45/1/5 75/1/5 51/1/26 9/1/26
f 80/1/7 34/1/7 46/1/25 6/1/25
f 54/1/18 3/1/18 44/1/23 26/1/23
f 9/1/26 51/1/26 19/1/13 68/1/13
f 6/1/25 46/1/25 30/1/22 76/1/22
f 26/1/23 44/1/23 69/1/16 35/1/16
f 68/1/13 19/1/13 11/1/15 4/1/15
f 76/1/22 30/1/22 1/1/21 52/1/21
f 35/1/16 69/1/16 43/1/11 18/1/11
f 4/1/15 11/1/15 21/1/19 37/1/19
f 18/1/11 43/1/11 50/1/2 23/1/2
f 37/1/19 21/1/19 20/1/24 70/1/24
f 23/1/2 50/1/2 41/1/4 24/1/4
f 70/1/24 20/1/24 25/1/1 8/1/1
f 52/1/21 1/1/21 60/1/9 13/1/9
f 24/1/4 41/1/4 71/1/20 39/1/20
f 8/1/1 25/1/1 28/1/10 74/1/10
f 13/1/9 60/1/9 75/1/5 45/1/5
f 39/1/20 71/1/20 34/1/7 80/1/7
f 74/1/10 28/1/10 3/1/18 54/1/18
