v 0.055266931653022766 -0.21274334192276 2.0
v 0.10512383282184601 -0.5275263786315918 -2.0
v 0.05526711046695709 -0.552929699420929 -2.0
v 0.14469017088413239 -0.27771317958831787 -2.0
v 0.17009349167346954 -0.32756996154785156 -2.0
v 9.475547790527344 -0.2073049545288086 -1.3667160272598267
v -0.17884628474712372 -0.38283663988113403 2.0
v 0.17884685099124908 -0.38283658027648926 -2.0
v -0.055266186594963074 -0.5529298186302185 -2.0
v 0.10512365400791168 -0.23814666271209717 -2.0
v 0.17009355127811432 -0.43810296058654785 2.0
v -0.1446896642446518 -0.27771320939064026 -2.0
v -0.05526633560657501 -0.21274340152740479 2.0
v -0.1700928658246994 -0.4381032884120941 -2.0
v -0.10512296855449677 -0.5275266170501709 2.0
v 0.055266931653022766 -0.21274334192276 -2.0
v 2.819120936692343e-07 -0.20398998260498047 -2.0
v 0.1446903496980667 -0.48795977234840393 2.0
v -9.475547790527344 -0.2073049545288086 1.3667160272598267
v 2.819120936692343e-07 -0.20398998260498047 2.0
v 9.475547790527344 0.19269514083862305 1.3667160272598267
v -0.17884628474712372 -0.38283663988113403 -2.0
v 4.6242379880823137e-07 -0.561683177947998 2.0
v -0.05526633560657501 -0.21274340152740479 -2.0
v -0.17009292542934418 -0.32756999135017395 2.0
v 0.17009355127811432 -0.43810296058654785 -2.0
v -9.475547790527344 -0.2073049545288086 -1.3667160272598267
v -0.10512296855449677 -0.5275266170501709 -2.0
v -0.14468954503536224 -0.4879600405693054 2.0
v 9.475547790527344 0.19269514083862305 -1.3667160272598267
v -0.10512308776378632 -0.23814666271209717 2.0
v -9.475547790527344 0.19269514083862305 1.3667160272598267
v 0.1446903496980667 -0.48795977234840393 -2.0
v 0.14469017088413239 -0.27771317958831787 2.0
v 0.10512383282184601 -0.5275263786315918 2.0
v 0.05526711046695709 -0.552929699420929 2.0
v 4.6242379880823137e-07 -0.561683177947998 -2.0
v 0.17009349167346954 -0.32756996154785156 2.0
v -9.475547790527344 0.19269514083862305 -1.3667160272598267
v -0.17009292542934418 -0.32756999135017395 -2.0
v -0.14468954503536224 -0.4879600405693054 -2.0
v 9.475547790527344 -0.2073049545288086 1.3667160272598267
v 0.17884685099124908 -0.38283658027648926 2.0
v -0.055266186594963074 -0.5529298186302185 2.0
v -0.1700928658246994 -0.4381032884120941 2.0
v 0.10512365400791168 -0.23814666271209717 2.0
v -0.1446896642446518 -0.27771320939064026 2.0
v -0.10512308776378632 -0.23814666271209717 -2.0

vn -0.9510483145713806 0.3089998960494995 0.0
vn -0.3089998960494995 0.9510483145713806 0.0
vn 0.0 1.0 0.0
vn 0.0 0.0 -1.0
vn 0.0 0.0 1.0
vn 0.0 -1.0 0.0
vn -0.809015154838562 0.5877559781074524 0.0
vn 0.3089998960494995 -0.9510483145713806 0.0
vn 0.9510483145713806 -0.3089998960494995 0.0
vn -0.9510483145713806 -0.3089998960494995 0.0
vn 0.809015154838562 0.5877559781074524 0.0
vn -0.809015154838562 -0.5877559781074524 0.0
vn -0.5877559781074524 0.809015154838562 0.0
vn 0.5877559781074524 0.809015154838562 0.0
vn 1.0 0.0 0.0
vn -0.3089998960494995 -0.9510483145713806 0.0
vn 0.809015154838562 -0.5877559781074524 0.0
vn -0.5877559781074524 -0.809015154838562 0.0
vn 0.999969482421875 0.0 0.0
vn 0.5877559781074524 -0.809015154838562 0.0
vn -1.0 0.0 0.0
vn 0.3089998960494995 0.9510483145713806 0.0
vn 0.9510483145713806 0.3089998960494995 0.0

vt 0.7702646255493164 1.5325483083724976
vt 0.7749385833740234 1.5325483083724976
vt 0.25 -6.863280296325684
vt 0.9565985202789307 1.5325483083724976
vt 0.9612725973129272 -0.6034537553787231
vt 0.375 0.25
vt 0.375 0.5
vt 0.375 0.75
vt 0.8952809572219849 1.5325483083724976
vt 0.0 -3.38411545753479
vt 0.8362566232681274 1.5325483083724976
vt 0.7749385833740234 -0.6034537553787231
vt 0.9430332183837891 -0.6034537553787231
vt 0.9565985202789307 -0.6034537553787231
vt 0.0 1.0
vt 0.9219045639038086 1.5325483083724976
vt 0.865768551826477 1.5325483083724976
vt 0.9612728357315063 1.5325483083724976
vt 0.7885042428970337 1.5325483083724976
vt 0.8952809572219849 -0.6034537553787231
vt 0.8657687902450562 -0.6034537553787231
vt 0.625 0.5
vt 0.625 0.25
vt 1.0 -3.38411545753479
vt 0.8096327781677246 -0.6034537553787231
vt 0.25 1.0
vt 0.7702642679214478 -0.6034537553787231
vt 0.0 -6.863280296325684
vt 0.0 0.0
vt 0.125 0.75
vt 1.0 1.0
vt 0.9219045639038086 -0.6034537553787231
vt 0.865768551826477 -0.6034537553787231
vt 0.7885042428970337 -0.6034537553787231
vt 0.8096330165863037 1.5325483083724976
vt 0.9430333375930786 1.5325483083724976
vt 0.8657690286636353 1.5325483083724976
vt 0.125 0.5
vt 0.8362563848495483 -0.6034537553787231

f 5/29/4 8/29/4 26/29/4 33/29/4 2/29/4 3/29/4 37/29/4 9/29/4 28/29/4 41/29/4 14/29/4 22/29/4 40/29/4 12/29/4 48/29/4 24/29/4 17/29/4 16/29/4 10/29/4 4/29/4
f 38/29/5 34/29/5 46/29/5 1/29/5 20/29/5 13/29/5 31/29/5 47/29/5 25/29/5 7/29/5 45/29/5 29/29/5 15/29/5 44/29/5 23/29/5 36/29/5 35/29/5 18/29/5 11/29/5 43/29/5
f 10/16/14 16/9/22 1/20/22 46/32/14
f 33/36/17 26/4/9 11/14/9 18/13/17
f 14/2/10 41/19/12 29/34/12 45/12/10
f 16/9/22 17/17/3 20/33/3 1/20/22
f 26/4/9 8/18/19 43/5/19 11/14/9
f 41/19/12 28/35/18 15/25/18 29/34/12
f 17/17/3 24/11/2 13/39/2 20/33/3
f 28/35/18 9/11/16 44/39/16 15/25/18
f 24/11/2 48/35/13 31/25/13 13/39/2
f 9/11/16 37/37/6 23/21/6 44/39/16
f 48/35/13 12/19/7 47/34/7 31/25/13
f 8/18/19 5/4/23 38/14/23 43/5/19
f 37/37/6 3/9/8 36/20/8 23/21/6
f 12/19/7 40/2/1 25/12/1 47/34/7
f 5/4/23 4/36/11 34/13/11 38/14/23
f 3/9/8 2/16/20 35/32/20 36/20/8
f 40/2/1 22/1/21 7/27/21 25/12/1
f 4/36/11 10/16/14 46/32/14 34/13/11
f 2/16/20 33/36/17 18/13/17 35/32/20
f 22/1/21 14/2/10 45/12/10 7/27/21
f 39/28/4 30/15/4 6/26/4 27/3/4
f 30/6/15 21/7/15 42/22/15 6/23/15
f 42/10/6 19/15/6 27/31/6 6/24/6
f 30/10/3 39/15/3 32/31/3 21/24/3
f 32/38/21 39/30/21 27/8/21 19/7/21
f 21/28/5 32/15/5 19/26/5 42/3/5
